<svg width="41" height="40" viewBox="0 0 41 40" fill="none" xmlns="http://www.w3.org/2000/svg">
<path d="M20.5 39C31.2435 39 40 30.5191 40 20C40 9.48094 31.2435 1 20.5 1C9.75645 1 1 9.48094 1 20C1 30.5191 9.75645 39 20.5 39Z" stroke="#FF8152" stroke-width="2"/>
<path d="M18.3047 29H22.1524V21.8332H25.6191L26 18.2721H22.1524V16.4737C22.1524 16.2364 22.2537 16.0088 22.4341 15.841C22.6145 15.6732 22.8592 15.5789 23.1143 15.5789H26V12H23.1143C21.8387 12 20.6154 12.4713 19.7134 13.3103C18.8115 14.1493 18.3047 15.2872 18.3047 16.4737V18.2721H16.3809L16 21.8332H18.3047V29Z" fill="#FF8152"/>
</svg>
