<svg width="41" height="40" viewBox="0 0 41 40" fill="none" xmlns="http://www.w3.org/2000/svg">
<path d="M20.5 39C31.2435 39 40 30.5191 40 20C40 9.48094 31.2435 1 20.5 1C9.75645 1 1 9.48094 1 20C1 30.5191 9.75645 39 20.5 39Z" stroke="#FF8152" stroke-width="2"/>
<path d="M29.3785 16.0342C29.3687 15.318 29.2309 14.609 28.9713 13.9388C28.7462 13.3735 28.4023 12.8601 27.9617 12.4314C27.5211 12.0027 26.9935 11.6682 26.4124 11.4491C25.7325 11.2008 25.0142 11.0665 24.288 11.052C23.3531 11.0113 23.0567 11 20.6835 11C18.3103 11 18.0061 11 17.078 11.052C16.3522 11.0666 15.6342 11.2009 14.9545 11.4491C14.3734 11.668 13.8457 12.0025 13.4051 12.4312C12.9645 12.8599 12.6207 13.3734 12.3957 13.9388C12.1399 14.5999 12.0022 15.2987 11.9885 16.0049C11.9467 16.9155 11.9341 17.2039 11.9341 19.5129C11.9341 21.822 11.9341 22.117 11.9885 23.021C12.0031 23.7283 12.1401 24.4261 12.3957 25.0889C12.621 25.6542 12.9651 26.1674 13.4059 26.596C13.8466 27.0245 14.3744 27.3589 14.9555 27.5777C15.6333 27.836 16.3514 27.9799 17.079 28.0032C18.0148 28.0438 18.3112 28.0561 20.6845 28.0561C23.0577 28.0561 23.3619 28.0561 24.29 28.0032C25.0161 27.9893 25.7345 27.8553 26.4144 27.607C26.9952 27.3877 27.5228 27.0531 27.9633 26.6244C28.4039 26.1957 28.7478 25.6825 28.9732 25.1173C29.2288 24.4554 29.3658 23.7576 29.3804 23.0494C29.4222 22.1397 29.4348 21.8513 29.4348 19.5413C29.4329 17.2322 29.4329 16.9391 29.3785 16.0342ZM20.6777 23.8796C18.1956 23.8796 16.1849 21.9232 16.1849 19.5082C16.1849 17.0932 18.1956 15.1369 20.6777 15.1369C21.8692 15.1369 23.012 15.5974 23.8545 16.4172C24.6971 17.237 25.1704 18.3489 25.1704 19.5082C25.1704 20.6676 24.6971 21.7794 23.8545 22.5992C23.012 23.419 21.8692 23.8796 20.6777 23.8796ZM25.3493 15.9945C25.2116 15.9946 25.0754 15.9683 24.9482 15.9171C24.821 15.866 24.7055 15.7909 24.6082 15.6962C24.5109 15.6015 24.4337 15.4891 24.3811 15.3654C24.3285 15.2417 24.3015 15.1091 24.3016 14.9752C24.3016 14.8414 24.3287 14.7089 24.3813 14.5853C24.434 14.4617 24.5111 14.3493 24.6083 14.2547C24.7056 14.1601 24.821 14.0851 24.948 14.0339C25.0751 13.9827 25.2113 13.9563 25.3488 13.9563C25.4863 13.9563 25.6225 13.9827 25.7495 14.0339C25.8765 14.0851 25.992 14.1601 26.0892 14.2547C26.1865 14.3493 26.2636 14.4617 26.3162 14.5853C26.3688 14.7089 26.3959 14.8414 26.3959 14.9752C26.3959 15.5387 25.9275 15.9945 25.3493 15.9945Z" fill="#FF8152"/>
<path d="M20.6779 22.3475C22.2897 22.3475 23.5963 21.0762 23.5963 19.508C23.5963 17.9398 22.2897 16.6685 20.6779 16.6685C19.0661 16.6685 17.7595 17.9398 17.7595 19.508C17.7595 21.0762 19.0661 22.3475 20.6779 22.3475Z" fill="#FF8152"/>
</svg>
