<svg width="41" height="40" viewBox="0 0 41 40" fill="none" xmlns="http://www.w3.org/2000/svg">
<path d="M20.5 39C31.2435 39 40 30.5191 40 20C40 9.48094 31.2435 1 20.5 1C9.75645 1 1 9.48094 1 20C1 30.5191 9.75645 39 20.5 39Z" stroke="#FF8152" stroke-width="2"/>
<path d="M30 14.7768C29.4709 15.5417 28.8218 16.1937 28.0527 16.7328C28.0602 16.8774 28.064 17.0409 28.064 17.2231C28.064 18.2359 27.9121 19.2498 27.6083 20.265C27.3044 21.2802 26.8403 22.2519 26.2159 23.1801C25.5915 24.1084 24.8477 24.9307 23.9846 25.6472C23.1214 26.3636 22.0838 26.9349 20.8719 27.3609C19.6599 27.787 18.361 28 16.9752 28C14.8124 28 12.8207 27.4325 11 26.2976C11.3231 26.3326 11.6331 26.35 11.9298 26.35C13.7366 26.35 15.3504 25.8091 16.7712 24.7274C15.9287 24.7124 15.1743 24.4603 14.5078 23.9712C13.8412 23.4822 13.3826 22.8572 13.1317 22.0964C13.3797 22.1423 13.6244 22.1653 13.8659 22.1653C14.2134 22.1653 14.5555 22.1212 14.8919 22.0331C13.9929 21.8581 13.247 21.4229 12.6544 20.7275C12.0618 20.0321 11.7655 19.2295 11.7655 18.3197V18.2728C12.3173 18.5697 12.906 18.7277 13.5314 18.7466C12.9988 18.4016 12.5765 17.9516 12.2646 17.3967C11.9526 16.8418 11.7966 16.2412 11.7966 15.5951C11.7966 14.9137 11.9723 14.2792 12.3237 13.6915C13.3014 14.8576 14.4861 15.7895 15.8778 16.4874C17.2695 17.1853 18.7626 17.5728 20.3569 17.6501C20.2889 17.3747 20.2549 17.0872 20.2547 16.7878C20.2547 15.7424 20.6354 14.8497 21.3968 14.1098C22.1581 13.3699 23.0766 13 24.1524 13C25.2786 13 26.2272 13.3986 26.9983 14.1957C27.8792 14.0261 28.7041 13.7193 29.4728 13.2754C29.1766 14.1813 28.6059 14.8802 27.7607 15.3719C28.5376 15.2822 29.284 15.0838 30 14.7768Z" fill="#FF8152"/>
</svg>
