<svg width="1440" height="707" viewBox="0 0 1440 707" fill="none" xmlns="http://www.w3.org/2000/svg">
<rect x="-1" width="1440" height="707" fill="#EBEBFF"/>
<mask id="mask0_324_5283" style="mask-type:alpha" maskUnits="userSpaceOnUse" x="-3" y="0" width="1447" height="707">
<rect x="-3" width="1447" height="707" fill="#F8F8FF"/>
</mask>
<g mask="url(#mask0_324_5283)">
<circle cx="200.5" cy="179.5" r="411.5" fill="url(#paint0_radial_324_5283)"/>
<ellipse cx="233" cy="573" rx="319" ry="90" fill="url(#paint1_radial_324_5283)"/>
<circle cx="1350.5" cy="102.5" r="256.5" fill="url(#paint2_radial_324_5283)"/>
<ellipse cx="1263.5" cy="575.5" rx="307.5" ry="131.5" fill="url(#paint3_radial_324_5283)"/>
<path d="M472.968 70.588C465.198 74.1083 466.131 83.0989 461.539 93.5602C454.81 108.906 459.977 117.604 467.01 116.905C474.043 116.206 476.787 105.885 483.755 103.136H483.82H483.885C490.752 100.089 498.866 105.872 504.58 101.226C510.294 96.5815 509.106 86.22 495.04 79.5786C485.453 75.0067 480.892 67.5334 472.968 70.588Z" fill="#FF8152" fill-opacity="0.06"/>
<path d="M451.852 72.0054C458.421 76.8767 461.48 84.6495 458.677 89.4143C455.873 94.1791 448.276 94.0726 441.706 89.1947C435.137 84.3168 432.078 76.5506 434.881 71.7858C437.685 67.021 445.276 67.1341 451.852 72.0054Z" fill="#FF8152" fill-opacity="0.06"/>
<path d="M489.736 56.1404C487.622 64.6452 489.879 72.7774 494.773 74.2946C499.668 75.8119 505.346 70.162 507.455 61.6506C509.563 53.1392 507.306 45.0137 502.412 43.4898C497.517 41.9658 491.845 47.6356 489.736 56.1404Z" fill="#FF8152" fill-opacity="0.06"/>
<path d="M463.143 48.1015C467.372 56.0872 467.064 65.0844 462.454 68.1389C457.845 71.1935 450.675 67.174 446.417 59.1617C442.158 51.1493 442.496 42.1787 447.112 39.1242C451.727 36.0697 458.914 40.0891 463.143 48.1015Z" fill="#FF8152" fill-opacity="0.06"/>
<path d="M467.212 46.3979C468.715 55.5548 474.197 62.0965 479.466 61.0384C484.735 59.9803 487.782 51.6551 486.291 42.5048C484.8 33.3545 479.306 26.7996 474.037 27.8643C468.768 28.9291 465.715 37.2343 467.212 46.3979Z" fill="#FF8152" fill-opacity="0.06"/>
<path d="M1423.52 159.529C1415.27 157.932 1411.83 166.124 1403.01 172.3C1390.06 181.37 1390.37 191.811 1396.67 195.372C1402.97 198.932 1410.16 191.778 1417.38 193.561H1417.45H1417.51C1424.78 195.026 1428.96 204.735 1436 204.163C1443.05 203.59 1446.91 194.081 1438.08 180.132C1432.08 170.656 1431.7 161.612 1423.52 159.529Z" fill="#FF8152" fill-opacity="0.06"/>
<path d="M1404.91 148.263C1408.21 156.248 1407.14 164.713 1402.54 167.089C1397.93 169.465 1391.51 164.899 1388.22 156.88C1384.92 148.861 1385.99 140.437 1390.59 138.054C1395.2 135.672 1401.62 140.244 1404.91 148.263Z" fill="#FF8152" fill-opacity="0.06"/>
<path d="M1444.55 157.153C1438.76 163.143 1436.83 171.374 1440.29 175.56C1443.75 179.746 1451.22 178.289 1457.02 172.306C1462.82 166.323 1464.74 158.085 1461.28 153.899C1457.81 149.713 1450.36 151.171 1444.55 157.153Z" fill="#FF8152" fill-opacity="0.06"/>
<path d="M1425.76 134.62C1425.58 143.937 1421.1 151.37 1415.74 151.257C1410.38 151.144 1406.19 143.478 1406.36 134.174C1406.53 124.871 1411.03 117.424 1416.38 117.537C1421.73 117.651 1425.93 125.31 1425.76 134.62Z" fill="#FF8152" fill-opacity="0.06"/>
<path d="M1430.02 135.572C1426.98 144.223 1428.57 153.04 1433.58 155.23C1438.59 157.419 1445.07 152.175 1448.1 143.504C1451.13 134.833 1449.55 126.035 1444.56 123.846C1439.58 121.657 1433.05 126.907 1430.02 135.572Z" fill="#FF8152" fill-opacity="0.06"/>
<path d="M170.39 196.895C176.995 202.672 183.457 197.275 193.858 196.489C209.088 195.345 213.222 185.988 209.165 179.506C205.108 173.025 195.759 175.514 190.158 170.15L190.104 170.097L190.051 170.05C184.259 164.913 184.669 154.152 178.218 150.924C171.768 147.697 164.349 154.045 166.285 170.995C167.556 182.574 164.064 190.733 170.39 196.895Z" fill="#FF8152" fill-opacity="0.06"/>
<path d="M200.392 217.9C200.868 209.088 197.144 201.666 192.075 201.322C187.006 200.979 182.511 207.844 182.036 216.656C181.56 225.468 185.284 232.89 190.353 233.234C195.422 233.577 199.917 226.712 200.392 217.9Z" fill="#FF8152" fill-opacity="0.06"/>
<path d="M150.841 187.858C158.468 185.649 163.624 179.394 162.353 173.883C161.082 168.373 153.871 165.698 146.238 167.894C138.605 170.09 133.455 176.359 134.727 181.869C135.998 187.379 143.203 190.061 150.841 187.858Z" fill="#FF8152" fill-opacity="0.06"/>
<path d="M157.916 217.672C161.997 209.559 169.089 205.374 173.752 208.315C178.415 211.256 178.896 220.227 174.821 228.339C170.746 236.451 163.648 240.637 158.985 237.689C154.322 234.741 153.841 225.784 157.916 217.672Z" fill="#FF8152" fill-opacity="0.06"/>
<path d="M154.566 214.577C160.892 208.541 163.209 199.937 159.734 195.378C156.259 190.82 148.317 191.998 141.991 198.04C135.665 204.083 133.355 212.681 136.824 217.239C140.292 221.798 148.24 220.613 154.566 214.577Z" fill="#FF8152" fill-opacity="0.06"/>
<path d="M940.96 117.298C943.336 108.287 936.44 103.529 931.967 93.008C925.398 77.5756 916.102 76.7238 912.223 83.3319C908.344 89.9401 913.88 98.7643 911.481 106.624C911.481 106.624 911.481 106.67 911.481 106.697V106.77C909.354 114.696 900.272 118.243 899.981 126.149C899.69 134.055 907.703 139.458 921.05 131.186C930.156 125.53 938.18 126.155 940.96 117.298Z" fill="#FF8152" fill-opacity="0.06"/>
<path d="M953.066 97.8593C945.581 100.621 938.216 98.4716 936.642 93.0613C935.068 87.651 939.837 81.0428 947.334 78.281C954.83 75.5193 962.183 77.6755 963.757 83.0858C965.331 88.4961 960.55 95.1309 953.066 97.8593Z" fill="#FF8152" fill-opacity="0.06"/>
<path d="M940.675 140.995C936.03 133.868 928.938 130.807 924.839 134.161C920.741 137.515 921.174 146.02 925.825 153.147C930.476 160.274 937.562 163.335 941.661 159.981C945.759 156.627 945.326 148.123 940.675 140.995Z" fill="#FF8152" fill-opacity="0.06"/>
<path d="M962.825 122.615C954.592 121.357 948.504 115.521 949.222 109.578C949.941 103.635 957.206 99.8289 965.438 101.08C973.671 102.331 979.759 108.167 979.041 114.117C978.322 120.066 971.028 123.866 962.825 122.615Z" fill="#FF8152" fill-opacity="0.06"/>
<path d="M961.465 127.247C954.123 122.881 946.14 123.646 943.645 128.95C941.15 134.254 945.053 142.087 952.395 146.446C959.736 150.805 967.719 150.039 970.214 144.742C972.709 139.445 968.806 131.606 961.465 127.247Z" fill="#FF8152" fill-opacity="0.06"/>
<path d="M792.54 191.159C788.816 199.571 794.839 205.6 797.613 216.833C801.676 233.317 810.68 235.972 815.539 230.216C820.398 224.459 816.311 214.703 819.893 207.463L819.929 207.397V207.33C823.255 199.937 832.753 198.226 834.274 190.5C835.794 182.774 828.761 175.913 814.31 181.416C804.491 185.17 796.65 182.974 792.54 191.159Z" fill="#FF8152" fill-opacity="0.06"/>
<path d="M777.589 207.929C785.388 206.678 792.296 210.232 793.033 215.862C793.77 221.492 788.014 227.075 780.209 228.326C772.404 229.577 765.508 226.023 764.765 220.387C764.023 214.75 769.778 209.174 777.589 207.929Z" fill="#FF8152" fill-opacity="0.06"/>
<path d="M796.508 167.881C799.971 175.806 806.481 180.205 811.043 177.703C815.604 175.201 816.495 166.749 813.027 158.817C809.558 150.884 803.059 146.492 798.498 148.994C793.936 151.497 793.045 159.948 796.508 167.881Z" fill="#FF8152" fill-opacity="0.06"/>
<path d="M771.864 181.643C779.776 184.491 784.866 191.425 783.227 197.142C781.587 202.858 773.847 205.181 765.936 202.339C758.024 199.497 752.939 192.556 754.578 186.84C756.218 181.124 763.952 178.808 771.864 181.643Z" fill="#FF8152" fill-opacity="0.06"/>
<path d="M773.895 177.351C780.428 183.08 788.424 183.892 791.714 179.161C795.005 174.429 792.38 165.951 785.828 160.221C779.276 154.491 771.299 153.686 768.008 158.411C764.717 163.136 767.349 171.621 773.895 177.351Z" fill="#FF8152" fill-opacity="0.06"/>
<path d="M1053.24 490.457C1056.28 481.706 1049.8 476.302 1046.15 465.389C1040.8 449.371 1031.61 447.62 1027.23 453.836C1022.85 460.051 1027.69 469.361 1024.69 476.928L1024.67 477.001C1024.67 477.001 1024.67 477.048 1024.67 477.074C1021.93 484.76 1012.61 487.416 1011.71 495.262C1010.81 503.108 1018.36 509.237 1032.32 502.322C1041.83 497.611 1049.79 499.015 1053.24 490.457Z" fill="#FF8152" fill-opacity="0.06"/>
<path d="M1066.77 472.269C1059.1 474.266 1051.92 471.438 1050.78 465.894C1049.64 460.351 1054.89 454.228 1062.56 452.205C1070.23 450.182 1077.41 453.037 1078.56 458.581C1079.7 464.124 1074.49 470.246 1066.77 472.269Z" fill="#FF8152" fill-opacity="0.06"/>
<path d="M1051.12 514.035C1047.05 506.481 1040.22 502.721 1035.87 505.696C1031.53 508.671 1031.31 517.149 1035.39 524.702C1039.47 532.255 1046.29 536.015 1050.64 533.047C1054.99 530.079 1055.2 521.588 1051.12 514.035Z" fill="#FF8152" fill-opacity="0.06"/>
<path d="M1074.58 497.87C1066.48 495.82 1060.86 489.419 1062.03 483.562C1063.21 477.706 1070.74 474.625 1078.84 476.668C1086.94 478.711 1092.56 485.126 1091.39 490.976C1090.21 496.825 1082.69 499.92 1074.58 497.87Z" fill="#FF8152" fill-opacity="0.06"/>
<path d="M1072.9 502.356C1065.92 497.298 1057.9 497.285 1054.99 502.356C1052.08 507.427 1055.39 515.579 1062.36 520.636C1069.33 525.694 1077.35 525.707 1080.26 520.67C1083.17 515.632 1079.87 507.413 1072.9 502.356Z" fill="#FF8152" fill-opacity="0.06"/>
<path d="M588.611 217.132C593.833 224.453 601.263 220.926 611.516 222.882C626.561 225.757 632.537 217.738 629.929 210.378C627.322 203.018 617.717 203.004 613.381 196.283L613.339 196.223L613.298 196.163C608.736 189.648 611.385 179.293 605.784 174.469C600.182 169.644 591.653 173.87 589.972 190.866C588.819 202.465 583.723 209.486 588.611 217.132Z" fill="#FF8152" fill-opacity="0.06"/>
<path d="M595.799 239.413C598.098 230.968 603.901 225.471 608.76 227.135C613.619 228.798 615.692 236.984 613.393 245.428C611.094 253.873 605.285 259.37 600.432 257.707C595.579 256.043 593.5 247.857 595.799 239.413Z" fill="#FF8152" fill-opacity="0.06"/>
<path d="M571.463 203.224C579.339 203.071 585.654 198.34 585.57 192.65C585.487 186.96 579.037 182.468 571.148 182.621C563.26 182.774 556.958 187.499 557.041 193.189C557.124 198.879 563.581 203.371 571.463 203.224Z" fill="#FF8152" fill-opacity="0.06"/>
<path d="M572.134 234.069C577.789 227.248 585.553 225.032 589.479 229.118C593.405 233.204 591.998 242.041 586.343 248.862C580.688 255.684 572.919 257.893 568.992 253.814C565.066 249.734 566.474 240.87 572.134 234.069Z" fill="#FF8152" fill-opacity="0.06"/>
<path d="M569.521 230.183C576.928 225.97 580.973 218.204 578.549 212.88C576.126 207.556 568.155 206.605 560.73 210.817C553.305 215.03 549.278 222.796 551.701 228.12C554.125 233.443 562.108 234.395 569.521 230.183Z" fill="#FF8152" fill-opacity="0.06"/>
<path d="M1127.79 163.422C1128.75 172.739 1136.73 174.136 1144.51 181.876C1155.92 193.189 1164.78 189.954 1166.05 182.175C1167.32 174.396 1159.17 168.686 1158.66 160.427V160.347V160.268C1157.86 152.042 1165 144.815 1162.52 137.402C1160.04 129.988 1150.81 128.524 1141.36 141.954C1134.9 151.111 1127.26 154.052 1127.79 163.422Z" fill="#FF8152" fill-opacity="0.06"/>
<path d="M1123.39 186.607C1129.33 180.804 1136.85 179.573 1140.18 183.859C1143.52 188.144 1141.42 196.33 1135.48 202.133C1129.54 207.936 1122.03 209.167 1118.69 204.874C1115.35 200.582 1117.45 192.41 1123.39 186.607Z" fill="#FF8152" fill-opacity="0.06"/>
<path d="M1119.81 141.475C1126.57 146.013 1134.16 145.734 1136.77 140.856C1139.39 135.978 1136.03 128.338 1129.27 123.8C1122.52 119.261 1114.92 119.534 1112.31 124.412C1109.69 129.29 1113.06 136.929 1119.81 141.475Z" fill="#FF8152" fill-opacity="0.06"/>
<path d="M1105.82 168.047C1113.84 165.611 1121.48 168.333 1122.88 174.123C1124.28 179.912 1118.92 186.587 1110.9 189.023C1102.88 191.458 1095.24 188.737 1093.84 182.947C1092.44 177.157 1097.8 170.483 1105.82 168.047Z" fill="#FF8152" fill-opacity="0.06"/>
<path d="M1105.44 163.202C1113.72 164.021 1120.81 159.835 1121.28 153.886C1121.75 147.936 1115.41 142.406 1107.14 141.588C1098.87 140.769 1091.77 144.962 1091.3 150.904C1090.84 156.847 1097.16 162.391 1105.44 163.202Z" fill="#FF8152" fill-opacity="0.06"/>
<path d="M145.496 519.252C147.325 528.409 155.397 528.848 163.862 535.623C176.276 545.565 184.776 541.273 185.311 533.38C185.845 525.488 177.197 520.783 175.914 512.631V512.557C175.917 512.531 175.917 512.504 175.914 512.478C174.346 504.392 180.761 496.366 177.601 489.286C174.441 482.205 165.127 481.839 156.989 496.307C151.435 506.169 144.106 509.989 145.496 519.252Z" fill="#FF8152" fill-opacity="0.06"/>
<path d="M143.31 542.823C148.656 536.348 156.033 534.239 159.757 538.112C163.482 541.985 162.133 550.363 156.787 556.838C151.441 563.314 144.07 565.416 140.346 561.543C136.621 557.67 137.952 549.292 143.31 542.823Z" fill="#FF8152" fill-opacity="0.06"/>
<path d="M135.511 498.363C142.639 502.076 150.188 500.912 152.327 495.748C154.465 490.584 150.408 483.39 143.262 479.67C136.117 475.95 128.591 477.121 126.446 482.285C124.302 487.449 128.365 494.643 135.511 498.363Z" fill="#FF8152" fill-opacity="0.06"/>
<path d="M124.112 526.439C131.834 523.072 139.71 524.876 141.647 530.472C143.583 536.069 138.879 543.329 131.133 546.697C123.387 550.064 115.535 548.261 113.599 542.704C111.662 537.147 116.355 529.807 124.112 526.439Z" fill="#FF8152" fill-opacity="0.06"/>
<path d="M123.263 521.701C131.578 521.535 138.231 516.537 138.112 510.535C137.994 504.532 131.24 499.774 122.924 499.94C114.608 500.107 107.961 505.104 108.074 511.1C108.187 517.096 114.959 521.834 123.263 521.701Z" fill="#FF8152" fill-opacity="0.06"/>
<path d="M886.093 431.449C886.461 422.066 878.775 419.284 872.188 410.267C862.524 397.031 853.317 398.688 850.959 406.148C848.601 413.608 855.847 420.682 855.188 428.927C855.185 428.953 855.185 428.98 855.188 429.007C855.185 429.031 855.185 429.056 855.188 429.08C854.814 437.345 846.747 443.215 848.149 450.974C849.551 458.734 858.455 461.815 869.681 450.235C877.326 442.343 885.285 440.792 886.093 431.449Z" fill="#FF8152" fill-opacity="0.06"/>
<path d="M893.714 409.342C887.032 414.001 879.429 413.894 876.738 409.069C874.047 404.245 877.285 396.538 883.967 391.86C890.649 387.182 898.223 387.308 900.937 392.133C903.652 396.958 900.397 404.664 893.714 409.342Z" fill="#FF8152" fill-opacity="0.06"/>
<path d="M890.863 454.535C884.834 448.858 877.296 447.78 874.029 452.132C870.762 456.484 872.996 464.63 879.025 470.306C885.054 475.983 892.597 477.068 895.864 472.709C899.131 468.35 896.892 460.218 890.863 454.535Z" fill="#FF8152" fill-opacity="0.06"/>
<path d="M908.433 430.777C900.171 431.762 892.99 427.716 892.449 421.753C891.908 415.791 898.122 410.147 906.384 409.163C914.646 408.178 921.828 412.224 922.368 418.193C922.909 424.162 916.696 429.792 908.433 430.777Z" fill="#FF8152" fill-opacity="0.06"/>
<path d="M908.124 435.628C900.07 433.352 892.479 436.227 891.172 442.05C889.865 447.873 895.33 454.428 903.39 456.691C911.451 458.953 919.042 456.085 920.349 450.269C921.655 444.452 916.185 437.904 908.124 435.628Z" fill="#FF8152" fill-opacity="0.06"/>
<path d="M1409.14 510.275C1403.94 502.908 1396.5 506.435 1386.25 504.439C1371.22 501.511 1365.22 509.51 1367.79 516.877C1370.36 524.243 1379.98 524.29 1384.28 531.018L1384.33 531.078L1384.37 531.138C1388.91 537.666 1386.24 548.014 1391.82 552.859C1397.41 557.703 1405.95 553.524 1407.68 536.521C1408.86 524.942 1413.98 517.941 1409.14 510.275Z" fill="#FF8152" fill-opacity="0.06"/>
<path d="M1412.87 485.272C1415.24 476.797 1413.2 468.543 1408.33 466.836C1403.45 465.129 1397.58 470.616 1395.22 479.091C1392.85 487.566 1394.89 495.82 1399.76 497.527C1404.64 499.234 1410.51 493.747 1412.87 485.272Z" fill="#FF8152" fill-opacity="0.06"/>
<path d="M1426.23 524.243C1418.35 524.363 1412.02 529.075 1412.09 534.765C1412.16 540.454 1418.62 544.973 1426.48 544.853C1434.33 544.733 1440.68 540.022 1440.62 534.332C1440.55 528.642 1434.11 524.124 1426.23 524.243Z" fill="#FF8152" fill-opacity="0.06"/>
<path d="M1425.64 493.399C1419.97 500.193 1412.2 502.383 1408.28 498.283C1404.37 494.184 1405.8 485.346 1411.48 478.552C1417.15 471.757 1424.93 469.568 1428.84 473.667C1432.75 477.767 1431.32 486.597 1425.64 493.399Z" fill="#FF8152" fill-opacity="0.06"/>
<path d="M1428.25 497.291C1420.83 501.477 1416.76 509.217 1419.17 514.594C1421.58 519.971 1429.55 520.909 1436.99 516.723C1444.43 512.538 1448.48 504.805 1446.07 499.421C1443.67 494.037 1435.67 493.086 1428.25 497.291Z" fill="#FF8152" fill-opacity="0.06"/>
<path d="M1303.58 93.6935C1306.11 84.7429 1299.34 79.8183 1295.06 69.1907C1288.79 53.6052 1279.52 52.5538 1275.51 59.0422C1271.51 65.5306 1276.87 74.5078 1274.32 82.2739C1274.32 82.2739 1274.32 82.3205 1274.32 82.3471V82.4204C1272.04 90.293 1262.9 93.6203 1262.44 101.513C1261.99 109.405 1269.89 114.982 1283.41 107.063C1292.6 101.666 1300.64 102.484 1303.58 93.6935Z" fill="#FF8152" fill-opacity="0.06"/>
<path d="M1316.06 74.5543C1308.53 77.1297 1301.21 74.8072 1299.74 69.3636C1298.26 63.92 1303.16 57.4183 1310.7 54.8429C1318.24 52.2675 1325.55 54.5967 1327.03 60.0403C1328.51 65.4839 1323.6 71.9789 1316.06 74.5543Z" fill="#FF8152" fill-opacity="0.06"/>
<path d="M1302.85 117.378C1298.34 110.137 1291.31 106.91 1287.14 110.164C1282.98 113.418 1283.25 121.93 1287.74 129.17C1292.22 136.41 1299.28 139.638 1303.44 136.384C1307.61 133.13 1307.34 124.618 1302.85 117.378Z" fill="#FF8152" fill-opacity="0.06"/>
<path d="M1325.31 99.5363C1317.11 98.0856 1311.13 92.1029 1311.97 86.1736C1312.8 80.2442 1320.13 76.6173 1328.34 78.0747C1336.55 79.5321 1342.53 85.5081 1341.69 91.4375C1340.85 97.3669 1333.52 100.987 1325.31 99.5363Z" fill="#FF8152" fill-opacity="0.06"/>
<path d="M1323.9 104.135C1316.64 99.5961 1308.65 100.142 1306.03 105.406C1303.42 110.67 1307.18 118.575 1314.44 123.107C1321.7 127.639 1329.7 127.1 1332.3 121.836C1334.91 116.572 1331.15 108.673 1323.9 104.135Z" fill="#FF8152" fill-opacity="0.06"/>
<path d="M970.736 284.665C966.436 292.731 972.025 299.266 974.003 310.712C976.908 327.495 985.711 330.929 990.95 325.618C996.189 320.308 992.797 310.219 996.89 303.318L996.931 303.252L996.967 303.185C1000.8 296.111 1010.38 295.2 1012.41 287.66C1014.44 280.12 1007.93 272.633 993.142 276.859C983.068 279.741 975.405 276.872 970.736 284.665Z" fill="#FF8152" fill-opacity="0.06"/>
<path d="M954.663 300.097C962.528 299.538 969.163 303.684 969.513 309.361C969.864 315.037 963.728 320.102 955.851 320.674C947.975 321.246 941.352 317.094 941.002 311.41C940.651 305.727 946.787 300.643 954.663 300.097Z" fill="#FF8152" fill-opacity="0.06"/>
<path d="M976.315 261.806C979.213 270.011 985.397 274.969 990.119 272.873C994.841 270.777 996.314 262.425 993.415 254.24C990.517 246.054 984.333 241.076 979.611 243.173C974.889 245.269 973.41 253.601 976.315 261.806Z" fill="#FF8152" fill-opacity="0.06"/>
<path d="M950.785 273.385C958.507 276.912 963.062 284.272 961.037 289.829C959.011 295.386 951.129 297.023 943.437 293.496C935.745 289.969 931.159 282.609 933.191 277.052C935.222 271.495 943.098 269.858 950.785 273.385Z" fill="#FF8152" fill-opacity="0.06"/>
<path d="M953.113 269.273C959.243 275.562 967.143 277.065 970.755 272.64C974.366 268.215 972.335 259.53 966.205 253.241C960.075 246.953 952.175 245.455 948.557 249.881C944.94 254.306 946.983 262.991 953.113 269.273Z" fill="#FF8152" fill-opacity="0.06"/>
<path d="M211.82 657.139C204.948 651.768 198.753 657.551 188.405 658.955C173.253 661.018 169.57 670.615 173.936 676.837C178.302 683.059 187.514 679.991 193.371 685.035L193.425 685.082L193.484 685.129C199.513 689.907 199.62 700.681 206.213 703.509C212.806 706.337 219.875 699.569 217.19 682.74C215.337 671.273 218.432 662.915 211.82 657.139Z" fill="#FF8152" fill-opacity="0.06"/>
<path d="M199.234 638.093C199.18 646.917 195.022 654.065 189.944 654.005C184.865 653.945 180.79 646.784 180.844 637.953C180.897 629.122 185.055 621.982 190.134 622.042C195.212 622.102 199.287 629.269 199.234 638.093Z" fill="#FF8152" fill-opacity="0.06"/>
<path d="M231.784 664.992C224.27 667.653 219.423 674.208 220.956 679.632C222.488 685.056 229.818 687.298 237.332 684.636C244.846 681.975 249.687 675.42 248.155 669.996C246.622 664.572 239.292 662.33 231.784 664.992Z" fill="#FF8152" fill-opacity="0.06"/>
<path d="M223.308 635.644C219.626 643.989 212.747 648.594 207.942 645.939C203.136 643.284 202.234 634.353 205.916 625.974C209.599 617.596 216.483 613.024 221.283 615.686C226.082 618.348 226.961 627.299 223.308 635.644Z" fill="#FF8152" fill-opacity="0.06"/>
<path d="M226.771 638.532C220.742 644.941 218.841 653.658 222.53 658.017C226.219 662.376 234.095 660.679 240.118 654.297C246.141 647.915 248.048 639.171 244.359 634.812C240.67 630.453 232.812 632.124 226.771 638.532Z" fill="#FF8152" fill-opacity="0.06"/>
<path d="M34.4197 623.08C26.4246 625.901 26.6978 634.945 21.4113 644.967C13.6182 659.674 18.1622 668.798 25.2247 668.725C32.2873 668.652 35.7443 658.603 42.884 656.48H42.9494H43.0147C50.0772 654.044 57.7575 660.526 63.8043 656.4C69.8511 652.274 69.37 641.84 55.8152 633.98C46.5371 628.583 42.5217 620.737 34.4197 623.08Z" fill="#FF8152" fill-opacity="0.06"/>
<path d="M13.2498 622.627C19.4629 628.057 21.9577 636.103 18.8333 640.595C15.7089 645.087 8.14148 644.315 1.92835 638.878C-4.28477 633.441 -6.77953 625.402 -3.64921 620.91C-0.518882 616.418 7.0426 617.19 13.2498 622.627Z" fill="#FF8152" fill-opacity="0.06"/>
<path d="M52.1325 610.156C49.4299 618.448 51.1109 626.753 55.8806 628.703C60.6503 630.653 66.709 625.516 69.4117 617.224C72.1143 608.932 70.4393 600.627 65.6636 598.677C60.8879 596.727 54.8352 601.865 52.1325 610.156Z" fill="#FF8152" fill-opacity="0.06"/>
<path d="M26.1929 599.795C29.846 608.153 28.9075 617.097 24.0961 619.712C19.2848 622.328 12.4242 617.716 8.77121 609.344C5.11818 600.973 6.05668 592.042 10.868 589.427C15.6793 586.811 22.5399 591.43 26.1929 599.795Z" fill="#FF8152" fill-opacity="0.06"/>
<path d="M30.3685 598.457C31.2179 607.714 36.2312 614.721 41.5593 614.109C46.8874 613.497 50.5167 605.491 49.6673 596.228C48.8179 586.964 43.8046 579.964 38.4765 580.576C33.1484 581.188 29.5191 589.194 30.3685 598.457Z" fill="#FF8152" fill-opacity="0.06"/>
<path d="M797.731 639.584C791.001 633.987 784.664 639.584 774.281 640.642C759.08 642.206 755.154 651.682 759.354 658.044C763.553 664.406 772.843 661.638 778.569 666.868L778.623 666.915L778.676 666.961C784.58 671.939 784.414 682.713 790.93 685.754C797.446 688.796 804.723 682.254 802.436 665.344C800.879 653.818 804.194 645.566 797.731 639.584Z" fill="#FF8152" fill-opacity="0.06"/>
<path d="M785.638 620.138C785.359 628.956 781.017 635.943 775.944 635.744C770.871 635.544 766.981 628.224 767.26 619.406C767.539 610.589 771.881 603.595 776.954 603.794C782.027 603.994 785.923 611.314 785.638 620.138Z" fill="#FF8152" fill-opacity="0.06"/>
<path d="M817.482 648.075C809.903 650.491 804.889 656.886 806.279 662.363C807.669 667.84 814.946 670.309 822.525 667.893C830.104 665.477 835.112 659.075 833.722 653.605C832.332 648.135 825.061 645.653 817.482 648.075Z" fill="#FF8152" fill-opacity="0.06"/>
<path d="M809.736 618.461C805.84 626.687 798.842 631.072 794.114 628.257C789.386 625.442 788.709 616.492 792.606 608.293C796.502 600.094 803.493 595.689 808.227 598.504C812.962 601.319 813.633 610.243 809.736 618.461Z" fill="#FF8152" fill-opacity="0.06"/>
<path d="M813.14 621.463C806.95 627.672 804.824 636.329 808.388 640.801C811.952 645.273 819.875 643.863 826.071 637.654C832.266 631.445 834.387 622.787 830.823 618.315C827.259 613.843 819.347 615.254 813.14 621.463Z" fill="#FF8152" fill-opacity="0.06"/>
<path d="M1274.22 278.982C1271.34 270.171 1263.29 270.916 1254.11 265.433C1240.63 257.394 1232.72 262.891 1233.1 270.757C1233.47 278.622 1242.6 282.07 1244.83 289.962V290.035V290.109C1247.32 297.895 1241.89 306.792 1245.86 313.347C1249.82 319.902 1259.09 318.91 1265.46 303.365C1269.87 292.824 1276.68 287.959 1274.22 278.982Z" fill="#FF8152" fill-opacity="0.06"/>
<path d="M1273.65 255.291C1269.09 262.491 1262.04 265.659 1257.9 262.365C1253.75 259.071 1254.09 250.566 1258.65 243.366C1263.21 236.165 1270.26 233.004 1274.41 236.298C1278.55 239.592 1278.23 248.097 1273.65 255.291Z" fill="#FF8152" fill-opacity="0.06"/>
<path d="M1286.55 298.234C1279.03 295.572 1271.7 297.855 1270.18 303.279C1268.67 308.702 1273.52 315.257 1281.04 317.919C1288.56 320.581 1295.89 318.298 1297.41 312.868C1298.92 307.438 1294.08 300.876 1286.55 298.234Z" fill="#FF8152" fill-opacity="0.06"/>
<path d="M1294.6 268.727C1287.32 273.199 1279.33 272.56 1276.78 267.296C1274.24 262.032 1278.03 254.14 1285.32 249.668C1292.61 245.196 1300.6 245.835 1303.14 251.098C1305.68 256.362 1301.89 264.255 1294.6 268.727Z" fill="#FF8152" fill-opacity="0.06"/>
<path d="M1295.99 273.339C1287.77 274.716 1281.74 280.659 1282.55 286.582C1283.37 292.504 1290.65 296.211 1298.86 294.827C1307.08 293.443 1313.12 287.507 1312.3 281.591C1311.49 275.674 1304.21 271.961 1295.99 273.339Z" fill="#FF8152" fill-opacity="0.06"/>
<path d="M572.841 628.71C572.841 628.71 568.458 622.095 570.222 615.301C572.431 606.796 579.488 603.209 585.618 605.119C591.748 607.029 595.597 613.77 598.092 618.934C601.46 625.981 604.115 635.684 605.065 641.121C601.329 644.754 593.91 650.577 587.382 653.805C582.583 656.187 575.787 658.809 569.978 656.114C564.169 653.419 560.474 645.699 563.444 637.481C565.749 630.906 572.841 628.71 572.841 628.71Z" fill="#FF8152" fill-opacity="0.06"/>
<path d="M436.206 493.319C436.206 493.319 438.416 501.185 434.763 506.954C430.189 514.175 422.473 514.973 417.234 510.947C411.995 506.921 410.332 499.128 409.512 493.319C408.389 485.426 408.722 475.284 409.417 469.801C414.009 467.738 422.716 464.963 429.832 464.304C435.065 463.818 442.247 463.838 446.951 468.516C451.656 473.195 452.891 481.826 447.688 488.534C443.548 493.851 436.206 493.319 436.206 493.319Z" fill="#FF8152" fill-opacity="0.06"/>
<path d="M1110.68 342.808C1110.68 342.808 1105.86 336.585 1107.15 329.665C1108.77 321.013 1115.56 316.808 1121.81 318.185C1128.06 319.563 1132.35 325.938 1135.18 330.896C1139.02 337.63 1142.3 347.08 1143.64 352.417C1140.17 356.363 1133.17 362.799 1126.88 366.585C1122.26 369.367 1115.66 372.574 1109.66 370.378C1103.65 368.182 1099.5 360.809 1101.85 352.357C1103.76 345.603 1110.68 342.808 1110.68 342.808Z" fill="#FF8152" fill-opacity="0.06"/>
<path d="M239.18 355.758C239.18 355.758 240.457 347.639 246.076 344.411C253.109 340.365 260.284 343.646 263.26 349.948C266.236 356.25 264.519 364.003 262.856 369.587C260.605 377.173 256.132 385.997 253.257 390.502C248.339 389.963 239.465 387.92 232.883 384.826C228.042 382.557 221.675 378.837 219.429 372.242C217.184 365.647 219.667 357.368 227.015 354.101C232.883 351.492 239.18 355.758 239.18 355.758Z" fill="#FF8152" fill-opacity="0.06"/>
<path d="M738.891 340.319C738.891 340.319 745.811 337.524 751.109 341.384C757.732 346.215 758.76 354.819 755.351 360.842C751.941 366.865 745.092 369.047 739.942 370.212C732.945 371.782 723.905 371.822 718.969 371.27C716.943 366.212 714.116 356.576 713.243 348.644C712.601 342.808 712.328 334.762 716.308 329.305C720.287 323.848 727.95 322.158 734.127 327.675C739.063 332.08 738.891 340.319 738.891 340.319Z" fill="#FF8152" fill-opacity="0.06"/>
<path d="M1239.31 473.308C1239.31 473.308 1240.71 481.4 1236.5 486.67C1231.22 493.272 1223.47 493.085 1218.68 488.394C1213.89 483.702 1213.01 475.75 1212.78 469.9C1212.46 461.915 1213.82 451.879 1215.06 446.515C1219.81 445.045 1228.77 443.394 1235.89 443.641C1241.14 443.82 1248.28 444.752 1252.48 449.996C1256.69 455.24 1257.01 463.971 1251.19 469.96C1246.55 474.772 1239.31 473.308 1239.31 473.308Z" fill="#FF8152" fill-opacity="0.06"/>
<path d="M1280.61 617.171C1280.61 617.171 1286.91 612.925 1292.77 615.553C1300.12 618.881 1302.62 627.066 1300.32 633.714C1298.02 640.362 1291.68 644.003 1286.83 646.259C1280.24 649.333 1271.39 651.343 1266.44 651.875C1263.58 647.357 1259.13 638.519 1256.9 630.926C1255.25 625.336 1253.59 617.51 1256.54 611.288C1259.49 605.066 1266.72 601.731 1273.77 605.798C1279.34 609.045 1280.61 617.171 1280.61 617.171Z" fill="#FF8152" fill-opacity="0.06"/>
<path d="M579.957 413.129C579.957 413.129 582.612 405.436 588.677 403.486C596.28 401.044 602.754 405.815 604.584 412.643C606.413 419.471 603.396 426.704 600.8 431.822C597.278 438.776 591.368 446.462 587.768 450.262C583.016 448.665 574.7 444.745 568.76 440.28C564.4 436.999 558.799 431.962 557.73 425.014C556.661 418.066 560.534 410.48 568.309 408.863C574.516 407.572 579.957 413.129 579.957 413.129Z" fill="#FF8152" fill-opacity="0.06"/>
<path d="M282.618 532.928C282.618 532.928 278.912 525.807 281.335 519.272C284.37 511.094 291.736 508.405 297.646 511.06C303.556 513.716 306.71 520.876 308.664 526.366C311.32 533.786 312.995 543.762 313.416 549.279C309.348 552.426 301.4 557.264 294.593 559.7C289.586 561.47 282.576 563.227 277.064 559.833C271.552 556.439 268.671 548.307 272.39 540.494C275.354 534.226 282.618 532.928 282.618 532.928Z" fill="#FF8152" fill-opacity="0.06"/>
<path d="M716.117 41.154C716.117 41.154 721.148 47.1433 720.091 54.1441C718.76 62.8752 712.114 67.3405 705.835 66.2292C699.557 65.1178 695.042 58.909 692.055 54.0909C687.986 47.5227 684.333 38.2193 682.866 32.942C686.204 28.856 692.963 22.1214 699.141 18.0753C703.667 15.1006 710.148 11.6268 716.2 13.5567C722.253 15.4866 726.678 22.6937 724.605 31.2384C722.942 38.0662 716.117 41.154 716.117 41.154Z" fill="#FF8152" fill-opacity="0.06"/>
<path d="M705.817 526.852C705.817 526.852 700.709 520.922 701.659 513.935C702.847 505.177 709.459 500.625 715.761 501.61C722.063 502.595 726.649 508.738 729.702 513.516C733.86 520.024 737.602 529.261 739.164 534.511C735.879 538.657 729.191 545.498 723.091 549.644C718.606 552.699 712.167 556.299 706.091 554.442C700.014 552.586 695.494 545.485 697.454 536.901C699.034 530.046 705.817 526.852 705.817 526.852Z" fill="#FF8152" fill-opacity="0.06"/>
<path d="M955.008 615.873C955.008 615.873 961.863 612.885 967.244 616.585C973.98 621.243 975.204 629.788 971.943 635.917C968.682 642.046 961.875 644.415 956.754 645.726C949.799 647.503 940.717 647.809 935.816 647.396C933.672 642.405 930.619 632.849 929.562 624.943C928.783 619.127 928.326 611.095 932.175 605.518C936.024 599.941 943.645 598.031 949.953 603.368C954.996 607.634 955.008 615.873 955.008 615.873Z" fill="#FF8152" fill-opacity="0.06"/>
<path d="M333.672 204.768C333.672 204.768 326.342 205.473 322.113 200.216C316.814 193.641 317.806 185.03 322.481 180.185C327.156 175.341 334.283 175.221 339.522 175.58C346.65 176.079 355.406 178.648 360.033 180.605C360.829 186.075 361.346 196.203 360.365 204.123C359.647 209.952 358.067 217.805 352.964 221.924C347.862 226.043 340.075 225.484 335.365 218.37C331.605 212.681 333.672 204.768 333.672 204.768Z" fill="#FF8152" fill-opacity="0.06"/>
<path d="M31.1765 417.401C31.1765 417.401 25.6524 411.957 26.1158 404.897C26.7097 396.066 32.9288 390.922 39.2845 391.341C45.6402 391.76 50.6475 397.457 54.0392 401.949C58.6486 408.058 63.0441 416.928 64.9864 422.019C62.0165 426.445 55.839 433.872 50.0535 438.557C45.8006 442.004 39.6409 446.156 33.4575 444.879C27.274 443.601 22.2489 436.893 23.5794 428.175C24.6486 421.214 31.1765 417.401 31.1765 417.401Z" fill="#FF8152" fill-opacity="0.06"/>
<path d="M1429.25 649.985C1429.25 649.985 1436.09 653.033 1437.78 659.854C1439.88 668.392 1435.56 675.592 1429.46 677.582C1423.37 679.572 1416.92 676.105 1412.39 673.157C1406.21 669.164 1399.41 662.449 1396.05 658.377C1397.52 653.093 1401.11 643.736 1405.14 637.181C1408.11 632.33 1412.66 626.101 1418.88 624.97C1425.09 623.838 1431.83 628.257 1433.19 636.948C1434.26 643.949 1429.25 649.985 1429.25 649.985Z" fill="#FF8152" fill-opacity="0.06"/>
<path d="M1390.54 360.656C1390.54 360.656 1384.84 355.438 1385.07 348.371C1385.36 339.52 1391.42 334.11 1397.79 334.276C1404.15 334.443 1409.34 339.919 1412.88 344.258C1417.68 350.168 1422.38 358.852 1424.48 363.863C1421.65 368.408 1415.73 376.081 1410.1 381.006C1405.95 384.626 1399.95 389.032 1393.73 388.013C1387.5 386.995 1382.26 380.507 1383.31 371.729C1384.14 364.735 1390.54 360.656 1390.54 360.656Z" fill="#FF8152" fill-opacity="0.06"/>
<path d="M47.0656 44.3416C47.0656 44.3416 47.5824 36.1229 52.863 32.2499C59.486 27.4052 66.9227 29.8275 70.4748 35.7503C74.0268 41.673 73.0349 49.5789 71.9063 55.3219C70.3678 63.1346 66.7445 72.4313 64.3032 77.2826C59.3612 77.3226 50.3504 76.331 43.5136 74.0218C38.4884 72.3315 31.8061 69.3635 28.9549 63.0814C26.1038 56.7993 27.8145 48.2612 34.8116 44.1552C40.407 40.8345 47.0656 44.3416 47.0656 44.3416Z" fill="#FF8152" fill-opacity="0.06"/>
<path d="M264.787 40.9744C264.787 40.9744 259.69 35.0317 260.67 28.0442C261.906 19.2932 268.505 14.7347 274.807 15.7662C281.109 16.7977 285.677 22.9201 288.718 27.7448C292.876 34.2598 296.577 43.5099 298.133 48.7672C294.837 52.8998 288.13 59.7209 282.024 63.8468C277.528 66.8881 271.083 70.4484 265.012 68.5984C258.942 66.7483 254.433 59.6011 256.411 51.0298C257.997 44.1554 264.787 40.9744 264.787 40.9744Z" fill="#FF8152" fill-opacity="0.06"/>
<path d="M443.47 324.813C443.47 324.813 446.155 332.486 442.876 338.522C438.754 346.082 431.104 347.473 425.651 343.846C420.198 340.219 418.042 332.586 416.86 326.856C415.256 319.064 414.965 308.889 415.321 303.398C419.77 300.989 428.294 297.549 435.351 296.344C440.536 295.459 447.706 294.927 452.689 299.232C457.673 303.538 459.401 312.063 454.649 319.144C450.806 324.78 443.47 324.813 443.47 324.813Z" fill="#FF8152" fill-opacity="0.06"/>
<path d="M1133.15 642.977C1133.15 642.977 1136.12 650.504 1133.11 656.706C1129.3 664.466 1121.72 666.249 1116.1 662.895C1110.48 659.541 1108.04 652.035 1106.59 646.371C1104.67 638.672 1103.96 628.557 1104.09 623.02C1108.44 620.358 1116.81 616.505 1123.81 614.941C1128.96 613.783 1136.1 612.885 1141.25 616.937C1146.4 620.99 1148.48 629.415 1144.03 636.729C1140.5 642.565 1133.15 642.977 1133.15 642.977Z" fill="#FF8152" fill-opacity="0.06"/>
<path d="M405.793 659.162C405.793 659.162 399.646 663.687 393.694 661.325C386.239 658.37 383.448 650.271 385.497 643.516C387.546 636.762 393.783 632.836 398.535 630.373C405.009 627.006 413.806 624.597 418.73 623.845C421.754 628.224 426.518 636.862 429.024 644.342C430.866 649.852 432.814 657.598 430.082 663.947C427.349 670.295 420.263 673.929 413.099 670.209C407.338 667.221 405.793 659.162 405.793 659.162Z" fill="#FF8152" fill-opacity="0.06"/>
<path d="M36.6234 240.078C36.6234 240.078 43.3949 236.857 48.8774 240.371C55.7321 244.776 57.1933 253.301 54.0927 259.537C50.992 265.772 44.2562 268.374 39.1776 269.858C32.2695 271.855 23.229 272.48 18.287 272.234C16.012 267.316 12.7035 257.866 11.4324 250C10.4998 244.211 9.82265 236.198 13.5232 230.502C17.2238 224.805 24.809 222.623 31.236 227.747C36.3858 231.839 36.6234 240.078 36.6234 240.078Z" fill="#FF8152" fill-opacity="0.06"/>
</g>
<g clip-path="url(#clip0_324_5283)">
<path d="M821.745 448.288C819.89 449.034 817.91 449.318 815.93 449.598C812.775 450.043 809.644 450.552 806.703 451.893C804.347 452.966 802.342 454.536 800.332 456.109C798.588 457.456 796.826 458.757 794.729 459.511C790.65 460.978 786.206 459.562 783.688 456.013C781.599 453.069 781.225 449.917 782.725 446.583C784.853 441.848 786.992 437.117 789.14 432.39C792.176 425.761 799.62 422.67 806.46 425.19C811.33 426.991 816.19 428.815 821.042 430.662C824.668 432.036 826.692 434.722 827.077 438.51C827.462 442.299 826.116 445.463 822.833 447.68C822.507 447.903 822.125 448.078 821.745 448.288Z" fill="black" fill-opacity="0.3"/>
<path d="M788.265 411.47C789.379 414.292 789.792 417.069 789.021 419.93C787.71 424.799 783.389 426.585 778.996 424.11C774.162 421.383 771.248 414.301 772.791 409.031C774.13 404.455 778.687 402.601 782.828 404.966C785.475 406.487 787.079 408.886 788.265 411.47Z" fill="black" fill-opacity="0.3"/>
<path d="M792.107 409.495C791.245 407.158 790.674 404.38 791.442 401.477C792.694 396.717 797.324 394.757 801.577 397.239C804.578 398.988 806.347 401.742 807.42 404.948C808.259 407.47 808.418 410.048 807.594 412.63C806.205 416.986 802.066 418.661 798.031 416.516C797.141 416.046 796.32 415.457 795.591 414.766C794.124 413.379 793.037 411.741 792.107 409.495Z" fill="black" fill-opacity="0.3"/>
<path d="M826.091 409.213C827.133 412.28 827.617 415.76 826.06 419.238C824.278 423.218 819.91 424.001 816.833 420.946C813.335 417.473 812.332 410.582 814.696 406.235C816.425 403.049 819.9 402.295 822.763 404.483C824.243 405.624 825.203 407.143 826.091 409.213Z" fill="black" fill-opacity="0.3"/>
<path d="M777.844 432.588C778.475 433.985 778.794 435.504 778.78 437.039C778.669 441.276 775.12 443.644 771.14 442.117C768.456 441.084 766.54 439.15 765.01 436.801C763.698 434.781 762.826 432.605 762.858 430.147C762.909 426.1 766.195 423.698 770.063 424.933C773.172 425.922 775.339 428.053 776.96 430.788C777.157 431.121 777.342 431.459 777.51 431.793C777.637 432.049 777.734 432.322 777.844 432.588Z" fill="black" fill-opacity="0.3"/>
</g>
<g clip-path="url(#clip1_324_5283)">
<path d="M777.99 363.356C776.878 363.803 775.692 363.973 774.505 364.141C772.615 364.407 770.739 364.712 768.977 365.516C767.565 366.159 766.364 367.099 765.16 368.042C764.115 368.849 763.059 369.628 761.803 370.08C759.359 370.959 756.697 370.11 755.188 367.984C753.936 366.221 753.712 364.332 754.611 362.335C755.886 359.497 757.167 356.663 758.454 353.831C760.274 349.859 764.733 348.007 768.831 349.517C771.749 350.596 774.661 351.689 777.568 352.796C779.741 353.618 780.953 355.228 781.184 357.498C781.415 359.767 780.608 361.663 778.641 362.992C778.446 363.125 778.217 363.23 777.99 363.356Z" fill="black" fill-opacity="0.3"/>
<path d="M757.93 341.297C758.598 342.988 758.845 344.652 758.383 346.366C757.598 349.283 755.009 350.353 752.377 348.87C749.481 347.236 747.735 342.993 748.659 339.836C749.462 337.094 752.191 335.983 754.673 337.4C756.259 338.312 757.22 339.748 757.93 341.297Z" fill="black" fill-opacity="0.3"/>
<path d="M760.232 340.114C759.716 338.713 759.374 337.049 759.834 335.31C760.584 332.458 763.358 331.284 765.906 332.77C767.704 333.818 768.764 335.469 769.407 337.389C769.91 338.9 770.005 340.445 769.511 341.992C768.679 344.602 766.199 345.605 763.782 344.32C763.248 344.038 762.756 343.686 762.319 343.272C761.441 342.441 760.789 341.459 760.232 340.114Z" fill="black" fill-opacity="0.3"/>
<path d="M780.593 339.944C781.218 341.782 781.507 343.867 780.574 345.951C779.507 348.336 776.89 348.805 775.046 346.974C772.951 344.893 772.35 340.765 773.766 338.16C774.802 336.251 776.884 335.8 778.599 337.11C779.486 337.794 780.061 338.704 780.593 339.944Z" fill="black" fill-opacity="0.3"/>
<path d="M751.687 353.949C752.065 354.787 752.256 355.696 752.247 356.616C752.181 359.155 750.054 360.573 747.67 359.658C746.062 359.04 744.914 357.881 743.998 356.474C743.211 355.264 742.689 353.96 742.708 352.487C742.739 350.063 744.707 348.623 747.025 349.363C748.887 349.955 750.186 351.232 751.157 352.871C751.275 353.071 751.386 353.273 751.487 353.473C751.563 353.627 751.621 353.79 751.687 353.949Z" fill="black" fill-opacity="0.3"/>
</g>
<g clip-path="url(#clip2_324_5283)">
<path d="M449.067 305.245C447.898 305.715 446.65 305.894 445.402 306.07C443.413 306.351 441.44 306.671 439.586 307.517C438.101 308.193 436.838 309.182 435.571 310.174C434.472 311.023 433.361 311.843 432.039 312.318C429.469 313.243 426.668 312.35 425.081 310.113C423.764 308.258 423.528 306.271 424.474 304.17C425.816 301.186 427.163 298.204 428.517 295.225C430.431 291.047 435.122 289.099 439.433 290.687C442.502 291.822 445.566 292.972 448.624 294.136C450.909 295.001 452.184 296.694 452.427 299.082C452.67 301.47 451.822 303.464 449.752 304.862C449.547 305.002 449.306 305.112 449.067 305.245Z" fill="black" fill-opacity="0.3"/>
<path d="M427.965 282.04C428.668 283.818 428.928 285.569 428.442 287.372C427.616 290.441 424.892 291.566 422.124 290.006C419.077 288.287 417.24 283.824 418.213 280.503C419.057 277.619 421.929 276.45 424.539 277.941C426.207 278.899 427.218 280.411 427.965 282.04Z" fill="black" fill-opacity="0.3"/>
<path d="M430.387 280.795C429.844 279.322 429.484 277.571 429.968 275.741C430.757 272.741 433.675 271.506 436.355 273.07C438.247 274.172 439.362 275.909 440.038 277.929C440.567 279.518 440.667 281.143 440.148 282.771C439.272 285.516 436.664 286.572 434.121 285.22C433.56 284.923 433.042 284.552 432.583 284.117C431.658 283.243 430.973 282.21 430.387 280.795Z" fill="black" fill-opacity="0.3"/>
<path d="M451.806 280.617C452.463 282.55 452.768 284.743 451.786 286.935C450.663 289.444 447.91 289.937 445.971 288.012C443.766 285.823 443.134 281.48 444.624 278.74C445.714 276.732 447.904 276.257 449.708 277.636C450.641 278.355 451.246 279.312 451.806 280.617Z" fill="black" fill-opacity="0.3"/>
<path d="M421.398 295.349C421.795 296.23 421.996 297.187 421.988 298.155C421.918 300.825 419.681 302.317 417.173 301.355C415.481 300.704 414.273 299.485 413.309 298.005C412.482 296.732 411.933 295.36 411.953 293.811C411.985 291.26 414.056 289.746 416.494 290.524C418.453 291.148 419.819 292.491 420.841 294.215C420.965 294.425 421.081 294.638 421.187 294.848C421.268 295.01 421.329 295.182 421.398 295.349Z" fill="black" fill-opacity="0.3"/>
</g>
<g clip-path="url(#clip3_324_5283)">
<path d="M1277.03 390.53C1276.44 389.921 1276 389.189 1275.57 388.456C1274.89 387.287 1274.18 386.138 1273.17 385.199C1272.37 384.447 1271.43 383.913 1270.48 383.378C1269.67 382.911 1268.87 382.429 1268.23 381.727C1266.99 380.361 1266.83 378.383 1267.82 376.817C1268.64 375.517 1269.81 374.859 1271.37 374.907C1273.58 374.976 1275.78 375.049 1277.99 375.127C1281.09 375.245 1283.52 377.671 1283.63 380.769C1283.72 382.977 1283.79 385.185 1283.85 387.392C1283.9 389.041 1283.17 390.273 1281.74 391.04C1280.32 391.806 1278.85 391.79 1277.45 390.859C1277.31 390.767 1277.18 390.645 1277.03 390.53Z" fill="black" fill-opacity="0.3"/>
<path d="M1286.08 371.387C1285.15 372.283 1284.12 372.896 1282.87 373.058C1280.75 373.332 1279.34 371.923 1279.6 369.793C1279.89 367.45 1282.2 365.154 1284.52 364.905C1286.54 364.69 1288.01 366.18 1287.75 368.193C1287.58 369.481 1286.9 370.501 1286.08 371.387Z" fill="black" fill-opacity="0.3"/>
<path d="M1287.48 372.578C1288.26 371.859 1289.26 371.184 1290.52 371.014C1292.6 370.734 1294.12 372.237 1293.83 374.312C1293.63 375.777 1292.84 376.919 1291.75 377.862C1290.9 378.601 1289.91 379.082 1288.76 379.177C1286.82 379.338 1285.49 377.982 1285.68 376.047C1285.72 375.62 1285.82 375.202 1285.97 374.803C1286.28 374.001 1286.75 373.307 1287.48 372.578Z" fill="black" fill-opacity="0.3"/>
<path d="M1293.1 385.897C1292.07 386.804 1290.78 387.559 1289.16 387.512C1287.3 387.457 1286.29 385.866 1286.99 384.16C1287.79 382.221 1290.33 380.708 1292.43 380.932C1293.96 381.095 1294.82 382.339 1294.42 383.82C1294.22 384.587 1293.77 385.212 1293.1 385.897Z" fill="black" fill-opacity="0.3"/>
<path d="M1276.08 370.716C1275.63 371.191 1275.09 371.563 1274.48 371.807C1272.8 372.451 1271.29 371.439 1271.25 369.627C1271.22 368.403 1271.67 367.336 1272.34 366.353C1272.92 365.509 1273.64 364.813 1274.61 364.426C1276.21 363.79 1277.69 364.692 1277.83 366.414C1277.94 367.797 1277.46 368.995 1276.65 370.077C1276.55 370.208 1276.44 370.336 1276.34 370.456C1276.26 370.548 1276.17 370.63 1276.08 370.716Z" fill="black" fill-opacity="0.3"/>
</g>
<defs>
<radialGradient id="paint0_radial_324_5283" cx="0" cy="0" r="1" gradientUnits="userSpaceOnUse" gradientTransform="translate(200.5 179.5) rotate(90) scale(411.5)">
<stop stop-color="white"/>
<stop offset="1" stop-color="#EBEBFF" stop-opacity="0.58"/>
</radialGradient>
<radialGradient id="paint1_radial_324_5283" cx="0" cy="0" r="1" gradientUnits="userSpaceOnUse" gradientTransform="translate(233 573) rotate(90) scale(77.6712 275.301)">
<stop offset="0.244792" stop-color="white"/>
<stop offset="1" stop-color="#EBEBFF" stop-opacity="0.58"/>
</radialGradient>
<radialGradient id="paint2_radial_324_5283" cx="0" cy="0" r="1" gradientUnits="userSpaceOnUse" gradientTransform="translate(1350.5 102.5) rotate(90) scale(256.5)">
<stop offset="0.151042" stop-color="white"/>
<stop offset="1" stop-color="#EBEBFF" stop-opacity="0.58"/>
</radialGradient>
<radialGradient id="paint3_radial_324_5283" cx="0" cy="0" r="1" gradientUnits="userSpaceOnUse" gradientTransform="translate(1264.21 574.789) rotate(90.3078) scale(132.213 309.167)">
<stop offset="0.177083" stop-color="white"/>
<stop offset="1" stop-color="#EBEBFF" stop-opacity="0.58"/>
</radialGradient>
<clipPath id="clip0_324_5283">
<rect width="67.2598" height="57.8198" fill="white" transform="translate(755 413.426) rotate(-22.5734)"/>
</clipPath>
<clipPath id="clip1_324_5283">
<rect width="40.2979" height="34.642" fill="white" transform="translate(738 342.469) rotate(-22.5734)"/>
</clipPath>
<clipPath id="clip2_324_5283">
<rect width="42.3912" height="36.4416" fill="white" transform="translate(407 283.272) rotate(-22.5734)"/>
</clipPath>
<clipPath id="clip3_324_5283">
<rect width="28.616" height="24.5997" fill="white" transform="translate(1279.91 358.622) rotate(45)"/>
</clipPath>
</defs>
</svg>
