<svg width="1440" height="1988" viewBox="0 0 1440 1988" fill="none" xmlns="http://www.w3.org/2000/svg">
<rect width="1441" height="1943" fill="#FEFEFE"/>
<mask id="mask0_325_9912" style="mask-type:alpha" maskUnits="userSpaceOnUse" x="-1" y="0" width="1441" height="1988">
<rect x="-1" width="1441" height="1988" fill="#D9D9D9"/>
</mask>
<g mask="url(#mask0_325_9912)">
<path d="M290.774 819.024C276.34 824.704 278.072 839.21 269.542 856.089C257.039 880.85 266.64 894.883 279.706 893.756C292.772 892.628 297.87 875.975 310.815 871.54H310.936H311.058C323.815 866.623 338.889 875.953 349.505 868.459C360.121 860.964 357.914 844.246 331.782 833.53C313.971 826.154 305.496 814.096 290.774 819.024Z" fill="#FF8152" fill-opacity="0.07"/>
<path d="M251.544 821.311C263.749 829.171 269.432 841.712 264.223 849.4C259.015 857.088 244.9 856.916 232.695 849.046C220.49 841.175 214.806 828.645 220.015 820.957C225.224 813.269 239.327 813.451 251.544 821.311Z" fill="#FF8152" fill-opacity="0.07"/>
<path d="M321.928 795.713C317.999 809.435 322.193 822.556 331.286 825.004C340.379 827.452 350.929 818.337 354.847 804.603C358.764 790.87 354.571 777.76 345.478 775.301C336.385 772.842 325.846 781.991 321.928 795.713Z" fill="#FF8152" fill-opacity="0.07"/>
<path d="M272.522 782.743C280.379 795.627 279.805 810.144 271.242 815.073C262.678 820.001 249.359 813.516 241.446 800.588C233.534 787.66 234.163 773.186 242.737 768.258C251.312 763.329 264.665 769.815 272.522 782.743Z" fill="#FF8152" fill-opacity="0.07"/>
<path d="M280.081 779.994C282.873 794.768 293.059 805.323 302.847 803.616C312.635 801.909 318.297 788.476 315.527 773.712C312.757 758.948 302.549 748.372 292.761 750.09C282.972 751.808 277.3 765.208 280.081 779.994Z" fill="#FF8152" fill-opacity="0.07"/>
<path d="M1351.29 701.675C1359.81 714.367 1374.1 709.9 1392.78 714.764C1420.17 721.905 1432.45 710.029 1428.79 697.767C1425.12 685.505 1407.33 683.884 1400.36 672.373L1400.29 672.266L1400.23 672.169C1392.8 660.938 1399.28 644.746 1389.66 636.06C1380.05 627.373 1363.62 632.72 1357.89 659.682C1353.99 678.161 1343.47 688.576 1351.29 701.675Z" fill="#FF8152" fill-opacity="0.07"/>
<path d="M1361.19 738.687C1366.71 725.513 1378.33 717.653 1387.06 721.143C1395.79 724.632 1398.37 738.129 1392.81 751.304C1387.25 764.478 1375.67 772.338 1366.94 768.859C1358.21 765.38 1355.64 751.862 1361.19 738.687Z" fill="#FF8152" fill-opacity="0.07"/>
<path d="M1321.75 676.464C1336.34 677.538 1348.76 670.999 1349.47 661.851C1350.19 652.703 1338.95 644.392 1324.35 643.307C1309.75 642.223 1297.34 648.773 1296.63 657.921C1295.91 667.069 1307.15 675.38 1321.75 676.464Z" fill="#FF8152" fill-opacity="0.07"/>
<path d="M1318.24 726.125C1329.75 716.128 1344.46 713.873 1351.1 721.089C1357.73 728.304 1353.76 742.274 1342.27 752.281C1330.78 762.288 1316.05 764.543 1309.42 757.317C1302.78 750.09 1306.72 736.132 1318.24 726.125Z" fill="#FF8152" fill-opacity="0.07"/>
<path d="M1314.01 719.446C1328.35 713.927 1337.04 702.148 1333.37 693.15C1329.71 684.152 1315.11 681.339 1300.76 686.837C1286.42 692.334 1277.73 704.134 1281.38 713.143C1285.04 722.152 1299.65 724.965 1314.01 719.446Z" fill="#FF8152" fill-opacity="0.07"/>
<path d="M87.1475 527.581C89.0015 512.549 75.1189 507.008 64.0392 491.6C47.795 468.977 30.5356 470.383 25.2385 482.065C19.9415 493.748 32.4668 506.128 30.2045 519.292C30.2045 519.292 30.2045 519.378 30.2045 519.421V519.539C28.4609 532.789 12.7905 541.132 14.4017 553.802C16.0129 566.472 32.1357 572.656 54.3942 555.562C69.5239 543.902 84.4659 542.506 87.1475 527.581Z" fill="#FF8152" fill-opacity="0.07"/>
<path d="M104.032 493.05C91.0655 499.664 77.0063 498.418 72.6252 490.301C68.2441 482.183 75.2075 470.211 88.1742 463.597C101.141 456.983 115.2 458.228 119.581 466.357C123.962 474.485 116.999 486.446 104.032 493.05Z" fill="#FF8152" fill-opacity="0.07"/>
<path d="M93.085 565.387C82.6234 555.412 68.8069 552.653 62.1856 559.213C55.5644 565.774 58.6874 579.163 69.1711 589.117C79.6548 599.07 93.4492 601.84 100.07 595.28C106.692 588.719 103.547 575.351 93.085 565.387Z" fill="#FF8152" fill-opacity="0.07"/>
<path d="M128.608 529.556C113.159 530.007 100.435 522.523 100.137 512.849C99.839 503.175 112.099 494.961 127.538 494.51C142.977 494.059 155.712 501.543 156.01 511.217C156.307 520.891 144.047 529.105 128.608 529.556Z" fill="#FF8152" fill-opacity="0.07"/>
<path d="M127.439 537.319C112.795 532.563 98.3712 536.149 95.215 545.329C92.0589 554.51 101.373 565.816 116.017 570.584C130.661 575.351 145.084 571.754 148.241 562.574C151.397 553.393 142.083 542.087 127.439 537.319Z" fill="#FF8152" fill-opacity="0.07"/>
<path d="M1160.24 894.389C1164.65 879.851 1151.84 872.174 1143.53 855.198C1131.33 830.298 1114.05 828.924 1106.85 839.586C1099.64 850.248 1109.93 864.486 1105.47 877.167C1105.47 877.167 1105.47 877.242 1105.47 877.285V877.403C1101.52 890.191 1084.64 895.914 1084.1 908.67C1083.56 921.426 1098.45 930.145 1123.25 916.798C1140.16 907.671 1155.07 908.681 1160.24 894.389Z" fill="#FF8152" fill-opacity="0.07"/>
<path d="M1182.73 863.025C1168.82 867.481 1155.14 864.013 1152.22 855.284C1149.29 846.554 1158.15 835.892 1172.08 831.436C1186.01 826.98 1199.67 830.459 1202.59 839.188C1205.52 847.918 1196.63 858.623 1182.73 863.025Z" fill="#FF8152" fill-opacity="0.07"/>
<path d="M1159.71 932.625C1151.08 921.125 1137.9 916.186 1130.29 921.597C1122.67 927.009 1123.48 940.731 1132.12 952.231C1140.76 963.731 1153.93 968.67 1161.54 963.258C1169.15 957.847 1168.35 944.124 1159.71 932.625Z" fill="#FF8152" fill-opacity="0.07"/>
<path d="M1200.86 902.968C1185.56 900.939 1174.25 891.522 1175.59 881.934C1176.92 872.345 1190.42 866.204 1205.72 868.222C1221.01 870.241 1232.32 879.658 1230.99 889.257C1229.65 898.856 1216.1 904.987 1200.86 902.968Z" fill="#FF8152" fill-opacity="0.07"/>
<path d="M1198.33 910.441C1184.69 903.398 1169.86 904.632 1165.23 913.19C1160.59 921.748 1167.84 934.386 1181.48 941.419C1195.12 948.451 1209.95 947.217 1214.59 938.67C1219.22 930.123 1211.97 917.474 1198.33 910.441Z" fill="#FF8152" fill-opacity="0.07"/>
<path d="M884.494 1013.56C877.575 1027.13 888.765 1036.86 893.918 1054.99C901.467 1081.58 918.196 1085.87 927.223 1076.58C936.25 1067.29 928.658 1051.55 935.312 1039.87L935.379 1039.76V1039.65C941.559 1027.73 959.204 1024.97 962.029 1012.5C964.854 1000.03 951.788 988.963 924.939 997.843C906.697 1003.9 892.131 1000.36 884.494 1013.56Z" fill="#FF8152" fill-opacity="0.07"/>
<path d="M856.718 1040.62C871.207 1038.6 884.042 1044.34 885.41 1053.42C886.778 1062.5 876.085 1071.51 861.584 1073.53C847.084 1075.55 834.272 1069.82 832.892 1060.72C831.513 1051.63 842.206 1042.63 856.718 1040.62Z" fill="#FF8152" fill-opacity="0.07"/>
<path d="M891.866 976.004C898.3 988.792 910.395 995.889 918.87 991.852C927.345 987.815 929 974.178 922.556 961.379C916.111 948.581 904.038 941.494 895.563 945.531C887.088 949.568 885.432 963.205 891.866 976.004Z" fill="#FF8152" fill-opacity="0.07"/>
<path d="M846.08 998.209C860.779 1002.8 870.236 1013.99 867.191 1023.22C864.145 1032.44 849.766 1036.19 835.066 1031.6C820.367 1027.02 810.921 1015.82 813.967 1006.59C817.012 997.371 831.381 993.635 846.08 998.209Z" fill="#FF8152" fill-opacity="0.07"/>
<path d="M849.854 991.283C861.993 1000.53 876.847 1001.84 882.96 994.203C889.074 986.569 884.196 972.89 872.024 963.645C859.852 954.4 845.031 953.101 838.918 960.724C832.804 968.348 837.693 982.038 849.854 991.283Z" fill="#FF8152" fill-opacity="0.07"/>
<path d="M1368.83 1496.47C1374.48 1482.36 1362.44 1473.64 1355.66 1456.03C1345.73 1430.18 1328.65 1427.36 1320.52 1437.39C1312.38 1447.42 1321.37 1462.44 1315.8 1474.65L1315.75 1474.76C1315.75 1474.76 1315.75 1474.84 1315.75 1474.88C1310.67 1487.28 1293.36 1491.57 1291.68 1504.23C1290 1516.89 1304.03 1526.78 1329.96 1515.62C1347.63 1508.02 1362.42 1510.28 1368.83 1496.47Z" fill="#FF8152" fill-opacity="0.07"/>
<path d="M1393.98 1467.13C1379.73 1470.35 1366.39 1465.79 1364.27 1456.84C1362.15 1447.9 1371.91 1438.02 1386.16 1434.76C1400.4 1431.49 1413.74 1436.1 1415.87 1445.04C1418 1453.99 1408.33 1463.87 1393.98 1467.13Z" fill="#FF8152" fill-opacity="0.07"/>
<path d="M1364.9 1534.52C1357.33 1522.33 1344.64 1516.26 1336.57 1521.06C1328.51 1525.86 1328.09 1539.54 1335.67 1551.73C1343.25 1563.92 1355.93 1569.98 1364.01 1565.19C1372.09 1560.4 1372.48 1546.7 1364.9 1534.52Z" fill="#FF8152" fill-opacity="0.07"/>
<path d="M1408.48 1508.44C1393.43 1505.13 1382.99 1494.8 1385.17 1485.35C1387.36 1475.9 1401.35 1470.93 1416.4 1474.23C1431.46 1477.52 1441.9 1487.87 1439.71 1497.31C1437.53 1506.75 1423.54 1511.74 1408.48 1508.44Z" fill="#FF8152" fill-opacity="0.07"/>
<path d="M1405.36 1515.67C1392.39 1507.51 1377.5 1507.49 1372.1 1515.67C1366.69 1523.85 1372.83 1537.01 1385.78 1545.17C1398.74 1553.33 1413.63 1553.35 1419.04 1545.22C1424.45 1537.09 1418.31 1523.83 1405.36 1515.67Z" fill="#FF8152" fill-opacity="0.07"/>
<path d="M505.625 1055.47C515.325 1067.28 529.13 1061.59 548.178 1064.75C576.13 1069.39 587.232 1056.45 582.388 1044.57C577.543 1032.7 559.698 1032.68 551.643 1021.83L551.565 1021.73L551.488 1021.64C543.013 1011.13 547.935 994.418 537.528 986.634C527.122 978.849 511.275 985.667 508.152 1013.09C506.011 1031.81 496.542 1043.13 505.625 1055.47Z" fill="#FF8152" fill-opacity="0.07"/>
<path d="M518.977 1091.42C523.248 1077.79 534.029 1068.92 543.056 1071.61C552.083 1074.29 555.935 1087.5 551.664 1101.13C547.393 1114.75 536.601 1123.62 527.585 1120.94C518.569 1118.25 514.706 1105.04 518.977 1091.42Z" fill="#FF8152" fill-opacity="0.07"/>
<path d="M473.765 1033.03C488.398 1032.78 500.129 1025.15 499.975 1015.97C499.82 1006.79 487.836 999.539 473.18 999.786C458.525 1000.03 446.817 1007.66 446.971 1016.84C447.126 1026.02 459.121 1033.27 473.765 1033.03Z" fill="#FF8152" fill-opacity="0.07"/>
<path d="M475.012 1082.8C485.518 1071.79 499.941 1068.22 507.235 1074.81C514.53 1081.4 511.914 1095.66 501.409 1106.67C490.903 1117.67 476.468 1121.24 469.174 1114.65C461.879 1108.07 464.495 1093.77 475.012 1082.8Z" fill="#FF8152" fill-opacity="0.07"/>
<path d="M470.157 1076.53C483.918 1069.73 491.433 1057.2 486.931 1048.61C482.428 1040.02 467.619 1038.48 453.824 1045.28C440.03 1052.08 432.548 1064.61 437.05 1073.2C441.553 1081.79 456.384 1083.32 470.157 1076.53Z" fill="#FF8152" fill-opacity="0.07"/>
<path d="M1066.93 608.712C1071.6 594.259 1058.99 586.346 1051.02 569.209C1039.32 544.084 1022.08 542.366 1014.67 552.899C1007.25 563.432 1017.24 577.853 1012.53 590.394C1012.48 590.512 1012.48 590.512 1012.44 590.63C1008.23 603.343 991.251 608.733 990.445 621.479C989.64 634.224 1004.32 643.179 1029.42 630.358C1046.53 621.607 1061.48 622.907 1066.93 608.712Z" fill="#FF8152" fill-opacity="0.07"/>
<path d="M1090.05 577.788C1076.06 581.976 1062.46 578.25 1059.7 569.467C1056.95 560.684 1066.03 550.14 1080.02 546.006C1094.01 541.872 1107.61 545.555 1110.38 554.338C1113.15 563.121 1104.05 573.611 1090.05 577.788Z" fill="#FF8152" fill-opacity="0.07"/>
<path d="M1065.63 646.937C1057.23 635.265 1044.17 630.079 1036.43 635.351C1028.69 640.623 1029.25 654.345 1037.64 666.006C1046.04 677.667 1059.11 682.864 1066.84 677.592C1074.58 672.32 1074.03 658.597 1065.63 646.937Z" fill="#FF8152" fill-opacity="0.07"/>
<path d="M1107.32 618.107C1092.06 615.788 1080.95 606.157 1082.48 596.633C1084.02 587.109 1097.62 581.182 1112.87 583.501C1128.12 585.82 1139.25 595.452 1137.71 604.976C1136.18 614.5 1122.57 620.384 1107.32 618.107Z" fill="#FF8152" fill-opacity="0.07"/>
<path d="M1104.7 625.494C1091.2 618.193 1076.35 619.138 1071.51 627.642C1066.68 636.146 1073.72 648.88 1087.19 656.171C1100.67 663.462 1115.54 662.527 1120.38 654.023C1125.21 645.52 1118.19 632.785 1104.7 625.494Z" fill="#FF8152" fill-opacity="0.07"/>
<path d="M1058.3 1401.27C1058.99 1386.13 1044.71 1381.64 1032.47 1367.09C1014.51 1345.73 997.409 1348.41 993.028 1360.44C988.647 1372.48 1002.11 1383.89 1000.89 1397.2C1000.88 1397.24 1000.88 1397.28 1000.89 1397.33C1000.88 1397.36 1000.88 1397.4 1000.89 1397.44C1000.19 1410.78 985.204 1420.25 987.809 1432.77C990.413 1445.29 1006.96 1450.26 1027.81 1431.58C1042.01 1418.84 1056.8 1416.34 1058.3 1401.27Z" fill="#FF8152" fill-opacity="0.07"/>
<path d="M1072.46 1365.6C1060.05 1373.11 1045.92 1372.94 1040.92 1365.16C1035.92 1357.37 1041.94 1344.94 1054.35 1337.39C1066.77 1329.84 1080.84 1330.05 1085.88 1337.83C1090.92 1345.62 1084.88 1358.05 1072.46 1365.6Z" fill="#FF8152" fill-opacity="0.07"/>
<path d="M1067.17 1438.51C1055.96 1429.36 1041.96 1427.62 1035.89 1434.64C1029.82 1441.66 1033.97 1454.8 1045.17 1463.96C1056.37 1473.12 1070.39 1474.87 1076.46 1467.84C1082.53 1460.8 1078.37 1447.68 1067.17 1438.51Z" fill="#FF8152" fill-opacity="0.07"/>
<path d="M1099.81 1400.18C1084.46 1401.77 1071.12 1395.24 1070.11 1385.62C1069.11 1376 1080.65 1366.9 1096 1365.31C1111.35 1363.72 1124.69 1370.25 1125.7 1379.88C1126.7 1389.51 1115.16 1398.59 1099.81 1400.18Z" fill="#FF8152" fill-opacity="0.07"/>
<path d="M1099.23 1408.01C1084.27 1404.34 1070.17 1408.98 1067.74 1418.37C1065.31 1427.77 1075.46 1438.34 1090.44 1441.99C1105.41 1445.64 1119.52 1441.02 1121.94 1431.63C1124.37 1422.25 1114.21 1411.68 1099.23 1408.01Z" fill="#FF8152" fill-opacity="0.07"/>
<path d="M473.942 586.27C464.186 574.459 450.414 580.279 431.345 577.23C403.359 572.752 392.334 585.755 397.223 597.63C402.112 609.506 419.978 609.442 428.122 620.179L428.189 620.286L428.277 620.383C436.807 630.841 431.996 647.581 442.446 655.301C452.897 663.021 468.7 656.127 471.668 628.683C473.622 609.946 483.057 598.565 473.942 586.27Z" fill="#FF8152" fill-opacity="0.07"/>
<path d="M460.379 550.398C456.186 564.045 445.459 572.946 436.41 570.348C427.361 567.749 423.444 554.521 427.582 540.874C431.72 527.227 442.502 518.325 451.54 520.934C460.578 523.544 464.54 536.751 460.379 550.398Z" fill="#FF8152" fill-opacity="0.07"/>
<path d="M505.899 608.54C491.266 608.862 479.58 616.561 479.789 625.72C479.999 634.879 492.039 642.073 506.672 641.751C521.305 641.429 532.991 633.73 532.782 624.571C532.572 615.412 520.532 608.218 505.899 608.54Z" fill="#FF8152" fill-opacity="0.07"/>
<path d="M504.355 558.773C493.915 569.843 479.503 573.494 472.175 566.944C464.848 560.394 467.375 546.114 477.826 535.054C488.276 523.995 502.677 520.333 510.005 526.894C517.333 533.454 514.805 547.713 504.355 558.773Z" fill="#FF8152" fill-opacity="0.07"/>
<path d="M509.255 565.022C495.527 571.894 488.089 584.446 492.635 593.046C497.182 601.647 512.014 603.075 525.742 596.203C539.47 589.331 546.897 576.779 542.295 568.168C537.693 559.557 522.972 558.15 509.255 565.022Z" fill="#FF8152" fill-opacity="0.07"/>
<path d="M546.699 312.555C545.683 327.673 559.864 332.462 571.771 347.268C589.263 368.99 606.412 366.671 611.058 354.731C615.704 342.791 602.494 331.109 604.017 317.816C604.017 317.816 604.017 317.741 604.017 317.698V317.569C605.01 304.255 620.206 295.096 617.878 282.533C615.549 269.97 599.117 264.645 577.852 282.887C563.373 295.321 548.542 297.512 546.699 312.555Z" fill="#FF8152" fill-opacity="0.07"/>
<path d="M531.757 347.924C544.337 340.633 558.451 341.127 563.274 348.997C568.096 356.868 561.817 369.183 549.237 376.474C536.656 383.765 522.553 383.271 517.73 375.4C512.908 367.53 519.187 355.203 531.757 347.924Z" fill="#FF8152" fill-opacity="0.07"/>
<path d="M538.654 275.125C549.689 284.52 563.616 286.549 569.851 279.656C576.086 272.762 572.202 259.545 561.21 250.139C550.219 240.733 536.248 238.714 530.024 245.618C523.8 252.522 527.695 265.729 538.654 275.125Z" fill="#FF8152" fill-opacity="0.07"/>
<path d="M505.183 312.769C520.566 311.502 533.71 318.299 534.548 327.952C535.387 337.605 523.601 346.441 508.218 347.708C492.834 348.975 479.691 342.157 478.852 332.494C478.013 322.83 489.799 314.036 505.183 312.769Z" fill="#FF8152" fill-opacity="0.07"/>
<path d="M505.922 304.953C520.809 308.937 535.012 304.588 537.649 295.29C540.287 285.991 530.355 275.157 515.468 271.174C500.581 267.19 486.379 271.539 483.741 280.837C481.104 290.136 491.036 300.98 505.922 304.953Z" fill="#FF8152" fill-opacity="0.07"/>
<path d="M1215.56 1164.43C1207.57 1177.45 1217.95 1187.99 1221.63 1206.46C1227.02 1233.54 1243.38 1239.08 1253.11 1230.51C1262.85 1221.94 1256.54 1205.66 1264.15 1194.53L1264.23 1194.42L1264.29 1194.31C1271.41 1182.9 1289.21 1181.43 1292.98 1169.26C1296.76 1157.1 1284.66 1145.02 1257.18 1151.84C1238.47 1156.49 1224.23 1151.86 1215.56 1164.43Z" fill="#FF8152" fill-opacity="0.07"/>
<path d="M1185.7 1189.33C1200.31 1188.43 1212.63 1195.12 1213.28 1204.28C1213.94 1213.44 1202.54 1221.61 1187.9 1222.53C1173.27 1223.46 1160.97 1216.76 1160.31 1207.59C1159.66 1198.42 1171.06 1190.21 1185.7 1189.33Z" fill="#FF8152" fill-opacity="0.07"/>
<path d="M1225.92 1127.55C1231.31 1140.79 1242.79 1148.79 1251.57 1145.41C1260.34 1142.02 1263.08 1128.55 1257.69 1115.34C1252.31 1102.14 1240.82 1094.1 1232.05 1097.49C1223.27 1100.87 1220.52 1114.31 1225.92 1127.55Z" fill="#FF8152" fill-opacity="0.07"/>
<path d="M1178.49 1146.23C1192.84 1151.92 1201.3 1163.8 1197.54 1172.77C1193.77 1181.73 1179.13 1184.37 1164.84 1178.68C1150.55 1172.99 1142.03 1161.12 1145.8 1152.15C1149.58 1143.18 1164.21 1140.54 1178.49 1146.23Z" fill="#FF8152" fill-opacity="0.07"/>
<path d="M1182.82 1139.6C1194.21 1149.74 1208.88 1152.17 1215.59 1145.03C1222.3 1137.89 1218.53 1123.88 1207.14 1113.73C1195.75 1103.58 1181.07 1101.17 1174.35 1108.31C1167.63 1115.45 1171.43 1129.46 1182.82 1139.6Z" fill="#FF8152" fill-opacity="0.07"/>
<path d="M1116.55 195.056C1106.96 206.996 1115.92 218.678 1117.22 237.479C1119.12 265.01 1134.65 272.483 1145.38 265.15C1156.12 257.816 1152 240.905 1160.9 230.79L1160.98 230.693L1161.06 230.597C1169.57 220.128 1187.43 220.869 1192.77 209.208C1198.11 197.547 1187.62 184.126 1159.46 187.54C1140.3 189.935 1126.76 183.621 1116.55 195.056Z" fill="#FF8152" fill-opacity="0.07"/>
<path d="M1083.75 216.134C1098.36 216.982 1109.74 225.11 1109.13 234.28C1108.53 243.449 1096.25 250.182 1081.64 249.312C1067.03 248.442 1055.65 240.325 1056.26 231.155C1056.87 221.985 1069.14 215.275 1083.75 216.134Z" fill="#FF8152" fill-opacity="0.07"/>
<path d="M1131.52 159.699C1135.19 173.496 1145.56 182.805 1154.7 180.508C1163.83 178.21 1168.27 165.175 1164.63 151.388C1160.99 137.601 1150.59 128.281 1141.45 130.579C1132.32 132.877 1127.86 145.912 1131.52 159.699Z" fill="#FF8152" fill-opacity="0.07"/>
<path d="M1082.08 172.508C1095.54 179.874 1102.48 192.694 1097.6 201.134C1092.72 209.573 1077.86 210.432 1064.41 203.066C1050.95 195.7 1044.01 182.88 1048.89 174.441C1053.77 166.001 1068.63 165.153 1082.08 172.508Z" fill="#FF8152" fill-opacity="0.07"/>
<path d="M1087.19 166.463C1097.2 177.898 1111.47 182.075 1119.03 175.794C1126.59 169.512 1124.64 155.167 1114.62 143.732C1104.6 132.297 1090.34 128.109 1082.78 134.39C1075.22 140.672 1077.26 155.028 1087.19 166.463Z" fill="#FF8152" fill-opacity="0.07"/>
<path d="M894.139 1737.09C881.636 1728.06 869.861 1737.09 850.571 1738.79C822.331 1741.32 815.037 1756.61 822.839 1766.87C830.641 1777.14 847.901 1772.67 858.539 1781.11L858.638 1781.19L858.737 1781.26C869.707 1789.29 869.398 1806.68 881.503 1811.58C893.609 1816.49 907.128 1805.93 902.879 1778.65C899.988 1760.05 906.146 1746.74 894.139 1737.09Z" fill="#FF8152" fill-opacity="0.07"/>
<path d="M871.671 1705.71C871.153 1719.94 863.086 1731.21 853.661 1730.89C844.237 1730.57 837.009 1718.76 837.527 1704.53C838.046 1690.3 846.113 1679.02 855.537 1679.34C864.962 1679.66 872.201 1691.47 871.671 1705.71Z" fill="#FF8152" fill-opacity="0.07"/>
<path d="M930.832 1750.79C916.751 1754.69 907.437 1765 910.019 1773.84C912.601 1782.68 926.12 1786.66 940.201 1782.76C954.282 1778.87 963.585 1768.54 961.003 1759.71C958.421 1750.88 944.913 1746.88 930.832 1750.79Z" fill="#FF8152" fill-opacity="0.07"/>
<path d="M916.441 1703.01C909.202 1716.28 896.202 1723.35 887.418 1718.81C878.634 1714.27 877.376 1699.83 884.615 1686.6C891.854 1673.37 904.843 1666.26 913.638 1670.81C922.434 1675.35 923.681 1689.75 916.441 1703.01Z" fill="#FF8152" fill-opacity="0.07"/>
<path d="M922.766 1707.85C911.267 1717.87 907.316 1731.84 913.937 1739.05C920.559 1746.27 935.28 1743.99 946.79 1733.97C958.3 1723.96 962.24 1709.99 955.618 1702.77C948.997 1695.56 934.298 1697.83 922.766 1707.85Z" fill="#FF8152" fill-opacity="0.07"/>
<path d="M216.661 346.56C216.661 346.56 204.014 351.607 193.916 345.809C181.259 338.55 178.743 324.753 184.625 314.778C190.507 304.803 203.087 300.734 212.555 298.468C225.423 295.376 242.23 294.592 251.4 295.107C255.528 303.096 261.476 318.407 263.672 331.131C265.283 340.494 266.375 353.432 259.379 362.548C252.382 371.664 238.29 374.993 226.416 366.586C216.925 359.864 216.661 346.56 216.661 346.56Z" fill="#FF8152" fill-opacity="0.07"/>
<path d="M476.325 1719.54C476.325 1719.54 468.181 1708.87 471.459 1697.91C475.564 1684.18 488.674 1678.4 500.062 1681.48C511.451 1684.56 518.602 1695.44 523.237 1703.77C529.494 1715.14 534.427 1730.79 536.193 1739.57C529.251 1745.43 515.468 1754.83 503.34 1760.03C494.423 1763.88 481.799 1768.11 471.006 1763.76C460.213 1759.41 453.349 1746.95 458.867 1733.69C463.149 1723.09 476.325 1719.54 476.325 1719.54Z" fill="#FF8152" fill-opacity="0.07"/>
<path d="M222.476 1501.09C222.476 1501.09 226.581 1513.78 219.794 1523.09C211.297 1534.74 196.962 1536.03 187.228 1529.53C177.495 1523.04 174.405 1510.47 172.882 1501.09C170.796 1488.36 171.414 1471.99 172.706 1463.15C181.236 1459.82 197.414 1455.34 210.635 1454.28C220.357 1453.49 233.699 1453.53 242.439 1461.07C251.179 1468.62 253.474 1482.55 243.807 1493.37C236.115 1501.95 222.476 1501.09 222.476 1501.09Z" fill="#FF8152" fill-opacity="0.07"/>
<path d="M741.398 150.196C741.398 150.196 730.02 142.808 729.325 131.416C728.442 117.157 738.782 107.407 750.579 106.581C762.376 105.754 772.86 113.624 780.088 119.992C789.92 128.657 799.952 141.778 804.664 149.465C800.161 157.261 790.428 170.618 780.816 179.53C773.742 186.058 763.314 194.176 751.649 193.628C739.985 193.081 729.247 183.567 729.788 169.287C730.208 157.841 741.398 150.196 741.398 150.196Z" fill="#FF8152" fill-opacity="0.07"/>
<path d="M784.822 1254.23C784.822 1254.23 797.678 1249.72 807.522 1255.95C819.826 1263.74 821.735 1277.63 815.401 1287.34C809.067 1297.06 796.343 1300.58 786.775 1302.46C773.775 1305 756.979 1305.06 747.809 1304.17C744.046 1296.01 738.793 1280.46 737.17 1267.66C735.979 1258.25 735.471 1245.26 742.865 1236.46C750.259 1227.65 764.494 1224.93 775.971 1233.83C785.142 1240.94 784.822 1254.23 784.822 1254.23Z" fill="#FF8152" fill-opacity="0.07"/>
<path d="M489.545 1371.71C489.545 1371.71 494.478 1359.29 505.745 1356.15C519.871 1352.21 531.9 1359.91 535.298 1370.92C538.697 1381.94 533.091 1393.61 528.269 1401.87C521.725 1413.09 510.744 1425.49 504.057 1431.62C495.229 1429.04 479.779 1422.72 468.743 1415.51C460.643 1410.22 450.237 1402.09 448.251 1390.88C446.264 1379.67 453.459 1367.43 467.905 1364.82C479.437 1362.74 489.545 1371.71 489.545 1371.71Z" fill="#FF8152" fill-opacity="0.07"/>
<path d="M853.584 437.119C853.584 437.119 866.826 433.661 876.063 440.651C887.672 449.413 888.39 463.404 881.261 472.584C874.132 481.765 861.132 484.245 851.465 485.34C838.299 486.833 821.525 485.544 812.487 483.923C809.431 475.494 805.524 459.57 804.983 446.675C804.597 437.194 805.193 424.223 813.304 416.041C821.415 407.859 835.839 406.27 846.532 416.041C855.051 423.901 853.584 437.119 853.584 437.119Z" fill="#FF8152" fill-opacity="0.07"/>
<path d="M296.304 100.181C296.304 100.181 303.609 88.9393 315.296 87.9622C329.929 86.7489 340.203 96.5521 341.35 108.02C342.498 119.487 334.729 129.859 328.318 137.01C319.666 146.792 306.434 156.907 298.654 161.706C290.543 157.519 276.583 148.392 267.203 139.265C260.306 132.554 251.753 122.612 251.985 111.251C252.217 99.8914 261.74 89.2077 276.44 89.3688C288.226 89.4976 296.304 100.181 296.304 100.181Z" fill="#FF8152" fill-opacity="0.07"/>
<path d="M742.512 771.532C742.512 771.532 751.859 781.196 749.895 792.492C747.423 806.579 735.074 813.784 723.409 811.991C711.745 810.198 703.358 800.18 697.807 792.406C690.248 781.808 683.461 766.797 680.735 758.283C686.937 751.69 699.496 740.824 710.972 734.295C719.381 729.496 731.421 723.891 742.666 727.005C753.912 730.119 762.133 741.747 758.282 755.534C755.192 766.55 742.512 771.532 742.512 771.532Z" fill="#FF8152" fill-opacity="0.07"/>
<path d="M723.376 1555.2C723.376 1555.2 713.886 1545.63 715.651 1534.36C717.858 1520.23 730.141 1512.88 741.85 1514.47C753.558 1516.06 762.078 1525.97 767.75 1533.68C775.475 1544.18 782.427 1559.08 785.329 1567.56C779.227 1574.25 766.801 1585.28 755.467 1591.97C747.136 1596.9 735.173 1602.71 723.884 1599.71C712.595 1596.72 704.196 1585.26 707.838 1571.41C710.774 1560.35 723.376 1555.2 723.376 1555.2Z" fill="#FF8152" fill-opacity="0.07"/>
<path d="M1186.34 1698.83C1186.34 1698.83 1199.07 1694.01 1209.07 1699.98C1221.58 1707.49 1223.86 1721.28 1217.8 1731.17C1211.74 1741.06 1199.09 1744.88 1189.58 1747C1176.66 1749.86 1159.78 1750.36 1150.68 1749.69C1146.7 1741.64 1141.02 1726.22 1139.06 1713.46C1137.61 1704.08 1136.76 1691.12 1143.92 1682.12C1151.07 1673.12 1165.23 1670.04 1176.94 1678.65C1186.31 1685.54 1186.34 1698.83 1186.34 1698.83Z" fill="#FF8152" fill-opacity="0.07"/>
<path d="M31.9812 1035.52C31.9812 1035.52 18.3634 1036.66 10.5062 1028.18C0.662513 1017.57 2.50543 1003.67 11.1904 995.857C19.8753 988.04 33.1179 987.847 42.8511 988.427C56.0937 989.232 72.36 993.377 80.9566 996.534C82.4354 1005.36 83.3955 1021.7 81.5746 1034.48C80.2393 1043.89 77.3039 1056.56 67.8244 1063.2C58.345 1069.85 43.8774 1068.95 35.1263 1057.47C28.1409 1048.29 31.9812 1035.52 31.9812 1035.52Z" fill="#FF8152" fill-opacity="0.07"/>
<path d="M235.973 1229.21C235.973 1229.21 240.961 1241.59 234.869 1251.33C227.211 1263.53 212.997 1265.77 202.866 1259.92C192.736 1254.07 188.73 1241.75 186.534 1232.51C183.554 1219.93 183.014 1203.52 183.676 1194.66C191.941 1190.77 207.777 1185.22 220.887 1183.28C230.521 1181.85 243.841 1180.99 253.1 1187.94C262.359 1194.88 265.57 1208.64 256.742 1220.06C249.602 1229.16 235.973 1229.21 235.973 1229.21Z" fill="#FF8152" fill-opacity="0.07"/>
<path d="M165.975 1768.68C165.975 1768.68 154.553 1775.98 143.495 1772.17C129.646 1767.4 124.459 1754.33 128.266 1743.43C132.074 1732.53 143.661 1726.2 152.489 1722.23C164.518 1716.79 180.861 1712.91 190.01 1711.69C195.627 1718.76 204.477 1732.7 209.134 1744.76C212.555 1753.65 216.175 1766.15 211.099 1776.4C206.022 1786.64 192.857 1792.5 179.548 1786.5C168.844 1781.68 165.975 1768.68 165.975 1768.68Z" fill="#FF8152" fill-opacity="0.07"/>
<path d="M1364.46 402.286C1364.46 402.286 1377.89 399.806 1386.6 407.462C1397.5 417.05 1397.13 431.084 1389.3 439.674C1381.48 448.264 1368.33 449.821 1358.58 450.196C1345.34 450.712 1328.71 448.199 1319.82 445.901C1317.44 437.312 1314.77 421.109 1315.23 408.213C1315.58 398.732 1317.18 385.837 1325.91 378.278C1334.64 370.719 1349.09 370.193 1359.02 380.747C1366.94 389.219 1364.46 402.286 1364.46 402.286Z" fill="#FF8152" fill-opacity="0.07"/>
</g>
</svg>
