<svg width="1440" height="574" viewBox="0 0 1440 574" fill="none" xmlns="http://www.w3.org/2000/svg">
<rect width="1440" height="574" fill="#F8F8FF"/>
<mask id="mask0_324_6720" style="mask-type:alpha" maskUnits="userSpaceOnUse" x="9" y="1" width="1422" height="573">
<rect x="9" y="1" width="1422" height="572.825" fill="#F8F8FF"/>
</mask>
<g mask="url(#mask0_324_6720)">
<path d="M470.289 31.6762C462.879 34.8124 463.768 42.8217 459.389 52.1413C452.971 65.8123 457.9 73.5608 464.607 72.9383C471.314 72.3158 473.931 63.1208 480.576 60.6724H480.639H480.701C487.25 57.9571 494.988 63.1089 500.438 58.9709C505.887 54.8328 504.754 45.6022 491.34 39.6856C482.196 35.6127 477.846 28.955 470.289 31.6762Z" fill="#FF8152" fill-opacity="0.08"/>
<path d="M449.68 33.3339C456.228 37.8148 459.277 44.9647 456.483 49.3476C453.688 53.7306 446.115 53.6327 439.567 49.1457C433.018 44.6586 429.969 37.5149 432.764 33.1319C435.559 28.7489 443.125 28.853 449.68 33.3339Z" fill="#FF8152" fill-opacity="0.08"/>
<path d="M486.293 18.451C484.327 25.8418 486.426 32.9087 490.975 34.2273C495.525 35.5458 500.803 30.636 502.764 23.2394C504.724 15.8428 502.626 8.78166 498.076 7.45733C493.526 6.133 488.253 11.0602 486.293 18.451Z" fill="#FF8152" fill-opacity="0.08"/>
<path d="M460.182 11.4658C464.361 18.4589 464.055 26.3377 459.501 29.0126C454.947 31.6874 447.863 28.1676 443.654 21.1512C439.446 14.1349 439.781 6.27934 444.341 3.6045C448.901 0.929656 456.003 4.44948 460.182 11.4658Z" fill="#FF8152" fill-opacity="0.08"/>
<path d="M464.592 9.59259C465.952 17.9817 470.91 23.9748 475.676 23.0054C480.441 22.036 483.197 14.409 481.849 6.02597C480.5 -2.35705 475.531 -8.36234 470.765 -7.38686C466 -6.41138 463.239 1.19737 464.592 9.59259Z" fill="#FF8152" fill-opacity="0.08"/>
<path d="M1401.26 111.679C1393.06 110.307 1389.64 117.344 1380.87 122.648C1368 130.439 1368.3 139.407 1374.56 142.465C1380.83 145.523 1387.98 139.379 1395.15 140.911H1395.22H1395.29C1402.52 142.168 1406.67 150.508 1413.67 150.016C1420.68 149.525 1424.52 141.356 1415.73 129.376C1409.77 121.236 1409.39 113.468 1401.26 111.679Z" fill="#FF8152" fill-opacity="0.08"/>
<path d="M1383.05 100.838C1386.3 108.008 1385.25 115.608 1380.72 117.741C1376.19 119.874 1369.88 115.775 1366.63 108.575C1363.39 101.376 1364.44 93.8115 1368.97 91.6725C1373.5 89.5335 1379.81 93.6382 1383.05 100.838Z" fill="#FF8152" fill-opacity="0.08"/>
<path d="M1421.26 108.652C1415.41 114.043 1413.46 121.453 1416.96 125.221C1420.45 128.989 1427.99 127.677 1433.85 122.291C1439.7 116.906 1441.64 109.49 1438.15 105.723C1434.65 101.955 1427.13 103.267 1421.26 108.652Z" fill="#FF8152" fill-opacity="0.08"/>
<path d="M1404 88.4749C1403.82 96.9287 1399.15 103.674 1393.58 103.571C1388 103.468 1383.64 96.512 1383.82 88.0703C1384 79.6286 1388.67 72.8716 1394.24 72.9743C1399.81 73.077 1404.18 80.0272 1404 88.4749Z" fill="#FF8152" fill-opacity="0.08"/>
<path d="M1407.8 89.335C1404.74 96.9052 1406.34 104.621 1411.38 106.537C1416.43 108.453 1422.95 103.864 1426 96.2763C1429.05 88.6886 1427.46 80.9903 1422.44 79.0744C1417.43 77.1586 1410.85 81.7531 1407.8 89.335Z" fill="#FF8152" fill-opacity="0.08"/>
<path d="M172.519 144.279C178.987 149.445 185.316 144.618 195.502 143.916C210.417 142.892 214.466 134.524 210.493 128.727C206.519 122.93 197.363 125.156 191.878 120.359L191.825 120.311L191.773 120.27C186.101 115.675 186.503 106.051 180.185 103.164C173.868 100.278 166.603 105.956 168.499 121.115C169.744 131.471 166.323 138.767 172.519 144.279Z" fill="#FF8152" fill-opacity="0.08"/>
<path d="M202.401 162.808C202.868 154.951 199.218 148.334 194.25 148.028C189.282 147.722 184.877 153.843 184.41 161.7C183.944 169.557 187.594 176.174 192.562 176.48C197.53 176.787 201.935 170.665 202.401 162.808Z" fill="#FF8152" fill-opacity="0.08"/>
<path d="M154.235 135.747C161.869 133.768 167.029 128.163 165.757 123.226C164.484 118.289 157.267 115.892 149.628 117.859C141.989 119.827 136.834 125.444 138.107 130.381C139.379 135.318 146.59 137.721 154.235 135.747Z" fill="#FF8152" fill-opacity="0.08"/>
<path d="M160.866 162.397C164.944 155.339 172.033 151.696 176.693 154.256C181.353 156.815 181.834 164.621 177.762 171.679C173.689 178.738 166.595 182.38 161.934 179.815C157.274 177.25 156.793 169.456 160.866 162.397Z" fill="#FF8152" fill-opacity="0.08"/>
<path d="M157.013 159.827C163.255 154.336 165.541 146.508 162.112 142.361C158.684 138.214 150.847 139.286 144.605 144.783C138.362 150.28 136.082 158.101 139.505 162.248C142.928 166.395 150.771 165.318 157.013 159.827Z" fill="#FF8152" fill-opacity="0.08"/>
<path d="M928.033 73.5273C930.41 65.3076 923.511 60.9671 919.036 51.3693C912.463 37.2914 903.162 36.5144 899.281 42.5426C895.401 48.5708 900.939 56.6205 898.539 63.79C898.539 63.79 898.539 63.8324 898.539 63.8567V63.9235C896.411 71.1537 887.324 74.3893 887.033 81.6013C886.742 88.8133 894.759 93.7427 908.113 86.1968C917.223 81.0367 925.252 81.6074 928.033 73.5273Z" fill="#FF8152" fill-opacity="0.08"/>
<path d="M940.273 55.9896C933.005 58.5521 925.852 56.5577 924.324 51.5378C922.795 46.5178 927.427 40.3864 934.706 37.8239C941.986 35.2614 949.127 37.262 950.655 42.282C952.184 47.302 947.541 53.458 940.273 55.9896Z" fill="#FF8152" fill-opacity="0.08"/>
<path d="M928.089 94.8647C923.446 88.6387 916.358 85.9646 912.262 88.8945C908.166 91.8244 908.599 99.2538 913.247 105.48C917.896 111.706 924.978 114.38 929.074 111.45C933.171 108.52 932.737 101.091 928.089 94.8647Z" fill="#FF8152" fill-opacity="0.08"/>
<path d="M949.674 77.298C941.654 76.1971 935.724 71.0887 936.424 65.8871C937.124 60.6855 944.2 57.3537 952.219 58.4488C960.238 59.5438 966.169 64.6522 965.469 69.8597C964.769 75.0671 957.664 78.393 949.674 77.298Z" fill="#FF8152" fill-opacity="0.08"/>
<path d="M948.565 82.2269C941.527 78.4457 933.874 79.1086 931.483 83.7024C929.091 88.2963 932.832 95.0805 939.87 98.8559C946.908 102.631 954.561 101.968 956.953 97.3803C959.344 92.7922 955.603 86.0023 948.565 82.2269Z" fill="#FF8152" fill-opacity="0.08"/>
<path d="M782.748 138.931C779.164 146.407 784.96 151.766 787.63 161.75C791.539 176.4 800.205 178.76 804.88 173.644C809.556 168.528 805.623 159.857 809.07 153.422L809.104 153.363V153.304C812.305 146.733 821.445 145.213 822.908 138.346C824.371 131.479 817.604 125.381 803.697 130.272C794.249 133.608 786.704 131.656 782.748 138.931Z" fill="#FF8152" fill-opacity="0.08"/>
<path d="M768.544 154.788C776.244 153.702 783.064 156.786 783.792 161.671C784.519 166.555 778.836 171.4 771.13 172.486C763.424 173.571 756.615 170.488 755.882 165.597C755.149 160.706 760.832 155.868 768.544 154.788Z" fill="#FF8152" fill-opacity="0.08"/>
<path d="M786.022 117.865C789.579 125.024 796.265 128.997 800.951 126.737C805.636 124.477 806.551 116.844 802.988 109.679C799.426 102.514 792.751 98.5469 788.066 100.807C783.381 103.067 782.466 110.701 786.022 117.865Z" fill="#FF8152" fill-opacity="0.08"/>
<path d="M762.581 130.705C770.161 133.218 775.038 139.337 773.467 144.381C771.897 149.425 764.481 151.475 756.901 148.967C749.321 146.46 744.45 140.335 746.02 135.291C747.591 130.247 755 128.204 762.581 130.705Z" fill="#FF8152" fill-opacity="0.08"/>
<path d="M765.159 127.373C771.509 132.683 779.278 133.435 782.475 129.051C785.673 124.666 783.122 116.81 776.755 111.5C770.389 106.191 762.637 105.445 759.439 109.823C756.242 114.201 758.799 122.064 765.159 127.373Z" fill="#FF8152" fill-opacity="0.08"/>
<path d="M1038.77 406.234C1041.74 398.274 1035.4 393.359 1031.83 383.433C1026.6 368.864 1017.6 367.272 1013.31 372.925C1009.03 378.579 1013.76 387.046 1010.83 393.928L1010.8 393.995C1010.8 393.995 1010.8 394.037 1010.8 394.061C1008.12 401.052 999.001 403.467 998.117 410.604C997.234 417.74 1004.62 423.314 1018.29 417.026C1027.6 412.74 1035.39 414.017 1038.77 406.234Z" fill="#FF8152" fill-opacity="0.08"/>
<path d="M1052.29 389.719C1044.64 391.52 1037.47 388.968 1036.33 383.967C1035.19 378.965 1040.43 373.442 1048.09 371.616C1055.74 369.791 1062.91 372.367 1064.05 377.368C1065.2 382.37 1060 387.893 1052.29 389.719Z" fill="#FF8152" fill-opacity="0.08"/>
<path d="M1036.65 427.701C1032.63 421.293 1025.88 418.103 1021.6 420.627C1017.31 423.15 1017.09 430.343 1021.12 436.752C1025.14 443.16 1031.88 446.35 1036.18 443.832C1040.47 441.314 1040.68 434.109 1036.65 427.701Z" fill="#FF8152" fill-opacity="0.08"/>
<path d="M1058.75 412.387C1050.79 410.526 1045.26 404.713 1046.42 399.396C1047.58 394.078 1054.98 391.28 1062.94 393.135C1070.9 394.99 1076.43 400.816 1075.27 406.127C1074.12 411.438 1066.72 414.248 1058.75 412.387Z" fill="#FF8152" fill-opacity="0.08"/>
<path d="M1057.4 416.288C1050.82 411.858 1043.28 411.847 1040.54 416.288C1037.79 420.729 1040.9 427.868 1047.47 432.297C1054.04 436.727 1061.59 436.738 1064.34 432.326C1067.08 427.915 1063.97 420.717 1057.4 416.288Z" fill="#FF8152" fill-opacity="0.08"/>
<path d="M582.894 162.372C587.951 169.057 595.149 165.836 605.08 167.623C619.654 170.249 625.443 162.925 622.917 156.203C620.391 149.481 611.087 149.469 606.887 143.33L606.847 143.275L606.806 143.221C602.388 137.271 604.954 127.813 599.528 123.407C594.102 119.001 585.84 122.86 584.212 138.383C583.095 148.976 578.159 155.388 582.894 162.372Z" fill="#FF8152" fill-opacity="0.08"/>
<path d="M590.711 182.544C592.83 175.174 598.178 170.377 602.656 171.829C607.135 173.281 609.045 180.424 606.927 187.794C604.808 195.164 599.454 199.962 594.981 198.51C590.509 197.058 588.593 189.914 590.711 182.544Z" fill="#FF8152" fill-opacity="0.08"/>
<path d="M566.446 150.034C573.876 149.9 579.833 145.737 579.754 140.731C579.676 135.725 573.591 131.773 566.149 131.908C558.708 132.043 552.763 136.199 552.842 141.205C552.92 146.211 559.011 150.163 566.446 150.034Z" fill="#FF8152" fill-opacity="0.08"/>
<path d="M566.001 177.356C571.595 171.718 579.276 169.886 583.161 173.263C587.045 176.641 585.653 183.946 580.058 189.585C574.463 195.224 566.776 197.05 562.892 193.678C559.007 190.306 560.4 182.978 566.001 177.356Z" fill="#FF8152" fill-opacity="0.08"/>
<path d="M564.492 173.801C571.841 170.118 575.855 163.33 573.45 158.676C571.046 154.022 563.137 153.19 555.77 156.872C548.403 160.555 544.407 167.344 546.811 171.997C549.216 176.651 557.137 177.483 564.492 173.801Z" fill="#FF8152" fill-opacity="0.08"/>
<path d="M1110.21 114.024C1111.17 122.116 1119.09 123.33 1126.81 130.052C1138.13 139.879 1146.92 137.07 1148.18 130.313C1149.45 123.555 1141.35 118.596 1140.85 111.422V111.353V111.284C1140.06 104.139 1147.13 97.8618 1144.68 91.4225C1142.22 84.9833 1133.06 83.7116 1123.68 95.3763C1117.28 103.33 1109.7 105.885 1110.21 114.024Z" fill="#FF8152" fill-opacity="0.08"/>
<path d="M1107.22 135.602C1112.89 130.317 1120.07 129.195 1123.25 133.098C1126.44 137.002 1124.43 144.456 1118.76 149.741C1113.09 155.026 1105.92 156.148 1102.73 152.238C1099.54 148.329 1101.55 140.887 1107.22 135.602Z" fill="#FF8152" fill-opacity="0.08"/>
<path d="M1103.09 93.8912C1110.03 97.9399 1117.81 97.6905 1120.49 93.3391C1123.17 88.9876 1119.73 82.1724 1112.8 78.1237C1105.87 74.075 1098.08 74.3184 1095.4 78.6699C1092.72 83.0213 1096.17 89.8365 1103.09 93.8912Z" fill="#FF8152" fill-opacity="0.08"/>
<path d="M1089.73 117.971C1097.66 115.788 1105.22 118.228 1106.6 123.417C1107.99 128.606 1102.69 134.588 1094.76 136.771C1086.83 138.954 1079.27 136.515 1077.89 131.326C1076.5 126.137 1081.81 120.154 1089.73 117.971Z" fill="#FF8152" fill-opacity="0.08"/>
<path d="M1089.71 113.682C1098.05 114.404 1105.21 110.708 1105.68 105.455C1106.15 100.202 1099.77 95.3188 1091.42 94.596C1083.08 93.8733 1075.92 97.5752 1075.45 102.823C1074.98 108.07 1081.36 112.965 1089.71 113.682Z" fill="#FF8152" fill-opacity="0.08"/>
<path d="M149.297 431.633C151.091 439.842 159.01 440.236 167.314 446.309C179.492 455.222 187.83 451.374 188.355 444.299C188.879 437.223 180.395 433.005 179.136 425.697V425.631C179.139 425.608 179.139 425.584 179.136 425.56C177.598 418.311 183.891 411.117 180.791 404.769C177.691 398.421 168.555 398.093 160.572 411.063C155.124 419.904 147.933 423.329 149.297 431.633Z" fill="#FF8152" fill-opacity="0.08"/>
<path d="M146.337 452.756C151.665 447.114 159.016 445.275 162.728 448.65C166.439 452.025 165.096 459.326 159.768 464.968C154.441 470.611 147.095 472.443 143.383 469.068C139.672 465.693 140.998 458.392 146.337 452.756Z" fill="#FF8152" fill-opacity="0.08"/>
<path d="M138.862 413.306C145.369 416.594 152.262 415.563 154.214 410.99C156.166 406.418 152.462 400.048 145.939 396.754C139.415 393.46 132.544 394.497 130.587 399.07C128.629 403.642 132.338 410.012 138.862 413.306Z" fill="#FF8152" fill-opacity="0.08"/>
<path d="M127.646 438.223C135.432 435.319 143.372 436.874 145.325 441.702C147.277 446.529 142.534 452.792 134.725 455.696C126.916 458.601 118.999 457.045 117.046 452.252C115.094 447.459 119.825 441.128 127.646 438.223Z" fill="#FF8152" fill-opacity="0.08"/>
<path d="M126.864 434.492C134.935 434.336 141.392 429.652 141.276 424.027C141.161 418.402 134.606 413.943 126.535 414.099C118.464 414.255 112.013 418.938 112.122 424.557C112.232 430.176 118.804 434.616 126.864 434.492Z" fill="#FF8152" fill-opacity="0.08"/>
<path d="M874.677 353.237C875.045 344.909 867.357 342.441 860.768 334.438C851.102 322.691 841.893 324.162 839.535 330.782C837.176 337.403 844.424 343.681 843.765 350.998C843.762 351.022 843.762 351.046 843.765 351.069C843.762 351.091 843.762 351.113 843.765 351.134C843.391 358.469 835.322 363.678 836.725 370.565C838.127 377.451 847.032 380.185 858.261 369.909C865.908 362.905 873.869 361.529 874.677 353.237Z" fill="#FF8152" fill-opacity="0.08"/>
<path d="M881.536 333.844C875.221 338.183 868.035 338.084 865.492 333.59C862.949 329.095 866.008 321.917 872.324 317.559C878.639 313.201 885.797 313.319 888.363 317.813C890.928 322.308 887.852 329.486 881.536 333.844Z" fill="#FF8152" fill-opacity="0.08"/>
<path d="M879.445 373.422C873.457 368.211 865.97 367.221 862.726 371.216C859.481 375.212 861.699 382.69 867.687 387.901C873.675 393.112 881.167 394.108 884.412 390.107C887.657 386.105 885.433 378.639 879.445 373.422Z" fill="#FF8152" fill-opacity="0.08"/>
<path d="M895.872 352.767C887.837 353.633 880.854 350.076 880.329 344.832C879.803 339.589 885.845 334.627 893.879 333.761C901.913 332.895 908.896 336.453 909.422 341.702C909.948 346.951 903.906 351.901 895.872 352.767Z" fill="#FF8152" fill-opacity="0.08"/>
<path d="M896.557 357C888.918 354.947 881.719 357.541 880.48 362.793C879.241 368.045 884.423 373.958 892.067 375.998C899.711 378.039 906.91 375.452 908.15 370.206C909.389 364.96 904.201 359.053 896.557 357Z" fill="#FF8152" fill-opacity="0.08"/>
<path d="M1387.44 424.232C1382.4 417.838 1375.19 420.899 1365.26 419.166C1350.69 416.625 1344.88 423.567 1347.37 429.961C1349.86 436.356 1359.18 436.396 1363.35 442.236L1363.39 442.287L1363.43 442.34C1367.84 448.006 1365.25 456.987 1370.66 461.192C1376.07 465.397 1384.35 461.77 1386.03 447.012C1387.17 436.962 1392.14 430.886 1387.44 424.232Z" fill="#FF8152" fill-opacity="0.08"/>
<path d="M1390.75 401.202C1393.06 393.646 1391.07 386.286 1386.29 384.765C1381.51 383.243 1375.76 388.135 1373.44 395.691C1371.13 403.248 1373.12 410.607 1377.9 412.129C1382.68 413.651 1388.43 408.759 1390.75 401.202Z" fill="#FF8152" fill-opacity="0.08"/>
<path d="M1403.32 435.63C1395.58 435.742 1389.35 440.145 1389.42 445.463C1389.49 450.78 1395.84 455.003 1403.56 454.891C1411.28 454.779 1417.52 450.376 1417.46 445.058C1417.39 439.741 1411.06 435.518 1403.32 435.63Z" fill="#FF8152" fill-opacity="0.08"/>
<path d="M1403.15 408.926C1397.54 415.086 1389.86 417.071 1386 413.355C1382.13 409.638 1383.55 401.625 1389.15 395.465C1394.76 389.305 1402.45 387.32 1406.31 391.036C1410.17 394.753 1408.76 402.76 1403.15 408.926Z" fill="#FF8152" fill-opacity="0.08"/>
<path d="M1405.83 411.973C1398.48 415.819 1394.45 422.93 1396.84 427.87C1399.23 432.811 1407.12 433.673 1414.5 429.827C1421.87 425.981 1425.88 418.876 1423.5 413.929C1421.12 408.983 1413.19 408.108 1405.83 411.973Z" fill="#FF8152" fill-opacity="0.08"/>
<path d="M1283.48 51.8778C1285.93 43.8516 1279.37 39.4358 1275.23 29.9058C1269.15 15.9302 1260.18 14.9874 1256.3 20.8056C1252.43 26.6238 1257.62 34.6738 1255.15 41.6377C1255.15 41.6377 1255.15 41.6795 1255.15 41.7033V41.769C1252.95 48.8284 1244.09 51.8121 1243.66 58.8894C1243.22 65.9668 1250.86 70.9674 1263.95 63.8662C1272.84 59.0267 1280.63 59.7607 1283.48 51.8778Z" fill="#FF8152" fill-opacity="0.08"/>
<path d="M1296.7 34.6465C1289.4 36.9213 1282.33 34.8698 1280.9 30.0614C1279.47 25.2531 1284.22 19.51 1291.51 17.2352C1298.8 14.9603 1305.87 17.0177 1307.3 21.826C1308.74 26.6344 1303.99 32.3716 1296.7 34.6465Z" fill="#FF8152" fill-opacity="0.08"/>
<path d="M1283.79 73.5272C1279.24 67.2492 1272.13 64.4507 1267.93 67.2723C1263.72 70.094 1264 77.474 1268.53 83.752C1273.06 90.0299 1280.18 92.8284 1284.39 90.0068C1288.59 87.1852 1288.32 79.8052 1283.79 73.5272Z" fill="#FF8152" fill-opacity="0.08"/>
<path d="M1304.96 56.8119C1296.95 55.473 1291.12 49.9516 1291.93 44.4794C1292.75 39.0071 1299.9 35.6599 1307.92 37.005C1315.93 38.35 1321.76 43.8652 1320.94 49.3375C1320.12 54.8097 1312.97 58.1507 1304.96 56.8119Z" fill="#FF8152" fill-opacity="0.08"/>
<path d="M1303.52 62.0074C1296.82 58.1161 1289.43 58.5839 1287.02 63.0972C1284.61 67.6105 1288.08 74.3889 1294.79 78.2746C1301.49 82.1602 1308.87 81.6981 1311.28 77.1848C1313.69 72.6715 1310.22 65.8988 1303.52 62.0074Z" fill="#FF8152" fill-opacity="0.08"/>
<path d="M957.023 222.659C952.711 229.827 958.315 235.634 960.298 245.806C963.21 260.721 972.036 263.773 977.288 259.053C982.541 254.334 979.14 245.368 983.243 239.236L983.285 239.177L983.321 239.118C987.162 232.831 996.767 232.021 998.804 225.32C1000.84 218.62 994.314 211.967 979.486 215.722C969.386 218.283 961.704 215.734 957.023 222.659Z" fill="#FF8152" fill-opacity="0.08"/>
<path d="M941.952 236.212C949.678 235.722 956.195 239.357 956.54 244.334C956.884 249.312 950.856 253.752 943.119 254.254C935.382 254.756 928.876 251.115 928.532 246.131C928.188 241.148 934.215 236.69 941.952 236.212Z" fill="#FF8152" fill-opacity="0.08"/>
<path d="M962.535 202.125C965.45 209.404 971.668 213.802 976.416 211.942C981.165 210.083 982.646 202.674 979.731 195.412C976.817 188.151 970.599 183.735 965.85 185.595C961.102 187.454 959.615 194.845 962.535 202.125Z" fill="#FF8152" fill-opacity="0.08"/>
<path d="M937.555 211.782C944.769 214.969 949.025 221.62 947.133 226.641C945.241 231.662 937.877 233.141 930.69 229.954C923.504 226.767 919.22 220.116 921.118 215.095C923.015 210.074 930.374 208.595 937.555 211.782Z" fill="#FF8152" fill-opacity="0.08"/>
<path d="M940.474 209.105C946.609 214.992 954.515 216.4 958.129 212.257C961.743 208.114 959.71 199.983 953.575 194.096C947.441 188.208 939.535 186.806 935.915 190.95C932.295 195.093 934.34 203.223 940.474 209.105Z" fill="#FF8152" fill-opacity="0.08"/>
<path d="M213.915 554.37C207.147 549.549 201.046 554.74 190.857 556C175.935 557.852 172.309 566.467 176.608 572.052C180.907 577.638 189.979 574.884 195.747 579.412L195.799 579.454L195.858 579.496C201.795 583.785 201.9 593.457 208.393 595.996C214.886 598.534 221.846 592.459 219.202 577.351C217.377 567.058 220.425 559.555 213.915 554.37Z" fill="#FF8152" fill-opacity="0.08"/>
<path d="M200.713 537.119C200.661 544.941 196.604 551.276 191.649 551.223C186.695 551.17 182.719 544.823 182.771 536.996C182.823 529.168 186.88 522.839 191.835 522.892C196.79 522.945 200.765 529.298 200.713 537.119Z" fill="#FF8152" fill-opacity="0.08"/>
<path d="M233.24 562.41C225.653 564.753 220.759 570.523 222.306 575.298C223.854 580.072 231.255 582.046 238.842 579.703C246.429 577.36 251.318 571.589 249.77 566.815C248.223 562.041 240.821 560.067 233.24 562.41Z" fill="#FF8152" fill-opacity="0.08"/>
<path d="M225.324 534.964C221.554 542.111 214.511 546.054 209.591 543.78C204.672 541.507 203.747 533.859 207.518 526.684C211.288 519.509 218.336 515.594 223.25 517.874C228.164 520.153 229.064 527.818 225.324 534.964Z" fill="#FF8152" fill-opacity="0.08"/>
<path d="M228.192 537.67C222.115 543.624 220.2 551.724 223.917 555.774C227.635 559.824 235.573 558.247 241.644 552.318C247.714 546.388 249.636 538.264 245.918 534.214C242.2 530.164 234.28 531.716 228.192 537.67Z" fill="#FF8152" fill-opacity="0.08"/>
<path d="M39.9501 524.391C32.2674 526.82 32.53 534.606 27.45 543.235C19.9613 555.897 24.3278 563.752 31.1144 563.689C37.901 563.626 41.223 554.975 48.0838 553.147H48.1466H48.2094C54.996 551.05 62.3762 556.631 68.1868 553.078C73.9973 549.526 73.535 540.542 60.5097 533.776C51.5941 529.129 47.7356 522.374 39.9501 524.391Z" fill="#FF8152" fill-opacity="0.08"/>
<path d="M19.7937 523.611C26.158 528.432 28.7134 535.574 25.513 539.562C22.3126 543.55 14.5611 542.865 8.19686 538.038C1.8326 533.211 -0.722842 526.074 2.48363 522.087C5.6901 518.099 13.4355 518.784 19.7937 523.611Z" fill="#FF8152" fill-opacity="0.08"/>
<path d="M57.2885 512.28C54.6943 519.894 56.3078 527.521 60.8861 529.312C65.4644 531.102 71.2799 526.384 73.8741 518.77C76.4683 511.155 74.8605 503.529 70.2765 501.738C65.6925 499.948 59.8827 504.665 57.2885 512.28Z" fill="#FF8152" fill-opacity="0.08"/>
<path d="M31.452 503.727C35.0099 511.484 34.0959 519.785 29.4097 522.212C24.7236 524.64 18.0415 520.359 14.4835 512.59C10.9255 504.82 11.8396 496.532 16.5258 494.104C21.2119 491.677 27.894 495.963 31.452 503.727Z" fill="#FF8152" fill-opacity="0.08"/>
<path d="M34.87 502.94C35.7472 511.368 40.9248 517.748 46.4274 517.191C51.93 516.633 55.6782 509.344 54.801 500.91C53.9237 492.476 48.7462 486.102 43.2436 486.66C37.741 487.217 33.9928 494.506 34.87 502.94Z" fill="#FF8152" fill-opacity="0.08"/>
<path d="M787.718 538.685C781.023 533.672 774.717 538.685 764.388 539.633C749.266 541.034 745.36 549.523 749.538 555.221C753.716 560.92 762.958 558.44 768.655 563.126L768.708 563.168L768.761 563.209C774.635 567.668 774.469 577.319 780.952 580.044C787.434 582.768 794.673 576.908 792.398 561.761C790.85 551.436 794.147 544.044 787.718 538.685Z" fill="#FF8152" fill-opacity="0.08"/>
<path d="M775.99 521.519C775.718 529.336 771.485 535.531 766.54 535.354C761.596 535.177 757.803 528.687 758.075 520.87C758.347 513.053 762.58 506.852 767.525 507.029C772.47 507.206 776.268 513.696 775.99 521.519Z" fill="#FF8152" fill-opacity="0.08"/>
<path d="M807.218 546.334C799.908 548.355 795.073 553.706 796.413 558.288C797.754 562.87 804.772 564.936 812.082 562.915C819.392 560.894 824.221 555.537 822.881 550.961C821.54 546.384 814.528 544.307 807.218 546.334Z" fill="#FF8152" fill-opacity="0.08"/>
<path d="M799.365 520.1C795.624 527.509 788.907 531.459 784.369 528.923C779.83 526.388 779.18 518.326 782.92 510.942C786.661 503.557 793.372 499.589 797.917 502.125C802.461 504.66 803.105 512.698 799.365 520.1Z" fill="#FF8152" fill-opacity="0.08"/>
<path d="M803.486 522.407C797.588 527.994 795.562 535.783 798.958 539.807C802.354 543.83 809.904 542.561 815.807 536.975C821.71 531.389 823.731 523.599 820.335 519.575C816.939 515.552 809.4 516.821 803.486 522.407Z" fill="#FF8152" fill-opacity="0.08"/>
<path d="M1254.35 217.836C1251.55 209.945 1243.75 210.613 1234.85 205.702C1221.8 198.503 1214.13 203.426 1214.49 210.47C1214.86 217.514 1223.7 220.601 1225.86 227.669V227.735V227.8C1228.28 234.773 1223.02 242.741 1226.86 248.611C1230.7 254.481 1239.68 253.593 1245.86 239.672C1250.13 230.232 1256.73 225.875 1254.35 217.836Z" fill="#FF8152" fill-opacity="0.08"/>
<path d="M1254.54 196.018C1249.95 202.279 1242.87 205.034 1238.7 202.169C1234.54 199.305 1234.88 191.91 1239.46 185.649C1244.04 179.388 1251.13 176.639 1255.3 179.504C1259.46 182.368 1259.14 189.763 1254.54 196.018Z" fill="#FF8152" fill-opacity="0.08"/>
<path d="M1267.16 234.88C1259.57 232.539 1252.17 234.546 1250.65 239.315C1249.12 244.084 1254.02 249.848 1261.61 252.189C1269.2 254.529 1276.59 252.522 1278.12 247.747C1279.65 242.972 1274.77 237.203 1267.16 234.88Z" fill="#FF8152" fill-opacity="0.08"/>
<path d="M1275.02 208.538C1268 212.59 1260.31 212.011 1257.86 207.241C1255.41 202.471 1259.06 195.319 1266.08 191.267C1273.1 187.214 1280.8 187.793 1283.25 192.563C1285.7 197.333 1282.05 204.485 1275.02 208.538Z" fill="#FF8152" fill-opacity="0.08"/>
<path d="M1276.5 212.619C1268.79 213.822 1263.13 219.011 1263.89 224.182C1264.66 229.353 1271.48 232.59 1279.19 231.381C1286.89 230.173 1292.55 224.99 1291.79 219.824C1291.03 214.659 1284.2 211.416 1276.5 212.619Z" fill="#FF8152" fill-opacity="0.08"/>
<path d="M567.485 529.426C567.485 529.426 563.222 523.587 564.938 517.589C567.086 510.081 573.948 506.915 579.909 508.601C585.869 510.287 589.612 516.237 592.038 520.796C595.313 527.017 597.895 535.582 598.819 540.382C595.186 543.589 587.972 548.73 581.624 551.579C576.957 553.682 570.35 555.996 564.701 553.617C559.052 551.238 555.459 544.423 558.347 537.168C560.588 531.364 567.485 529.426 567.485 529.426Z" fill="#FF8152" fill-opacity="0.08"/>
<path d="M433.569 408.579C433.569 408.579 435.796 415.636 432.115 420.813C427.506 427.291 419.732 428.007 414.453 424.395C409.174 420.783 407.498 413.791 406.672 408.579C405.541 401.498 405.876 392.398 406.576 387.478C411.203 385.628 419.977 383.138 427.147 382.547C432.42 382.111 439.656 382.129 444.397 386.326C449.137 390.523 450.382 398.267 445.139 404.286C440.967 409.056 433.569 408.579 433.569 408.579Z" fill="#FF8152" fill-opacity="0.08"/>
<path d="M1094.55 274.302C1094.55 274.302 1089.96 268.733 1091.19 262.539C1092.74 254.795 1099.19 251.031 1105.13 252.264C1111.07 253.497 1115.15 259.203 1117.84 263.641C1121.49 269.668 1124.62 278.126 1125.89 282.903C1122.59 286.436 1115.93 292.196 1109.96 295.585C1105.56 298.074 1099.29 300.945 1093.58 298.98C1087.87 297.014 1083.91 290.415 1086.16 282.85C1087.97 276.804 1094.55 274.302 1094.55 274.302Z" fill="#FF8152" fill-opacity="0.08"/>
<path d="M240.205 286.197C240.205 286.197 241.474 279.086 247.06 276.259C254.052 272.714 261.185 275.588 264.143 281.109C267.102 286.629 265.395 293.42 263.742 298.31C261.504 304.956 257.057 312.685 254.199 316.632C249.31 316.159 240.488 314.37 233.945 311.659C229.133 309.672 222.803 306.413 220.571 300.636C218.339 294.86 220.807 287.608 228.111 284.746C233.945 282.461 240.205 286.197 240.205 286.197Z" fill="#FF8152" fill-opacity="0.08"/>
<path d="M729.875 271.165C729.875 271.165 736.693 268.62 741.914 272.134C748.44 276.532 749.452 284.364 746.093 289.846C742.733 295.328 735.985 297.315 730.911 298.375C724.017 299.805 715.109 299.841 710.245 299.339C708.249 294.735 705.463 285.963 704.603 278.743C703.971 273.43 703.702 266.107 707.623 261.139C711.544 256.172 719.094 254.633 725.181 259.655C730.045 263.665 729.875 271.165 729.875 271.165Z" fill="#FF8152" fill-opacity="0.08"/>
<path d="M1220.02 390.076C1220.02 390.076 1221.37 397.12 1217.3 401.708C1212.19 407.455 1204.69 407.292 1200.05 403.208C1195.41 399.124 1194.57 392.202 1194.34 387.11C1194.03 380.159 1195.34 371.423 1196.54 366.754C1201.14 365.474 1209.81 364.037 1216.71 364.251C1221.79 364.408 1228.7 365.219 1232.77 369.784C1236.84 374.348 1237.15 381.949 1231.52 387.162C1227.02 391.35 1220.02 390.076 1220.02 390.076Z" fill="#FF8152" fill-opacity="0.08"/>
<path d="M1260.72 518.552C1260.72 518.552 1266.84 514.832 1272.52 517.135C1279.65 520.05 1282.08 527.221 1279.84 533.046C1277.61 538.871 1271.46 542.06 1266.76 544.036C1260.36 546.73 1251.77 548.491 1246.97 548.957C1244.19 544.998 1239.88 537.256 1237.71 530.603C1236.11 525.706 1234.5 518.849 1237.36 513.398C1240.23 507.946 1247.24 505.025 1254.08 508.588C1259.49 511.433 1260.72 518.552 1260.72 518.552Z" fill="#FF8152" fill-opacity="0.08"/>
<path d="M574.485 337.063C574.485 337.063 577.05 330.261 582.909 328.537C590.255 326.378 596.51 330.597 598.278 336.634C600.046 342.671 597.13 349.067 594.622 353.592C591.219 359.741 585.509 366.537 582.031 369.897C577.44 368.484 569.406 365.019 563.667 361.07C559.454 358.17 554.043 353.715 553.01 347.572C551.977 341.429 555.718 334.721 563.231 333.292C569.228 332.15 574.485 337.063 574.485 337.063Z" fill="#FF8152" fill-opacity="0.08"/>
<path d="M283.241 443.705C283.241 443.705 279.542 437.305 281.961 431.431C284.99 424.079 292.341 421.662 298.239 424.049C304.137 426.436 307.285 432.872 309.235 437.807C311.885 444.477 313.557 453.444 313.977 458.403C309.917 461.232 301.985 465.581 295.192 467.771C290.195 469.362 283.2 470.941 277.699 467.89C272.198 464.84 269.323 457.53 273.034 450.507C275.992 444.872 283.241 443.705 283.241 443.705Z" fill="#FF8152" fill-opacity="0.08"/>
<path d="M707.726 5.73737C707.726 5.73737 712.666 11.2034 711.628 17.5926C710.321 25.5609 703.795 29.6361 697.63 28.6219C691.465 27.6076 687.032 21.9411 684.099 17.544C680.104 11.5496 676.517 3.05899 675.076 -1.7572C678.354 -5.48625 684.991 -11.6325 691.057 -15.3251C695.501 -18.0399 701.864 -21.2102 707.808 -19.449C713.751 -17.6877 718.096 -11.1102 716.06 -3.31198C714.427 2.9193 707.726 5.73737 707.726 5.73737Z" fill="#FF8152" fill-opacity="0.08"/>
<path d="M697.452 438.41C697.452 438.41 692.29 433.258 693.251 427.186C694.451 419.576 701.131 415.621 707.5 416.477C713.868 417.332 718.501 422.67 721.586 426.822C725.788 432.477 729.569 440.503 731.147 445.066C727.828 448.668 721.07 454.613 714.906 458.216C710.375 460.87 703.868 463.998 697.728 462.385C691.588 460.771 687.021 454.601 689.001 447.142C690.598 441.186 697.452 438.41 697.452 438.41Z" fill="#FF8152" fill-opacity="0.08"/>
<path d="M942.752 516.737C942.752 516.737 949.467 514.019 954.74 517.384C961.339 521.621 962.537 529.393 959.343 534.968C956.148 540.543 949.479 542.697 944.463 543.89C937.649 545.506 928.751 545.784 923.951 545.409C921.85 540.87 918.859 532.178 917.823 524.987C917.061 519.697 916.613 512.391 920.383 507.318C924.154 502.246 931.62 500.509 937.8 505.363C942.741 509.243 942.752 516.737 942.752 516.737Z" fill="#FF8152" fill-opacity="0.08"/>
<path d="M332.564 151.519C332.564 151.519 325.19 152.155 320.936 147.418C315.606 141.492 316.604 133.732 321.306 129.367C326.009 125.001 333.179 124.893 338.45 125.217C345.62 125.666 354.427 127.981 359.082 129.744C359.883 134.674 360.403 143.801 359.417 150.938C358.694 156.191 357.104 163.268 351.972 166.98C346.839 170.692 339.005 170.188 334.267 163.777C330.484 158.65 332.564 151.519 332.564 151.519Z" fill="#FF8152" fill-opacity="0.08"/>
<path d="M36.9237 340.843C36.9237 340.843 31.4168 336.027 31.8787 329.78C32.4708 321.966 38.6705 317.415 45.0064 317.786C51.3423 318.157 56.3341 323.197 59.7152 327.171C64.3102 332.576 68.692 340.425 70.6283 344.929C67.6676 348.844 61.5094 355.415 55.7419 359.56C51.5022 362.61 45.3617 366.284 39.1975 365.154C33.0334 364.023 28.0238 358.088 29.3502 350.375C30.4161 344.217 36.9237 340.843 36.9237 340.843Z" fill="#FF8152" fill-opacity="0.08"/>
<path d="M1406.32 547.621C1406.32 547.621 1413.03 550.34 1414.69 556.423C1416.75 564.037 1412.51 570.458 1406.52 572.232C1400.54 574.007 1394.21 570.915 1389.76 568.286C1383.7 564.725 1377.02 558.737 1373.72 555.105C1375.16 550.393 1378.69 542.049 1382.65 536.203C1385.57 531.877 1390.03 526.322 1396.13 525.313C1402.23 524.304 1408.84 528.245 1410.19 535.996C1411.24 542.239 1406.32 547.621 1406.32 547.621Z" fill="#FF8152" fill-opacity="0.08"/>
<path d="M1369.51 290.07C1369.51 290.07 1364.09 285.461 1364.31 279.219C1364.58 271.402 1370.34 266.623 1376.39 266.77C1382.44 266.917 1387.38 271.754 1390.74 275.587C1395.3 280.806 1399.77 288.477 1401.76 292.903C1399.07 296.917 1393.44 303.694 1388.1 308.044C1384.15 311.242 1378.45 315.133 1372.54 314.233C1366.62 313.334 1361.64 307.603 1362.64 299.85C1363.43 293.673 1369.51 290.07 1369.51 290.07Z" fill="#FF8152" fill-opacity="0.08"/>
<path d="M51.7316 7.69907C51.7316 7.69907 52.2432 0.461803 57.4709 -2.9488C64.0277 -7.21498 71.3901 -5.08189 74.9067 0.133641C78.4232 5.34917 77.4412 12.311 76.3239 17.3683C74.8008 24.2481 71.2137 32.4347 68.7968 36.7068C63.9042 36.7419 54.9835 35.8688 48.215 33.8353C43.2401 32.3469 36.6245 29.7332 33.8019 24.2013C30.9792 18.6693 32.6728 11.1507 39.6001 7.535C45.1395 4.61079 51.7316 7.69907 51.7316 7.69907Z" fill="#FF8152" fill-opacity="0.08"/>
<path d="M265.485 4.87128C265.485 4.87128 260.473 -0.41733 261.437 -6.63575C262.652 -14.4236 269.141 -18.4804 275.339 -17.5624C281.536 -16.6444 286.028 -11.1959 289.019 -6.90226C293.108 -1.10432 296.747 7.12769 298.277 11.8063C295.035 15.4841 288.441 21.5544 282.436 25.2262C278.014 27.9327 271.676 31.1012 265.707 29.4548C259.737 27.8084 255.303 21.4478 257.248 13.8199C258.808 7.70213 265.485 4.87128 265.485 4.87128Z" fill="#FF8152" fill-opacity="0.08"/>
<path d="M441.183 257.985C441.183 257.985 443.89 264.938 440.584 270.407C436.427 277.257 428.713 278.518 423.215 275.231C417.717 271.945 415.542 265.028 414.351 259.836C412.734 252.775 412.44 243.555 412.799 238.58C417.285 236.397 425.88 233.279 432.995 232.188C438.224 231.386 445.453 230.903 450.478 234.805C455.503 238.706 457.246 246.431 452.454 252.847C448.579 257.955 441.183 257.985 441.183 257.985Z" fill="#FF8152" fill-opacity="0.08"/>
<path d="M1116.22 542.113C1116.22 542.113 1119.13 548.863 1116.18 554.425C1112.45 561.384 1105.03 562.984 1099.53 559.976C1094.03 556.968 1091.64 550.236 1090.22 545.157C1088.34 538.251 1087.65 529.18 1087.78 524.214C1092.03 521.827 1100.22 518.371 1107.07 516.969C1112.12 515.93 1119.11 515.125 1124.15 518.759C1129.19 522.394 1131.23 529.95 1126.87 536.509C1123.41 541.743 1116.22 542.113 1116.22 542.113Z" fill="#FF8152" fill-opacity="0.08"/>
<path d="M403.675 555.802C403.675 555.802 397.756 559.874 392.026 557.749C384.849 555.09 382.161 547.803 384.134 541.725C386.107 535.647 392.111 532.114 396.686 529.899C402.92 526.869 411.389 524.701 416.13 524.024C419.041 527.964 423.627 535.737 426.041 542.467C427.813 547.425 429.689 554.395 427.059 560.108C424.428 565.82 417.606 569.09 410.709 565.742C405.162 563.054 403.675 555.802 403.675 555.802Z" fill="#FF8152" fill-opacity="0.08"/>
<path d="M42.0283 182.758C42.0283 182.758 48.6177 179.91 53.9528 183.017C60.6231 186.912 62.045 194.45 59.0278 199.963C56.0105 205.477 49.4558 207.777 44.5138 209.09C37.7915 210.855 28.9941 211.408 24.185 211.19C21.9712 206.842 18.7516 198.486 17.5147 191.531C16.6072 186.412 15.9482 179.328 19.5493 174.291C23.1503 169.254 30.5316 167.324 36.7857 171.855C41.7971 175.474 42.0283 182.758 42.0283 182.758Z" fill="#FF8152" fill-opacity="0.08"/>
</g>
</svg>
