<svg width="537" height="421" viewBox="0 0 537 421" fill="none" xmlns="http://www.w3.org/2000/svg">
<path d="M392.53 9.70987C377.66 19.5699 367.21 34.7099 357.83 49.8999C348.45 65.0899 339.59 80.8999 326.72 93.2799C309.54 109.8 286.72 118.79 265.98 130.57C245.24 142.35 224.98 159.13 219.84 182.4C214.84 205.11 225.44 228.25 237.91 247.88C250.38 267.51 265.32 286.43 270.47 309.1C272.85 319.58 273.03 330.51 275.95 340.85C282.22 363.11 300.57 380.22 320.89 391.28C359.89 412.46 408.66 414.52 449.27 396.7C489.88 378.88 521.39 341.55 532.17 298.53C542.95 255.51 532.74 207.74 505.32 172.87C494.41 158.99 480.67 146.57 474.97 129.87C470.21 115.87 471.71 100.65 473.73 86.0299C475.75 71.4099 478.21 56.4699 475.22 42.0299C467.24 3.31987 424.51 -11.5201 392.53 9.70987Z" fill="#CCF8F9"/>
<path d="M486.48 121.07C488.48 127.74 492.8 134.81 499.71 135.69C504.86 136.35 509.92 133.13 512.71 128.79C515.5 124.45 516.53 119.15 517.02 113.99C517.85 105.19 517.28 95.8 512.45 88.4C507.85 81.35 494.26 73.92 488.55 83.3C482.37 93.5 483.22 110.18 486.48 121.07Z" fill="#CCF8F9"/>
<path d="M303.7 94.2701C295.96 99.2101 287.46 103.27 278.35 104.47C269.24 105.67 259.4 103.47 252.67 97.2101C246.81 91.7901 243.8 83.7301 243.48 75.7601C243.16 67.7901 245.31 59.8601 248.54 52.5601C260.59 25.3201 288.69 5.9201 318.44 4.3101C332.83 3.5301 355.08 11.5401 352.97 29.6401C351.08 45.8601 337.62 63.4001 326.89 74.9001C320.008 82.3091 312.216 88.8175 303.7 94.2701Z" fill="#CCF8F9"/>
<path d="M333.16 25.7198C333.79 18.3598 338.84 11.7798 345.37 8.30978C353.6 3.92978 364.53 4.46978 371.62 10.5398C374.359 12.8929 376.438 15.9178 377.654 19.3175C378.871 22.7172 379.182 26.3747 378.558 29.9311C377.933 33.4874 376.395 36.8202 374.093 39.6023C371.792 42.3844 368.806 44.5201 365.43 45.7998C357.72 48.7098 350.94 45.6898 343.72 43.1298C336.75 40.6598 332.55 32.9298 333.16 25.7198Z" fill="#472948"/>
<path d="M371.62 10.5398C364.53 4.46978 353.62 3.92978 345.37 8.30978C340.583 10.8349 336.797 14.9108 334.63 19.8698C337.516 16.3012 341.264 13.5272 345.52 11.8098C353.52 8.66978 363.14 9.91978 369.71 15.3898C372.375 17.6516 374.462 20.5159 375.8 23.7453C377.137 26.9746 377.685 30.4761 377.4 33.9598C377.925 32.6704 378.313 31.3298 378.56 29.9598C379.149 26.3998 378.821 22.7484 377.606 19.3505C376.392 15.9526 374.332 12.9202 371.62 10.5398Z" fill="#654059"/>
<path d="M420.58 131.14C415.647 127.21 411.613 122.269 408.75 116.65C406.91 113.131 405.358 109.469 404.11 105.7L403.87 104.16C401.26 86.7096 399.01 68.2196 388.3 54.1596C384.373 49.014 379.457 44.7054 373.841 41.4872C368.224 38.269 362.022 36.2061 355.597 35.4197C349.172 34.6334 342.654 35.1395 336.428 36.9083C330.201 38.6771 324.391 41.6729 319.339 45.7196C314.287 49.7663 310.095 54.7822 307.01 60.4724C303.924 66.1625 302.007 72.4122 301.372 78.8538C300.737 85.2955 301.395 91.7992 303.31 97.9825C305.224 104.166 308.356 109.904 312.52 114.86C314.347 117.054 315.787 119.543 316.78 122.22C316.83 123.17 316.85 124.14 316.83 125.11C316.732 133.86 313.767 142.336 308.39 149.24C306.027 152.296 303.274 155.029 300.2 157.37C303.654 155.474 306.745 152.983 309.33 150.01C314.973 143.611 318.085 135.371 318.08 126.84C320.51 139.13 315.91 153.89 309.22 164.6C346.88 160.84 385.71 155.99 423.37 152.23C415.54 144.91 411.01 135.17 408.06 124.75C408.804 125.765 409.602 126.74 410.45 127.67C412.772 130.241 415.469 132.445 418.45 134.21C421.241 135.845 424.281 137.014 427.45 137.67C430.252 138.248 433.135 138.313 435.96 137.86C430.349 136.95 425.059 134.639 420.58 131.14Z" fill="#472948"/>
<path d="M310.8 61.0898C315.248 54.82 321.133 49.7069 327.963 46.1783C334.792 42.6497 342.368 40.8084 350.055 40.8084C357.742 40.8084 365.318 42.6497 372.147 46.1783C378.977 49.7069 384.862 54.82 389.31 61.0898C397.12 72.0898 399.84 85.5398 403.07 98.7998C400.71 82.9998 397.91 66.7998 388.3 54.2398C383.052 47.3535 376.059 41.9956 368.044 38.7214C360.029 35.4472 351.285 34.3758 342.717 35.6182C334.149 36.8606 326.068 40.3716 319.314 45.7874C312.559 51.2031 307.375 58.3267 304.3 66.4198C301.176 74.8284 300.432 83.9357 302.15 92.7398C301.305 81.5087 304.36 70.3299 310.8 61.0898Z" fill="#654059"/>
<path d="M320.1 420.33L315.46 384C313.674 370.069 315.938 355.918 321.98 343.24L325.91 334.99L461.57 330.33L466.69 338.68C471.585 346.667 474.782 355.576 476.085 364.852C477.387 374.128 476.766 383.574 474.26 392.6L466.57 420.33H320.1Z" fill="#454F6B"/>
<path d="M431.15 362.1C444.33 356.87 456.79 350.02 469.15 343C468.4 341.54 467.61 340.09 466.74 338.68L461.62 330.33L325.98 334.99L321.98 343.24C321.08 345.133 320.267 347.053 319.54 349C339.09 360.29 361.47 370.08 383.92 371.14C400.06 371.9 416.14 368.06 431.15 362.1Z" fill="#422C4F"/>
<path d="M354.43 380.08L380.24 388.4C386.26 390.328 392.756 390.162 398.67 387.93L431.98 375.33L400.33 393.33C398.952 394.113 397.781 395.212 396.911 396.537C396.042 397.862 395.5 399.374 395.33 400.95L393.24 420.36H387.74L386.98 402.02C386.905 400.229 386.35 398.492 385.374 396.99C384.397 395.488 383.035 394.275 381.43 393.48L354.43 380.08Z" fill="#422C4F"/>
<path d="M468.87 335.46L454.87 310.02C448.551 298.575 444.702 285.934 443.57 272.91L432.4 145.24L413.18 144.99C408.78 159.99 395.18 172.14 379.59 174.16C363.39 176.26 346.47 167.22 338.76 152.91L325.98 154.66C329.75 168.46 329.24 184.24 325.43 198.03C323.43 205.47 320.26 212.58 318.02 219.97C315.78 227.36 314.43 235.25 316.02 242.81C316.904 247.012 318.818 250.93 321.59 254.21C327.218 260.565 330.779 268.482 331.8 276.91L333.11 288.99C334.547 302.293 332.324 315.737 326.68 327.87L319.63 342.99C338.69 354.17 360.69 364.06 382.76 365.1C398.14 365.83 413.48 362.16 427.76 356.48C442.04 350.8 455.5 343.11 468.87 335.46Z" fill="#050548"/>
<path d="M421.98 204.99C422.79 209.4 430.98 216.62 439.22 222.86L433.93 162.26C419.98 173.33 420.26 195.99 421.98 204.99Z" fill="#030337"/>
<path d="M442.43 337.4C435.257 340.439 427.891 343.002 420.38 345.07C403.587 349.664 386.091 351.122 368.77 349.37C361.026 348.578 353.342 347.275 345.77 345.47C352.653 349.605 360.15 352.619 367.98 354.4C386.017 358.514 404.886 356.924 421.98 349.85C429.413 346.809 436.316 342.607 442.43 337.4Z" fill="#030337"/>
<path d="M436.14 327.4C432.42 328.74 428.2 330.24 423.67 331.63C419.14 333.02 414.28 334.29 409.38 335.3C404.48 336.31 399.52 337.05 394.8 337.57C390.08 338.09 385.62 338.37 381.67 338.62C386.022 339.729 390.489 340.326 394.98 340.4C405.225 340.598 415.385 338.507 424.72 334.28C428.781 332.439 432.614 330.13 436.14 327.4Z" fill="#030337"/>
<path d="M412.49 165.59C408.159 169.283 403.345 172.368 398.18 174.76C386.721 180.147 373.702 181.213 361.52 177.76C356.036 176.241 350.785 173.984 345.91 171.05C349.872 175.501 354.797 178.989 360.31 181.25C366.694 183.947 373.635 185.06 380.542 184.496C387.45 183.932 394.118 181.707 399.98 178.01C405.042 174.877 409.321 170.629 412.49 165.59Z" fill="#030337"/>
<path d="M443.54 272.91L443.29 270.1C405.996 269.851 368.726 272.009 331.71 276.56C331.71 276.67 331.71 276.79 331.71 276.91L333.02 288.99C333.877 296.64 333.526 304.378 331.98 311.92L364.57 288.92C363.918 292.894 364.185 296.965 365.35 300.82C365.861 302.724 366.742 304.508 367.943 306.072C369.144 307.635 370.642 308.946 372.35 309.93C374.073 310.886 376.025 311.349 377.993 311.27C379.961 311.19 381.87 310.571 383.51 309.48C385.792 307.664 387.358 305.099 387.93 302.24C388.325 300.466 388.536 298.657 388.56 296.84C388.45 295.769 388.45 294.69 388.56 293.62C388.56 294.69 388.56 295.77 388.56 296.84C388.815 299.105 389.223 301.35 389.78 303.56C390.51 306.85 392.58 310.05 395.78 311.21C400 312.75 404.78 310.21 407.31 306.43C409.84 302.65 410.49 298.09 411.12 293.65L447.37 292.1C445.425 285.855 444.142 279.423 443.54 272.91Z" fill="#030337"/>
<path d="M328.43 214.33H295.43L286.74 273.94C286.612 274.832 286.528 275.729 286.49 276.63L320.93 266.83L328.43 214.33Z" fill="#BD6C67"/>
<path d="M379.59 174.16C395.17 172.16 408.78 159.98 413.18 144.99L388.98 144.66L378.56 109.54L349.84 133.66L355.23 150.66L338.73 152.91C346.47 167.22 363.39 176.26 379.59 174.16Z" fill="#BD6C67"/>
<path d="M349.87 133.66L352.68 142.54C369.68 150.54 382.05 133.33 378.59 109.54L349.87 133.66Z" fill="#472948"/>
<path d="M328.58 123.97C325.63 124.65 322.605 124.946 319.58 124.85C316.541 124.741 313.657 123.483 311.51 121.33C309.51 119.1 308.79 115.57 310.33 112.99C311.148 111.729 312.4 110.813 313.85 110.417C315.3 110.02 316.844 110.171 318.19 110.84C320.743 115.866 324.276 120.33 328.58 123.97Z" fill="#A64F5A"/>
<path d="M381.51 104.07C380.43 113.26 379.06 123.07 372.79 129.92C366.7 136.54 356.79 138.86 348 137.1C339.21 135.34 331.4 129.97 325.32 123.34C319.754 117.208 315.458 110.035 312.681 102.234C309.904 94.4327 308.7 86.1586 309.14 77.8895C322.761 67.8274 339.529 62.9649 356.42 64.1795C355.99 69.6695 358.42 75.7196 361.42 80.3596C364.401 85.0281 368.805 88.6145 373.98 90.5896C373.588 92.7163 374.013 94.9124 375.17 96.7395C376.229 98.6861 377.966 100.177 380.05 100.93C379.88 97.9243 380.612 94.9368 382.15 92.3495C382.905 90.9852 383.959 89.8084 385.231 88.9065C386.503 88.0045 387.962 87.4007 389.5 87.1396C391.045 86.9164 392.621 87.1668 394.021 87.8577C395.42 88.5486 396.578 89.6475 397.34 91.0095C398.91 94.1795 397.72 98.0095 395.88 101.07C394.473 103.654 392.261 105.708 389.58 106.92C386.87 107.97 383.29 106.4 381.51 104.07Z" fill="#BD6C67"/>
<path d="M393.4 90.6396C392.309 90.3713 391.167 90.3975 390.09 90.7156C389.013 91.0336 388.04 91.632 387.27 92.4496C385.745 94.1196 384.825 96.254 384.66 98.5096C384.524 99.3842 384.613 100.279 384.92 101.11C385.077 101.525 385.348 101.888 385.702 102.156C386.056 102.425 386.478 102.589 386.92 102.63C388.08 102.63 388.98 101.63 389.51 100.57C390.069 99.588 390.284 98.4474 390.12 97.3296C390.027 96.7753 389.758 96.2657 389.353 95.8765C388.948 95.4874 388.428 95.2394 387.87 95.1696C388.386 94.0431 389.152 93.0493 390.11 92.2642C391.069 91.4791 392.194 90.9234 393.4 90.6396Z" fill="#A64F5A"/>
<path d="M356.71 81.1098C355.778 79.4561 354.373 78.1188 352.675 77.2697C350.977 76.4206 349.064 76.0984 347.182 76.3446C345.3 76.5907 343.534 77.394 342.112 78.6512C340.689 79.9083 339.675 81.562 339.2 83.3998C344.45 82.7798 351.46 81.7298 356.71 81.1098Z" fill="#472948"/>
<path d="M321.51 88.29C320.866 87.3486 320.1 86.4977 319.23 85.76C318.349 85.0246 317.214 84.6654 316.07 84.76C315.216 84.9462 314.435 85.3806 313.827 86.0086C313.219 86.6366 312.809 87.4302 312.65 88.29C312.368 90.0154 312.433 91.7797 312.84 93.48L321.51 88.29Z" fill="#472948"/>
<path d="M349.86 98.3297C351.76 98.3297 353.3 96.7896 353.3 94.8897C353.3 92.9898 351.76 91.4497 349.86 91.4497C347.96 91.4497 346.42 92.9898 346.42 94.8897C346.42 96.7896 347.96 98.3297 349.86 98.3297Z" fill="#472948"/>
<path d="M324.09 102.05C324.54 103.89 323.81 105.65 322.48 105.97C321.15 106.29 319.7 105.06 319.25 103.22C318.8 101.38 319.53 99.6099 320.86 99.2899C322.19 98.9699 323.64 100.2 324.09 102.05Z" fill="#472948"/>
<path d="M347.34 111.4C342.373 113.699 337.187 115.491 331.86 116.75C334.55 118.126 337.661 118.437 340.57 117.62C343.43 116.66 345.89 114.03 347.34 111.4Z" fill="#A64F5A"/>
<path d="M366.8 110.82C358.714 116.275 349.932 120.621 340.69 123.74C344.98 126.88 351.69 126.47 356.23 123.74C360.77 121.01 364.47 115.59 366.8 110.82Z" fill="white"/>
<path d="M364.31 122.87C360.969 126.757 356.326 129.295 351.25 130.01C352.527 130.6 353.918 130.906 355.325 130.906C356.732 130.906 358.123 130.6 359.4 130.01C361.85 128.82 363.76 125.56 364.31 122.87Z" fill="#A64F5A"/>
<path d="M391.43 108.58C391.43 109.207 391.244 109.82 390.896 110.341C390.547 110.862 390.052 111.268 389.473 111.508C388.894 111.748 388.256 111.811 387.642 111.689C387.027 111.566 386.462 111.265 386.018 110.821C385.575 110.378 385.273 109.813 385.151 109.198C385.029 108.583 385.091 107.946 385.331 107.367C385.571 106.787 385.978 106.292 386.499 105.944C387.02 105.596 387.633 105.41 388.26 105.41C388.677 105.408 389.089 105.489 389.475 105.648C389.86 105.807 390.21 106.041 390.504 106.335C390.799 106.63 391.032 106.98 391.191 107.365C391.35 107.75 391.431 108.163 391.43 108.58Z" fill="#E4E4E0"/>
<path d="M388.87 108.2C388.872 108.467 388.794 108.729 388.647 108.953C388.5 109.176 388.29 109.35 388.044 109.454C387.797 109.558 387.525 109.586 387.263 109.535C387 109.484 386.759 109.356 386.569 109.168C386.379 108.98 386.25 108.739 386.197 108.477C386.144 108.215 386.17 107.943 386.272 107.696C386.374 107.448 386.547 107.237 386.769 107.088C386.991 106.939 387.253 106.86 387.52 106.86C387.876 106.86 388.218 107.001 388.471 107.252C388.724 107.503 388.867 107.844 388.87 108.2Z" fill="white"/>
<path d="M367.2 99.1397C368.04 101.14 365.49 104.14 361.5 105.81C357.51 107.48 353.59 107.13 352.75 105.08C351.91 103.03 354.47 100.08 358.46 98.4096C362.45 96.7396 366.36 97.0997 367.2 99.1397Z" fill="#A64F5A"/>
<path d="M327.1 112.06C327.189 112.778 327.066 113.507 326.747 114.156C326.428 114.805 325.927 115.348 325.304 115.717C324.681 116.085 323.965 116.265 323.242 116.232C322.519 116.2 321.821 115.958 321.234 115.535C320.647 115.112 320.196 114.527 319.936 113.852C319.676 113.176 319.619 112.44 319.771 111.733C319.924 111.025 320.279 110.378 320.794 109.869C321.309 109.361 321.961 109.014 322.67 108.87C323.68 108.708 324.713 108.953 325.543 109.551C326.373 110.149 326.933 111.051 327.1 112.06Z" fill="#A64F5A"/>
<path d="M325.98 154.66C319.739 155.509 313.916 158.273 309.312 162.572C304.709 166.87 301.553 172.491 300.28 178.66L292.98 214.33H331.91C331.86 160.99 325.98 154.66 325.98 154.66Z" fill="#050548"/>
<path d="M472.59 201.33L481.78 251.03C482.45 254.685 482.32 258.441 481.4 262.042C480.48 265.642 478.791 269 476.45 271.886C474.109 274.772 471.171 277.116 467.837 278.758C464.504 280.401 460.855 281.302 457.14 281.4L357.98 283.99L410.31 252.66L441.39 247.66L437.81 206.66L472.59 201.33Z" fill="#BD6C67"/>
<path d="M422.98 268.58C421.3 269.58 419.38 272.23 419.31 274.18C419.291 275.154 419.509 276.119 419.947 276.99C420.384 277.861 421.027 278.613 421.82 279.18C423.82 280.59 426.53 280.58 429 280.46C437.74 280.07 447.07 278.94 453.72 273.25C456.477 270.889 458.596 267.872 459.88 264.477C461.164 261.082 461.573 257.419 461.069 253.824C460.565 250.229 459.164 246.82 456.995 243.909C454.827 240.998 451.96 238.681 448.66 237.17L447.57 227.01C457.83 226.01 468.96 221.5 475.78 218.29L472.64 201.29L437.81 206.64L441.39 247.64L410.31 252.64L357.98 283.99L370.98 283.66L408.73 267.08C414.18 268.83 422.98 268.58 422.98 268.58Z" fill="#A64F5A"/>
<path d="M371.57 294.92C371.41 295.7 371.26 296.48 371.13 297.27C370.656 299.504 370.809 301.826 371.57 303.98C372.205 305.362 373.205 306.545 374.464 307.4C375.722 308.255 377.191 308.749 378.71 308.83C380.228 308.877 381.736 308.568 383.113 307.927C384.491 307.286 385.698 306.332 386.64 305.14C388.69 302.57 389.27 299.5 389.54 296.29C383.817 294.068 377.564 293.591 371.57 294.92Z" fill="#CEB49D"/>
<path d="M376.61 283.51C374.081 286.873 372.369 290.78 371.61 294.92C377.613 293.585 383.878 294.062 389.61 296.29C389.98 291.84 389.73 287.13 391.85 283.12L376.61 283.51Z" fill="#967F92"/>
<path d="M394.35 295.4C394.22 296.04 394.1 296.68 394 297.32C393.516 299.554 393.669 301.879 394.44 304.03C395.072 305.413 396.071 306.596 397.328 307.451C398.585 308.306 400.052 308.8 401.57 308.88C403.09 308.928 404.6 308.619 405.978 307.979C407.357 307.338 408.567 306.383 409.51 305.19C411.79 302.33 412.32 298.7 412.62 294.95C406.618 293.302 400.264 293.459 394.35 295.4Z" fill="#CEB49D"/>
<path d="M399.98 282.91C397.193 286.6 395.269 290.868 394.35 295.4C400.264 293.458 406.618 293.302 412.62 294.95C412.96 290.68 413 286.25 414.94 282.57L399.98 282.91Z" fill="#967F92"/>
<path d="M432.4 145.24L439.45 145.34C445.288 145.417 450.957 147.31 455.67 150.756C460.383 154.202 463.906 159.03 465.75 164.57L480.43 208.57C464.68 218.07 434.54 218.51 434.54 218.51L427.6 194.18C424.233 182.384 424.449 169.853 428.22 158.18L432.4 145.24Z" fill="#050548"/>
<path d="M458.53 251.86C458.18 244.97 454.97 236.58 448.83 233.44L445.55 235.69C447.42 237.799 448.748 240.331 449.421 243.068C450.093 245.805 450.089 248.665 449.41 251.4C448.622 254.032 447.192 256.425 445.247 258.365C443.302 260.305 440.904 261.73 438.27 262.51C436.876 262.886 435.45 263.134 434.01 263.25C435.774 264.875 437.196 266.835 438.195 269.015C439.195 271.196 439.75 273.553 439.83 275.95C443.823 274.874 447.533 272.939 450.7 270.28C453.298 267.989 455.35 265.146 456.705 261.958C458.059 258.771 458.683 255.32 458.53 251.86Z" fill="#967F92"/>
<path d="M433.98 263.22C432.16 263.39 430.33 263.45 428.51 263.62C425.25 263.93 421.86 264.71 419.51 266.95C417.16 269.19 416.21 273.25 418.28 275.78C420.35 278.31 423.97 278.3 427.14 278.04C431.434 277.766 435.69 277.056 439.84 275.92C439.755 273.52 439.193 271.161 438.187 268.98C437.181 266.8 435.751 264.842 433.98 263.22Z" fill="#645B79"/>
<path d="M452.5 245.65C452.224 244.904 451.788 244.228 451.223 243.668C450.658 243.109 449.978 242.679 449.23 242.41C450.14 245.332 450.202 248.453 449.41 251.41C449.3 251.79 449.17 252.16 449.03 252.54C449.587 252.399 450.113 252.155 450.58 251.82C451.506 251.122 452.19 250.151 452.535 249.044C452.879 247.937 452.867 246.75 452.5 245.65Z" fill="#645B79"/>
<path d="M452.32 260.65C452.048 261.695 451.714 262.724 451.32 263.73C450.32 265.57 448.11 266.41 446.86 268.09C446.346 268.838 446.034 269.706 445.954 270.61C445.873 271.513 446.027 272.423 446.4 273.25C447.95 272.408 449.405 271.402 450.74 270.25C454.667 266.786 457.307 262.095 458.23 256.94C456.987 256.899 455.761 257.231 454.708 257.892C453.655 258.553 452.823 259.513 452.32 260.65Z" fill="#645B79"/>
<path d="M447.03 263.14C447.392 263.037 447.731 262.868 448.03 262.64C448.97 261.98 452.65 257.94 450.23 257.19C448.33 256.59 445.99 259.47 445.53 260.92C445.384 261.251 445.34 261.617 445.402 261.973C445.464 262.329 445.631 262.658 445.88 262.92C446.043 263.041 446.231 263.123 446.43 263.161C446.629 263.199 446.834 263.192 447.03 263.14Z" fill="#645B79"/>
<path d="M288.58 254.53C287.387 255.408 286.294 256.414 285.32 257.53C284.221 258.726 283.371 260.129 282.819 261.657C282.268 263.185 282.027 264.807 282.11 266.43C282.42 269.66 284.71 272.77 287.88 273.43C290.09 273.788 292.354 273.311 294.23 272.09C296.087 270.881 297.821 269.494 299.41 267.95C300.3 267.16 301.23 266.4 302.16 265.64C300.823 262.924 298.918 260.527 296.576 258.611C294.233 256.694 291.506 255.303 288.58 254.53Z" fill="#CEB49D"/>
<path d="M326.35 216.3C320.203 223.625 316.497 232.687 315.75 242.22C307.757 244.295 300.093 247.476 292.98 251.67C291.442 252.525 289.963 253.481 288.55 254.53C291.48 255.307 294.209 256.705 296.552 258.629C298.895 260.552 300.797 262.957 302.13 265.68C310.193 259.154 319.438 254.245 329.36 251.22C331.63 239.84 329.98 227.33 326.35 216.3Z" fill="#967F92"/>
<path d="M326.35 216.3C320.203 223.625 316.497 232.687 315.75 242.22C313.165 242.851 310.617 243.629 308.12 244.55C308.122 246.294 308.795 247.97 310 249.23C311.129 250.353 312.622 251.037 314.21 251.16C315.171 251.263 316.087 251.626 316.858 252.209C317.629 252.792 318.228 253.573 318.59 254.47C318.7 254.72 318.79 254.99 318.89 255.25C322.291 253.669 325.799 252.332 329.39 251.25C331.63 239.84 329.98 227.33 326.35 216.3Z" fill="#645B79"/>
<path d="M281.74 217.82C280.607 219.564 279.604 221.389 278.74 223.28C277.878 225.188 277.736 227.345 278.34 229.35C278.847 230.522 279.61 231.566 280.574 232.403C281.539 233.241 282.678 233.851 283.91 234.19C286.091 234.818 288.384 234.953 290.623 234.587C292.863 234.22 294.993 233.36 296.86 232.07C300.59 229.448 303.435 225.755 305.02 221.48C306.588 217.228 307.479 212.757 307.66 208.23C307.883 206.774 307.66 205.286 307.02 203.96C305.82 201.96 303.16 201.52 300.83 201.42C298.022 201.288 295.207 201.362 292.41 201.64C290.41 201.83 287.41 201.49 286.8 203.64C285.45 208.61 284.36 213.26 281.74 217.82Z" fill="#472948"/>
<path d="M345.2 259.92C339.91 254.57 333.54 248.44 329.43 242.14C325.32 235.84 322.57 227.72 322.8 220.2C318.31 215.7 313.63 210.79 308.66 206.83C308.041 206.4 307.335 206.111 306.592 205.983C305.849 205.855 305.087 205.891 304.36 206.09C302.91 206.5 301.498 207.035 300.14 207.69C293.76 210.31 285.63 209.69 279.4 206.69C276.971 207.987 274.22 208.558 271.475 208.335C268.73 208.112 266.107 207.103 263.92 205.43C259.46 202.17 257.05 196.85 254.4 192C261.33 187.76 268.46 182.78 275.4 178.54C275.537 173.556 277.313 168.756 280.452 164.882C283.592 161.009 287.921 158.278 292.768 157.113C297.616 155.947 302.713 156.411 307.27 158.433C311.828 160.455 315.592 163.923 317.98 168.3C322.98 177.56 330.49 186.37 340.17 190.51C350.7 195.01 362.57 195.18 373.98 194.13C385.39 193.08 396.71 190.88 408.17 190.9C419.63 190.92 431.54 193.4 440.42 200.63C449.3 207.86 453.12 222.81 448.84 233.44L431.29 245.44L392.08 246.54L345.2 259.92Z" fill="#967F92"/>
<path d="M348.61 203.56C350.54 206.72 354.77 207.36 358.01 209.15C362.25 211.48 364.87 215.86 367.52 219.91C370.17 223.96 373.38 228.11 378.03 229.45C383.23 230.95 388.86 228.45 392.84 224.78C396.82 221.11 399.66 216.4 403.1 212.22C406.54 208.04 410.96 204.22 416.32 203.46C418.93 203.1 421.65 203.46 424.17 202.72C425.768 202.209 427.194 201.268 428.291 199.999C429.388 198.731 430.115 197.184 430.39 195.53C430.39 195.3 430.39 195.06 430.44 194.83C423.33 192.119 415.769 190.785 408.16 190.9C396.7 190.9 385.37 193.08 373.97 194.13C365.97 194.86 357.82 195 350.02 193.48C349.365 194.417 348.815 195.423 348.38 196.48C347.872 197.598 347.629 198.819 347.669 200.047C347.709 201.275 348.031 202.477 348.61 203.56Z" fill="#645B79"/>
<path d="M350.03 217.82C349.833 219.332 350.219 220.862 351.11 222.1C351.999 223.323 353.063 224.408 354.27 225.32C355.66 226.47 357.27 227.64 359.11 227.4C359.958 227.232 360.735 226.811 361.337 226.191C361.939 225.571 362.338 224.782 362.48 223.93C362.72 222.211 362.314 220.465 361.34 219.03C359.23 215.69 351.19 211.2 350.03 217.82Z" fill="#645B79"/>
<path d="M446.68 208.4C447.687 212.269 447.209 216.375 445.34 219.91C442.53 225.06 436.12 228.96 430.27 228.65C432.27 225.65 434.56 222.26 436.59 219.3C427.678 221.479 419.217 225.202 411.59 230.3C412.24 227.14 412.73 223.15 413.38 219.99C403.314 225.596 395.041 233.938 389.52 244.05L358.6 252.05C356.627 252.575 354.541 252.48 352.624 251.776C350.708 251.073 349.055 249.796 347.89 248.12C345.946 245.399 345.012 242.085 345.25 238.75L329.67 242.44C333.79 248.61 340 254.61 345.18 259.85L392.05 246.51L431.26 245.41L448.81 233.41C451.89 225.84 450.79 216.04 446.68 208.4Z" fill="#645B79"/>
<path d="M256.55 196.08C259.378 196.08 261.67 194.54 261.67 192.64C261.67 190.74 259.378 189.2 256.55 189.2C253.722 189.2 251.43 190.74 251.43 192.64C251.43 194.54 253.722 196.08 256.55 196.08Z" fill="#472948"/>
<path d="M291.61 179.2C293.576 179.2 295.17 177.606 295.17 175.64C295.17 173.673 293.576 172.08 291.61 172.08C289.644 172.08 288.05 173.673 288.05 175.64C288.05 177.606 289.644 179.2 291.61 179.2Z" fill="#472948"/>
<path d="M279.4 206.73C284.18 203.99 291.62 197.66 291.62 197.66C289.84 202.91 284.87 207.04 279.4 206.73Z" fill="#472948"/>
<path d="M305.92 175.1C306.47 179.83 307.82 184.52 307.46 189.26C306.97 195.8 303.32 201.6 300.46 207.49C297.6 213.38 295.39 220.32 297.89 226.39C300.27 232.16 306.74 235.7 312.98 235.39C319.22 235.08 324.98 231.33 328.57 226.21C332.16 221.09 333.68 214.75 333.79 208.51C333.733 202.255 332.821 196.037 331.08 190.03C329.53 184.1 327.6 178.17 324.27 173.03C321.53 168.78 316.81 163.55 311.62 162.39C305.37 161.01 305.47 171.12 305.92 175.1Z" fill="#59395B"/>
<path d="M447.98 237.17C448.88 236.1 449.74 234.52 448.87 233.44C448.622 233.167 448.307 232.964 447.956 232.852C447.605 232.739 447.23 232.721 446.87 232.8C446.16 232.953 445.483 233.231 444.87 233.62C441.01 235.79 437.14 238.05 433.51 240.62C432.78 241.17 432.04 241.7 431.28 242.22C432.01 241.67 432.76 241.15 433.51 240.62C438.082 237.238 442.295 233.394 446.08 229.15C446.685 228.541 447.173 227.825 447.52 227.04C447.689 226.643 447.751 226.209 447.7 225.781C447.649 225.353 447.487 224.946 447.23 224.6C446.925 224.292 446.545 224.069 446.128 223.951C445.711 223.834 445.271 223.826 444.85 223.93C444.014 224.152 443.222 224.518 442.51 225.01C437.38 228.13 432.01 231.01 426.88 234.13L438.76 222.81C439.98 221.65 441.31 220.02 440.49 218.47C440.281 218.116 439.991 217.818 439.643 217.601C439.294 217.383 438.899 217.252 438.49 217.22C437.047 217.204 435.64 217.669 434.49 218.54C426.396 223.279 418.703 228.674 411.49 234.67L415.11 224.52C415.687 222.853 416.024 221.112 416.11 219.35C416.134 218.992 416.049 218.636 415.864 218.329C415.679 218.022 415.405 217.778 415.078 217.632C414.751 217.486 414.386 217.444 414.035 217.511C413.683 217.579 413.36 217.753 413.11 218.01C404.735 226.487 397.611 236.114 391.95 246.6L320.98 266.83L286.54 276.63C286.341 280.601 286.976 284.571 288.404 288.282C289.832 291.994 292.021 295.365 294.83 298.18C299.142 302.491 304.725 305.303 310.756 306.203C316.786 307.103 322.947 306.044 328.33 303.18L405.73 262.07C419.5 262.07 433.92 257.53 444.19 248.35C444.809 247.871 445.303 247.25 445.63 246.54C445.788 246.181 445.822 245.781 445.728 245.401C445.634 245.021 445.417 244.683 445.11 244.44C444.7 244.276 444.257 244.217 443.818 244.268C443.38 244.318 442.962 244.477 442.6 244.73C439.8 246.08 436.26 247.26 433.46 248.61C439.02 245.812 443.959 241.921 447.98 237.17Z" fill="#BD6C67"/>
<path d="M315.38 270.71C311.876 269.295 308.078 268.763 304.32 269.16C304.07 269.64 303.83 270.16 303.61 270.62C301.93 274.33 300.91 278.62 302.35 282.44C302.921 283.927 303.84 285.257 305.029 286.317C306.218 287.378 307.643 288.139 309.186 288.538C310.729 288.936 312.345 288.96 313.899 288.607C315.453 288.254 316.9 287.535 318.12 286.51C321.04 284.03 322.24 280.2 323.81 276.67C321.488 274.07 318.605 272.032 315.38 270.71Z" fill="#CEB49D"/>
<path d="M345.27 238.82C340.74 234.24 334.12 232.43 327.8 231.2C326.282 237.51 326.108 244.068 327.29 250.45C322.383 251.835 317.811 254.209 313.856 257.427C309.9 260.644 306.645 264.637 304.29 269.16C307.902 268.766 311.556 269.243 314.946 270.549C318.337 271.856 321.366 273.954 323.78 276.67C324 276.19 324.22 275.67 324.45 275.25C327.16 269.85 332.23 265.52 338.17 262.6C340.063 261.701 341.652 260.27 342.743 258.481C343.833 256.692 344.378 254.624 344.31 252.53C344.145 247.939 344.466 243.343 345.27 238.82Z" fill="#967F92"/>
<path d="M210.53 109.79C217.59 91.52 227.23 72.89 224.65 53.46C221.75 31.57 202.65 13.89 181.2 8.81999C159.75 3.74999 136.68 9.74999 117.81 21.24C98.94 32.73 83.72 49.3 69.98 66.57C41.98 101.76 18.6 141.44 7.24001 184.98C-4.11999 228.52 -2.75998 276.25 16.44 316.98C34.6585 355.116 66.9398 384.713 106.51 399.56C150.56 415.86 203.35 410.99 240.16 381.81C276.97 352.63 293.55 298.2 273.98 255.48C261.55 228.27 237.69 209.1 219.69 185.86C202.35 163.4 200.35 136.13 210.53 109.79Z" fill="#CCF8F9"/>
<path d="M69.29 53.1002C74.04 48.3002 78.87 43.3802 81.84 37.3202C84.81 31.2602 85.64 23.7302 82.29 17.8602C78.5 11.2202 70.09 8.22018 62.49 9.05018C54.89 9.88018 47.99 13.9202 41.92 18.5702C34.98 23.9202 28.54 30.4002 24.98 38.4702C21.42 46.5402 21.16 56.3602 25.84 63.8202C29.92 70.3402 40.15 75.5902 47.84 72.9902C55.98 70.2902 63.51 58.9502 69.29 53.1002Z" fill="#CCF8F9"/>
<path d="M115.52 253.23C107.21 258.89 98.6899 264.63 88.9799 267.23C83.9799 268.57 78.3699 268.94 74.0899 266.12C69.0099 262.77 67.41 255.77 68.69 249.82C69.97 243.87 73.55 238.72 77.05 233.74L110.68 218.07L115.52 253.23Z" fill="#EBA58E"/>
<path d="M105.17 223.83C85.84 279.83 73.5 369.67 73.5 369.67L106.6 371.33L130.35 220.46L105.17 223.83Z" fill="#FF8152"/>
<path d="M116.8 212.51C102.17 264.17 86.8 341.17 86.8 341.17L88.27 348.83L86.8 357.5H119.13L130.31 220.5L116.8 212.51Z" fill="white"/>
<path d="M116.8 212.51C111.1 232.62 105.3 256.57 100.34 278.32C105.966 276.276 111.371 273.665 116.47 270.53L109.04 334.07C108.918 335.106 108.419 336.061 107.64 336.754C106.86 337.447 105.853 337.83 104.81 337.83C104.102 337.831 103.405 338.008 102.782 338.345C102.159 338.682 101.629 339.168 101.24 339.76L99.5 342.4C99.023 343.146 98.3233 343.723 97.5 344.05L91.03 346.55H101.72C103.095 346.559 104.424 347.048 105.476 347.934C106.528 348.82 107.237 350.046 107.48 351.4L108.6 357.48H119.17L130.35 220.48L116.8 212.51Z" fill="#E4E4E0"/>
<path d="M89.5 357.5L82.5 416.17H200.84L199.98 398.53C199.647 391.863 199.057 385.197 198.21 378.53L195.49 357.53L89.5 357.5Z" fill="#050548"/>
<path d="M197.96 376.53L195.5 357.5H108.59L101 381.83L197.96 376.53Z" fill="#050548"/>
<path d="M130.5 128.67L134.96 141.19L165.36 132.09L153.67 98.1699L130.5 128.67Z" fill="#F2C9AD"/>
<path d="M153.67 98.1699L130.5 128.67L133.6 137.36C150.34 132.67 153.98 103.83 153.67 98.1699Z" fill="#472948"/>
<path d="M77.66 56.5298C76.9735 61.958 77.3127 67.4668 78.66 72.7698C80.0239 78.1038 83.1804 82.8066 87.6 86.0898C87.029 76.2253 87.4915 66.3281 88.98 56.5598C85.74 57.7098 80.98 57.3098 77.66 56.5298Z" fill="#6A3649"/>
<path d="M156.04 65.9199C153.36 55.4999 147.04 45.9199 137.93 40.1399C128.82 34.3599 116.93 32.8799 107.05 37.0799C96.5101 41.5399 89.2 51.9099 86.54 63.0799C83.88 74.2499 85.39 85.9899 88.77 96.9299C92.02 107.44 97.23 117.76 105.86 124.57C114.49 131.38 127.09 133.96 136.75 128.68C142.05 125.78 146.02 120.85 148.75 115.46C156.13 101.04 160.1 81.7299 156.04 65.9199Z" fill="#F2C9AD"/>
<path d="M141.64 29.8398C141.458 30.1396 141.3 30.454 141.17 30.7798C141.347 30.4768 141.504 30.1629 141.64 29.8398Z" fill="white"/>
<path d="M135.52 77.9102C134.581 76.2549 133.243 74.8602 131.629 73.8522C130.015 72.8443 128.174 72.2551 126.275 72.1379C124.375 72.0207 122.476 72.3793 120.75 73.1812C119.024 73.9831 117.526 75.2029 116.39 76.7302C122.35 76.0402 129.63 76.8302 135.52 77.9102Z" fill="#6A3649"/>
<path d="M98.4201 78.4598C97.8162 77.5895 97.115 76.7911 96.3301 76.0798C95.8087 75.5748 95.165 75.2139 94.4622 75.0324C93.7594 74.851 93.0215 74.8552 92.3208 75.0448C91.6201 75.2343 90.9807 75.6026 90.4652 76.1136C89.9497 76.6246 89.5758 77.2608 89.3801 77.9598C88.7757 79.6585 88.5074 81.4586 88.5901 83.2598C91.5247 81.0379 94.8633 79.4076 98.4201 78.4598Z" fill="#6A3649"/>
<path d="M131.3 88.0899C131.37 87.4675 131.309 86.8374 131.121 86.2399C130.933 85.6424 130.623 85.0906 130.21 84.6199C129.731 84.0279 129.132 83.5439 128.452 83.1994C127.773 82.855 127.028 82.6579 126.267 82.6211C125.506 82.5843 124.746 82.7085 124.037 82.9858C123.327 83.263 122.684 83.687 122.15 84.2299C121.695 84.6598 121.333 85.1795 121.089 85.7561C120.844 86.3327 120.722 86.9537 120.73 87.5799C121.321 86.6936 122.133 85.9755 123.084 85.4957C124.035 85.016 125.095 84.7908 126.159 84.8421C127.224 84.8935 128.257 85.2196 129.158 85.7888C130.058 86.358 130.797 87.1507 131.3 88.0899Z" fill="#472948"/>
<path d="M99.64 90.8499C99.2455 89.7185 98.5549 88.7136 97.64 87.9399C97.2488 87.5622 96.7698 87.2876 96.2461 87.141C95.7224 86.9944 95.1705 86.9803 94.64 87.0999C94.1605 87.3225 93.7513 87.6724 93.4569 88.1114C93.1624 88.5505 92.994 89.0618 92.97 89.5899C92.8295 90.7599 93.0236 91.9458 93.53 93.0099C93.53 91.1699 94.3 89.5799 95.53 89.1599C96.76 88.7399 98.3 89.4999 99.64 90.8499Z" fill="#472948"/>
<path d="M117.17 100.52L107.6 101.44C108.6 103.23 110.25 104.59 112.31 104.44C113.392 104.269 114.411 103.817 115.264 103.129C116.116 102.441 116.774 101.542 117.17 100.52Z" fill="#EBA58E"/>
<path d="M136.18 104.26C127.857 108.673 118.932 111.843 109.69 113.67C113.37 116.78 117.81 119.67 122.63 119.91C124.568 119.982 126.498 119.63 128.286 118.878C130.073 118.127 131.676 116.995 132.98 115.56C134.276 114.006 135.231 112.197 135.783 110.25C136.334 108.303 136.469 106.262 136.18 104.26Z" fill="white"/>
<path d="M135.73 119.68C132.961 121.617 129.894 123.086 126.65 124.03C127.886 124.616 129.217 124.979 130.58 125.1C131.901 125.075 133.177 124.615 134.21 123.79C134.732 123.246 135.136 122.601 135.398 121.893C135.659 121.186 135.772 120.433 135.73 119.68Z" fill="#EBA58E"/>
<path d="M137.44 100.52C142.582 100.52 146.75 98.6577 146.75 96.3602C146.75 94.0627 142.582 92.2002 137.44 92.2002C132.298 92.2002 128.13 94.0627 128.13 96.3602C128.13 98.6577 132.298 100.52 137.44 100.52Z" fill="#EBA58E"/>
<path d="M101.56 97.8601C102.2 99.3201 100.89 101.33 98.62 102.33C96.35 103.33 93.97 102.97 93.33 101.5C92.69 100.03 93.99 98.0301 96.26 97.0201C98.53 96.0101 100.91 96.4001 101.56 97.8601Z" fill="#EBA58E"/>
<path d="M128.98 62.33C132.28 73.21 142.4 77.47 148.34 77.33L157.24 72.12C156.98 70.0276 156.589 67.9535 156.07 65.91C154.85 61.1751 152.889 56.6627 150.26 52.54C129.04 54.58 107.94 57.58 86.96 61.54C86.82 62.03 86.68 62.54 86.57 63.03C85.9413 65.6581 85.5332 68.3341 85.35 71.03C100.358 71.3896 115.258 68.4183 128.98 62.33Z" fill="#EBA58E"/>
<path d="M156.25 92.7999C153.754 91.0779 151.723 88.7651 150.337 86.0676C148.952 83.3702 148.255 80.3718 148.31 77.3399C140.22 75.0199 132.92 68.3399 131.06 60.1199C117.26 65.0499 102.56 66.8099 87.91 67.0099C83.22 67.0699 78.42 66.8699 74.07 65.1299C69.72 63.3899 65.85 59.8599 64.83 55.2899C63.25 48.2899 68.62 41.5999 74.34 37.2899C92.5 23.4499 118.52 20.7799 139.11 30.6299C138.26 27.0499 138.11 23.9599 137.25 20.3799C138.278 20.7003 139.219 21.2512 140.001 21.9906C140.784 22.73 141.387 23.6383 141.765 24.6463C142.143 25.6543 142.286 26.7354 142.183 27.807C142.08 28.8786 141.733 29.9125 141.17 30.8299C141.577 29.8243 142.19 28.9149 142.969 28.1601C143.748 27.4054 144.676 26.8218 145.694 26.447C146.712 26.0722 147.797 25.9145 148.88 25.9838C149.962 26.0532 151.018 26.3482 151.98 26.8499L145.25 32.2699C149.47 30.7999 154.64 32.5199 158.17 35.2699C161.626 38.1447 164.08 42.0416 165.18 46.3999C166.278 50.7411 166.766 55.2141 166.63 59.6899C166.633 64.7888 166.346 69.8837 165.77 74.9499C165.505 78.2641 164.792 81.5271 163.65 84.6499C162.486 87.7916 160.303 90.453 157.45 92.2099L156.25 92.7999Z" fill="#6A3649"/>
<path d="M68.42 54.6501C69.42 49.4401 72.7299 44.8601 76.8499 41.4901C81.0777 38.2454 85.8065 35.7121 90.8499 33.9901C98.8499 30.9901 107.25 28.9101 115.77 28.9901C124.29 29.0701 132.94 31.5301 139.63 36.8101C146.49 34.1001 154.96 36.8101 160.19 42.0101C162.645 44.5094 164.642 47.4202 166.09 50.6101C165.879 49.1726 165.579 47.7498 165.19 46.3501C164.076 41.9853 161.604 38.0876 158.13 35.2201C154.6 32.4901 149.43 30.7701 145.21 32.2201L151.98 26.8501C151.027 26.3515 149.98 26.0583 148.907 25.9894C147.834 25.9205 146.759 26.0775 145.75 26.4501C144.046 27.0779 142.612 28.2755 141.69 29.8401C141.553 30.1631 141.396 30.4771 141.22 30.7801C141.35 30.4543 141.508 30.1399 141.69 29.8401C142.379 28.1618 142.421 26.288 141.81 24.5801C141.418 23.5828 140.811 22.6845 140.031 21.9497C139.251 21.2149 138.319 20.6618 137.3 20.3301C138.16 23.9101 138.3 27.0001 139.16 30.5801C118.57 20.7301 92.55 23.4001 74.39 37.2401C68.67 41.6001 63.2999 48.2401 64.8799 55.2401C65.4621 57.6653 66.7537 59.8621 68.59 61.5501C68.056 59.2867 67.9982 56.937 68.42 54.6501Z" fill="#8E5A61"/>
<path d="M161.49 75.0598C162.767 74.4104 164.207 74.1523 165.63 74.3177C167.053 74.4832 168.396 75.0648 169.49 75.9898C172.02 78.3998 171.92 82.4298 171.32 85.8798C170.965 88.3768 170.212 90.8009 169.09 93.0598C167.948 95.3314 166.054 97.1371 163.73 98.1698C150.47 103.5 152.88 79.2398 161.49 75.0598Z" fill="#F2C9AD"/>
<path d="M166.17 78.7402C163.36 78.7402 160.88 80.8702 159.72 83.4302C158.713 86.063 158.369 88.9033 158.72 91.7002C158.734 92.306 158.852 92.9048 159.07 93.4702C159.187 93.7477 159.37 93.9922 159.604 94.1823C159.838 94.3723 160.114 94.5021 160.41 94.5602C161.53 94.6902 162.29 93.5002 162.71 92.4602C163.295 91.2458 163.514 89.8871 163.34 88.5502C163.233 87.8888 162.893 87.2875 162.381 86.8548C161.869 86.422 161.22 86.1864 160.55 86.1902C160.66 84.5952 161.245 83.0696 162.23 81.8102C163.234 80.4417 164.598 79.3788 166.17 78.7402Z" fill="#EBA58E"/>
<path d="M129.4 155.85L129.83 142.72L167.75 131.47L172.07 139.83L129.4 155.85Z" fill="#FF8152"/>
<path d="M141.23 147.79L149.84 143.34C155.43 140.451 161.598 138.854 167.888 138.669C174.178 138.484 180.429 139.714 186.18 142.27C192.314 144.999 197.705 149.159 201.9 154.402C206.095 159.644 208.972 165.816 210.29 172.4L212.29 182.4C217.369 207.621 218.278 233.504 214.98 259.02L200.5 371.33H106.6L128.13 235.33L141.23 147.79Z" fill="#FF8152"/>
<path d="M172.07 190.91L134.56 254.99H129.5L121.42 277.71L134.77 190.91H172.07Z" fill="#FF7846"/>
<path d="M193.5 223.83C179 252.83 134.56 304.08 134.56 304.08L138.11 302.35C153.1 295.055 165.441 283.263 173.41 268.62C184.86 247.6 192.74 234.7 193.5 223.83Z" fill="#FF7846"/>
<path d="M186.65 289.3C172.399 299.218 157.158 307.629 141.17 314.4C159.11 314.18 176.58 304.15 186.65 289.3Z" fill="#FF7846"/>
<path d="M65.04 150.4C57.3884 173.401 58.8743 198.464 69.19 220.4C72.51 227.4 77.19 234.35 84.45 237.02C86.005 242.863 87.1247 248.812 87.8 254.82C87.8898 255.729 88.1949 256.603 88.6901 257.369C89.1852 258.136 89.8562 258.774 90.6472 259.23C91.4382 259.685 92.3265 259.946 93.2383 259.989C94.1501 260.033 95.0592 259.858 95.89 259.48C96.72 259.09 97.53 258.67 98.33 258.21C99.1889 257.71 99.9003 256.991 100.392 256.127C100.884 255.263 101.138 254.284 101.13 253.29C100.903 246.298 100.235 239.328 99.13 232.42L108.61 228.16C109.814 232.385 110.68 236.698 111.2 241.06C111.322 241.966 111.666 242.828 112.203 243.568C112.741 244.308 113.453 244.903 114.277 245.3C115.101 245.697 116.01 245.882 116.924 245.84C117.837 245.799 118.726 245.53 119.51 245.06L119.61 244.99C120.438 244.504 121.124 243.808 121.598 242.972C122.072 242.136 122.318 241.191 122.31 240.23C122.193 234.448 121.201 228.716 119.37 223.23C135.76 186.75 101.15 144.41 101.15 144.41L65.04 150.4Z" fill="#797C99"/>
<path d="M85.27 164.03C93.27 162.56 101.14 155.85 103.71 147.91C102.13 145.71 101.14 144.49 101.14 144.49L65.04 150.4C64.31 152.55 63.69 154.75 63.12 156.95C68.98 162.56 77.28 165.5 85.27 164.03Z" fill="#495375"/>
<path d="M101.32 144.72C101.44 144.86 101.61 145.08 101.82 145.36C101.61 145.08 101.44 144.86 101.32 144.72Z" fill="#797C99"/>
<path d="M103.17 147.17C103.34 147.4 103.52 147.64 103.7 147.9C103.52 147.64 103.34 147.4 103.17 147.17Z" fill="#797C99"/>
<path d="M101.14 144.49L101.31 144.71L101.14 144.49Z" fill="#797C99"/>
<path d="M63.12 156.91C63.39 155.91 63.67 154.83 63.97 153.8C63.67 154.83 63.39 155.87 63.12 156.91Z" fill="#797C99"/>
<path d="M101.84 145.4C102.17 145.82 102.6 146.4 103.11 147.1C102.6 146.4 102.17 145.81 101.84 145.4Z" fill="#797C99"/>
<path d="M119.36 223.31C121.623 218.244 123.029 212.837 123.52 207.31C107.308 215.261 90.5763 222.107 73.4401 227.8C76.2801 231.87 79.8501 235.3 84.4401 237C85.1501 239.7 85.7801 242.46 86.3201 245.25L99.9801 238.79C99.7101 236.61 99.4101 234.47 99.1301 232.42L108.61 228.16C109.19 230.16 109.61 232.16 110.05 234.02L120.91 228.86C120.499 226.982 119.982 225.129 119.36 223.31Z" fill="#495375"/>
<path d="M63.98 153.8C64.32 152.64 64.66 151.49 65.05 150.36C64.65 151.49 64.3 152.64 63.98 153.8Z" fill="#495375"/>
<path d="M103.11 147.09L103.17 147.17L103.11 147.09Z" fill="#495375"/>
<path d="M85.27 164.03C93.27 162.56 101.14 155.85 103.71 147.91C103.53 147.65 103.35 147.41 103.18 147.18L103.12 147.1C102.61 146.39 102.18 145.82 101.85 145.4C101.64 145.12 101.47 144.9 101.35 144.76L101.18 144.54L65.04 150.4C64.65 151.53 64.31 152.68 63.97 153.84C63.63 155 63.39 155.91 63.12 156.95C68.98 162.56 77.28 165.5 85.27 164.03Z" fill="#495375"/>
<path d="M75.57 236.63C76.4959 238.191 77.0366 239.95 77.1472 241.761C77.2577 243.572 76.9351 245.384 76.2058 247.046C75.4766 248.708 74.3618 250.172 72.9539 251.317C71.546 252.462 69.8855 253.255 68.11 253.63C64.39 254.41 60.56 253.31 56.76 253.23C46.82 253.02 37.31 260.78 35.54 270.56C33.77 280.34 39.94 290.95 49.32 294.24C53.01 295.54 57.38 295.7 60.62 293.49C63.86 291.28 65.18 286.23 62.62 283.29C60.06 280.35 55.72 280.78 52.27 279.29C50.3633 278.485 48.7423 277.126 47.6173 275.389C46.4922 273.652 45.9148 271.617 45.9601 269.547C46.0053 267.478 46.6711 265.47 47.8711 263.784C49.0711 262.098 50.7499 260.811 52.69 260.09C56.63 258.63 61 259.68 65.19 259.46C68.2124 259.299 71.1617 258.471 73.8261 257.036C76.4905 255.6 78.8039 253.592 80.6003 251.156C82.3966 248.72 83.6313 245.917 84.2157 242.947C84.8 239.977 84.7195 236.915 83.98 233.98C81.64 234.52 77.91 236.09 75.57 236.63Z" fill="#797C99"/>
<path d="M83.9799 233.98C81.6399 234.52 77.9099 236.09 75.5699 236.63C76.4716 238.185 77.0005 239.928 77.115 241.722C77.2295 243.517 76.9266 245.313 76.2299 246.97C78.647 247.135 81.0719 246.795 83.3499 245.97C84.7423 242.124 84.9615 237.951 83.9799 233.98Z" fill="#495375"/>
<path d="M95.25 180.58L128.13 235.33L172.07 190.91C175.991 186.941 178.578 181.849 179.474 176.343C180.37 170.836 179.53 165.187 177.07 160.18C175.351 156.655 172.881 153.548 169.835 151.078C166.788 148.609 163.238 146.835 159.433 145.882C155.629 144.929 151.662 144.82 147.811 145.563C143.96 146.305 140.318 147.881 137.14 150.18L95.25 180.58Z" fill="#FF8152"/>
<path d="M134.56 220.46C128.76 207.27 116.24 187.89 106.56 177.18C112.4 190.4 124.92 209.75 134.56 220.46Z" fill="#FF7846"/>
<path d="M111.21 207.17L122.67 218.17C124.586 220.002 127.098 221.08 129.746 221.207C132.394 221.334 134.998 220.5 137.08 218.86L170.67 192.38L128.13 235.38L111.21 207.17Z" fill="#FF7846"/>
<path d="M96.58 182.79L62.37 211.22C59.2416 213.822 57.1157 217.431 56.3567 221.428C55.5977 225.426 56.2529 229.563 58.21 233.13C60.3301 236.997 63.8304 239.922 68.0121 241.321C72.1939 242.721 76.7496 242.492 80.77 240.68L120.58 222.76L96.58 182.79Z" fill="#F2C9AD"/>
<path d="M96.58 182.79L120.58 222.79L105.07 229.79L108.98 225.37C110.243 223.93 111.052 222.148 111.303 220.249C111.554 218.35 111.236 216.419 110.39 214.7L95.25 183.94L96.58 182.79Z" fill="#EBA58E"/>
<path d="M94.89 177.31C93.46 175.25 91.7599 173.02 89.2899 172.62C87.4808 172.503 85.6803 172.954 84.14 173.91C82.8795 174.437 81.7869 175.298 80.9799 176.4C79.7799 178.4 81.1399 179.75 82.0699 181.4C83.1215 183.526 83.9525 185.755 84.55 188.05C85.0891 189.882 85.8268 191.649 86.75 193.32C90.5498 189.944 94.9632 187.33 99.75 185.62C98.4908 182.654 96.8576 179.862 94.89 177.31Z" fill="#797C99"/>
<path d="M99.6901 185.64C94.9033 187.35 90.4899 189.964 86.6901 193.34C87.1058 194.053 87.5915 194.723 88.1401 195.34C89.9701 197.34 92.8201 198.71 95.4801 198.02C96.6356 197.663 97.6805 197.016 98.5154 196.141C99.3504 195.265 99.9475 194.191 100.25 193.02C100.804 190.639 100.622 188.146 99.7301 185.87C99.7118 185.794 99.6984 185.718 99.6901 185.64Z" fill="#99A3B0"/>
<path d="M85.1 192.33C83.5762 193.462 81.7249 194.067 79.8266 194.053C77.9282 194.038 76.0863 193.406 74.58 192.25C72.7318 190.571 71.535 188.294 71.2 185.82C70.8749 183.363 70.8447 180.875 71.11 178.41C67.5 193.33 73.5 201.97 73.5 201.97L85.1 192.33Z" fill="#495375"/>
<path d="M86.3701 186.57C85.7646 184.276 84.9305 182.048 83.88 179.92C82.95 178.29 81.59 176.92 82.79 174.92C82.9063 174.743 83.0368 174.576 83.18 174.42C82.2832 174.889 81.5195 175.577 80.96 176.42C79.76 178.42 81.1201 179.77 82.0501 181.42C83.1016 183.546 83.9326 185.774 84.5301 188.07C85.0692 189.901 85.8069 191.669 86.7301 193.34C87.3201 192.81 87.9301 192.34 88.5501 191.81C87.6359 190.147 86.905 188.39 86.3701 186.57Z" fill="#495375"/>
<path d="M89.9801 193.86C89.4214 193.229 88.9289 192.542 88.5101 191.81C87.8901 192.3 87.2801 192.81 86.6901 193.34C87.1058 194.053 87.5915 194.723 88.1401 195.34C89.9701 197.34 92.8201 198.71 95.4801 198.02C96.711 197.687 97.8126 196.99 98.6401 196.02C98.2212 196.255 97.7743 196.437 97.3101 196.56C94.7001 197.23 91.8401 195.9 89.9801 193.86Z" fill="#797C99"/>
<path d="M121.81 160.59C120.39 158.54 118.69 156.31 116.22 155.91C114.41 155.785 112.607 156.237 111.07 157.2C109.797 157.733 108.694 158.605 107.88 159.72C106.69 161.72 108.04 163.07 108.97 164.72C110.026 166.845 110.861 169.074 111.46 171.37C111.997 173.199 112.735 174.963 113.66 176.63C117.45 173.266 121.845 170.653 126.61 168.93C125.371 165.957 123.758 163.154 121.81 160.59Z" fill="#797C99"/>
<path d="M126.61 168.92C121.845 170.643 117.45 173.256 113.66 176.62C114.076 177.333 114.562 178.003 115.11 178.62C116.93 180.62 119.79 181.99 122.44 181.3C123.603 180.94 124.652 180.286 125.488 179.401C126.324 178.516 126.917 177.431 127.21 176.25C127.77 173.873 127.592 171.383 126.7 169.11L126.61 168.92Z" fill="#99A3B0"/>
<path d="M113.29 169.86C112.695 167.562 111.861 165.333 110.8 163.21C109.88 161.57 108.52 160.21 109.72 158.21C109.838 158.034 109.968 157.867 110.11 157.71C109.215 158.185 108.45 158.872 107.88 159.71C106.69 161.71 108.04 163.06 108.97 164.71C110.026 166.835 110.861 169.064 111.46 171.36C111.997 173.189 112.735 174.953 113.66 176.62C114.25 176.1 114.86 175.62 115.48 175.1C114.563 173.438 113.828 171.681 113.29 169.86Z" fill="#495375"/>
<path d="M116.98 177.15C116.424 176.518 115.935 175.832 115.52 175.1C114.9 175.59 114.29 176.1 113.7 176.62C114.116 177.333 114.602 178.003 115.15 178.62C116.97 180.62 119.83 181.99 122.48 181.3C123.72 180.959 124.823 180.243 125.64 179.25C125.221 179.489 124.775 179.673 124.31 179.8C121.62 180.52 118.77 179.19 116.98 177.15Z" fill="#797C99"/>
<path d="M86.98 109.71C78.83 109.78 68.09 112.36 61.33 116.92L54.11 100.52C48.82 144.17 55.32 157 69.23 158.67C83.14 160.34 101.85 151.19 106.58 145.1C111.31 139.01 105.82 123.17 86.48 98.1699L86.98 109.71Z" fill="#797C99"/>
<path d="M79.8699 129.94C77.9135 127.385 75.0489 125.68 71.8699 125.18C70.2911 124.957 68.6815 125.142 67.1939 125.716C65.7063 126.29 64.3901 127.235 63.3699 128.46C61.5899 130.76 61.1799 133.79 60.8199 136.66C64.3431 137.25 67.9457 137.172 71.44 136.43C74.9891 135.449 78.0144 133.12 79.8699 129.94Z" fill="white"/>
<path d="M69.73 135.79C70.9429 135.786 72.1229 135.395 73.0989 134.675C74.0749 133.955 74.7962 132.942 75.1583 131.785C75.5204 130.627 75.5045 129.384 75.1129 128.236C74.7212 127.088 73.9742 126.095 72.98 125.4C72.6143 125.309 72.2437 125.239 71.87 125.19C69.4398 124.869 66.9781 125.48 64.98 126.9C64.4074 127.76 64.0784 128.759 64.028 129.791C63.9777 130.823 64.2077 131.85 64.6939 132.761C65.18 133.673 65.904 134.436 66.7889 134.969C67.6739 135.503 68.6868 135.786 69.72 135.79H69.73Z" fill="#21255C"/>
<path d="M86.49 127.94C86.49 124.85 87.38 121.94 89.21 120.23C90.0761 119.413 91.163 118.867 92.3361 118.661C93.5092 118.455 94.717 118.597 95.81 119.07C97.81 119.94 99.55 121.83 101.14 123.64C99.6939 125.67 97.7844 127.326 95.57 128.47C94.1083 129.044 92.5394 129.294 90.9718 129.203C89.4041 129.111 87.875 128.68 86.49 127.94Z" fill="white"/>
<path d="M96.18 127.12C94.38 128.75 91.38 128.12 89.61 125.67C89.1 124.995 88.7459 124.215 88.573 123.387C88.4001 122.559 88.4127 121.703 88.61 120.88C88.7935 120.652 88.9905 120.435 89.2 120.23C89.8608 119.606 90.6527 119.138 91.5178 118.859C92.3829 118.58 93.2993 118.499 94.2 118.62C95.0411 119.054 95.7676 119.681 96.32 120.45C97.87 122.65 97.87 125.6 96.18 127.12Z" fill="#21255C"/>
<path d="M98.49 136.5C98.3624 137.958 97.6785 139.312 96.58 140.28C95.9983 140.79 95.3154 141.171 94.5761 141.398C93.8368 141.626 93.0577 141.695 92.29 141.6C90.7128 141.429 89.2518 140.69 88.18 139.52C87.1926 138.429 86.4855 137.115 86.12 135.69C86.12 135.95 85.76 136.01 85.55 135.81C86.2506 137.181 86.5091 138.736 86.29 140.26C86.0399 141.897 85.1788 143.379 83.8799 144.407C82.5811 145.435 80.941 145.933 79.29 145.8C77.755 145.667 76.2986 145.062 75.12 144.07C75.5716 144.768 76.158 145.369 76.8448 145.838C77.5317 146.307 78.3052 146.634 79.12 146.8C80.09 146.995 81.091 146.977 82.0531 146.745C83.0152 146.514 83.9152 146.075 84.6903 145.46C85.4654 144.845 86.0969 144.068 86.5407 143.184C86.9845 142.3 87.23 141.329 87.26 140.34C87.26 140.19 87.26 140.05 87.26 139.91L87.4 140.13C87.9462 140.897 88.6497 141.539 89.4636 142.014C90.2775 142.488 91.183 142.783 92.12 142.88C93.0651 142.998 94.0246 142.885 94.9163 142.55C95.808 142.216 96.6054 141.67 97.24 140.96C97.7863 140.368 98.1844 139.656 98.4017 138.88C98.619 138.105 98.6493 137.289 98.49 136.5Z" fill="#21255C"/>
<path d="M61.35 116.92C59.0946 118.314 57.2053 120.227 55.84 122.5C55.2867 116.156 55.143 109.783 55.41 103.42L61.35 116.92Z" fill="#E47790"/>
<path d="M86.9799 109.71C88.9584 109.811 90.9251 110.075 92.86 110.5C91.0512 106.996 88.9504 103.651 86.58 100.5L86.9799 109.71Z" fill="#E47790"/>
<path d="M50.42 149.67C53.26 148.14 56.96 146.13 60.72 144.27C64.48 142.41 68.31 140.66 71.24 139.27C63.7543 141.496 56.7103 145.001 50.42 149.63V149.67Z" fill="#21255C"/>
<path d="M51.52 155.02C54.24 152.9 57.77 150.15 61.42 147.56C65.07 144.97 68.83 142.56 71.73 140.69C67.9526 142.408 64.3522 144.491 60.98 146.91C57.572 149.301 54.4039 152.017 51.52 155.02Z" fill="#21255C"/>
<path d="M58.38 155.45C60.22 153.62 62.61 151.22 65.1 148.92C67.59 146.62 70.1 144.42 72.1 142.72C66.8084 146.124 62.1575 150.433 58.36 155.45H58.38Z" fill="#21255C"/>
<path d="M114.75 127.89C108.306 127.793 101.945 129.346 96.27 132.4C102.218 130.139 108.427 128.634 114.75 127.92V127.89Z" fill="#21255C"/>
<path d="M118.88 131.55C111.47 130.633 103.949 131.405 96.88 133.81C99.88 133.23 103.88 132.55 107.88 132.15C111.88 131.75 115.8 131.6 118.88 131.55Z" fill="#21255C"/>
<path d="M118.38 135.05C111.685 133.79 104.815 133.79 98.12 135.05C100.93 134.93 104.59 134.76 108.25 134.77C111.91 134.78 115.57 134.93 118.38 135.05Z" fill="#21255C"/>
<path d="M88.7801 131.4C85.513 131.258 82.3084 132.326 79.7801 134.4C79.6478 134.509 79.5458 134.65 79.4838 134.81C79.4218 134.969 79.4019 135.142 79.426 135.312C79.45 135.482 79.5173 135.642 79.6214 135.779C79.7254 135.915 79.8627 136.022 80.0201 136.09C81.5478 136.767 83.176 137.189 84.8401 137.34C85.3323 137.374 85.8253 137.285 86.2754 137.083C86.7254 136.881 87.1186 136.57 87.4201 136.18C88.2301 135.15 88.9557 134.056 89.5901 132.91C89.6782 132.762 89.7266 132.593 89.7304 132.421C89.7342 132.248 89.6934 132.078 89.6118 131.926C89.5303 131.774 89.4109 131.646 89.2651 131.553C89.1194 131.461 88.9523 131.408 88.7801 131.4Z" fill="#495375"/>
</svg>
