<svg width="1277" height="410" viewBox="0 0 1277 410" fill="none" xmlns="http://www.w3.org/2000/svg">
<g clip-path="url(#clip0_474_1730)">
<path d="M44.3339 342.669C43.2128 343.12 42.0162 343.291 40.8197 343.46C38.913 343.729 37.0213 344.037 35.2436 344.847C33.8199 345.496 32.6083 346.444 31.3939 347.395C30.3403 348.209 29.2751 348.995 28.0079 349.451C25.5431 350.338 22.8575 349.481 21.3358 347.337C20.0737 345.558 19.8475 343.653 20.7538 341.639C22.0403 338.777 23.3325 335.918 24.6305 333.062C26.4654 329.056 30.9636 327.188 35.0968 328.711C38.0397 329.799 40.977 330.901 43.9088 332.018C46.1001 332.848 47.3229 334.471 47.5558 336.76C47.7887 339.049 46.9752 340.962 44.9911 342.302C44.794 342.436 44.5634 342.542 44.3339 342.669Z" fill="black" fill-opacity="0.3"/>
<path d="M24.1017 320.42C24.7751 322.125 25.0248 323.803 24.559 325.532C23.7664 328.475 21.1551 329.554 18.5009 328.058C15.5798 326.41 13.8185 322.131 14.7509 318.946C15.5603 316.181 18.3137 315.06 20.8164 316.49C22.4159 317.409 23.3853 318.858 24.1017 320.42Z" fill="black" fill-opacity="0.3"/>
<path d="M26.4238 319.227C25.9025 317.814 25.5577 316.135 26.0217 314.381C26.7786 311.505 29.5765 310.32 32.1462 311.82C33.9598 312.877 35.029 314.541 35.6774 316.479C36.1843 318.002 36.2802 319.56 35.7824 321.121C34.943 323.753 32.4418 324.765 30.0036 323.469C29.4657 323.185 28.9696 322.829 28.5288 322.412C27.6425 321.573 26.9854 320.583 26.4238 319.227Z" fill="black" fill-opacity="0.3"/>
<path d="M46.9598 319.056C47.5899 320.909 47.882 323.012 46.941 325.114C45.8642 327.519 43.225 327.992 41.3654 326.146C39.2515 324.047 38.6453 319.883 40.0742 317.256C41.1188 315.331 43.2186 314.875 44.9489 316.197C45.8431 316.887 46.4234 317.805 46.9598 319.056Z" fill="black" fill-opacity="0.3"/>
<path d="M17.8048 333.181C18.1857 334.026 18.3785 334.943 18.3701 335.871C18.3032 338.432 16.1581 339.862 13.7536 338.939C12.1313 338.316 10.9733 337.146 10.0492 335.727C9.25589 334.507 8.72944 333.192 8.74846 331.706C8.77967 329.261 10.7652 327.809 13.1028 328.555C14.9812 329.153 16.2909 330.441 17.2705 332.094C17.3895 332.295 17.501 332.499 17.6027 332.701C17.6797 332.856 17.7382 333.021 17.8048 333.181Z" fill="black" fill-opacity="0.3"/>
</g>
<g clip-path="url(#clip1_474_1730)">
<path d="M536.212 75.8343C535.132 75.2924 534.211 74.509 533.292 73.724C531.829 72.4727 530.346 71.2582 528.562 70.4621C527.134 69.8239 525.621 69.5435 524.104 69.2626C522.797 69.0116 521.502 68.7335 520.322 68.0849C518.026 66.8242 516.89 64.2444 517.491 61.6844C517.989 59.561 519.267 58.1307 521.377 57.4766C524.373 56.5469 527.372 55.6233 530.372 54.7057C534.59 53.4297 538.967 55.5655 540.561 59.6716C541.693 62.598 542.811 65.5294 543.915 68.466C544.743 70.6578 544.335 72.6489 542.773 74.3387C541.212 76.0285 539.24 76.6844 536.922 76.0839C536.691 76.0252 536.459 75.9224 536.212 75.8343Z" fill="black" fill-opacity="0.3"/>
<path d="M539.498 45.942C538.666 47.5754 537.573 48.8733 535.969 49.6684C533.239 51.0218 530.701 49.7787 530.066 46.7991C529.368 43.5186 531.41 39.3659 534.414 37.9569C537.023 36.7335 539.685 38.0556 540.27 40.8779C540.64 42.6852 540.195 44.3712 539.498 45.942Z" fill="black" fill-opacity="0.3"/>
<path d="M541.93 46.8927C542.644 45.567 543.674 44.1974 545.296 43.384C547.953 42.0477 550.693 43.3611 551.27 46.2799C551.678 48.339 551.138 50.2422 550.115 52.0106C549.308 53.3991 548.203 54.5021 546.704 55.1618C544.176 56.2748 541.761 55.0698 541.119 52.3843C540.976 51.7928 540.914 51.1855 540.936 50.5789C540.977 49.3596 541.285 48.2117 541.93 46.8927Z" fill="black" fill-opacity="0.3"/>
<path d="M555.65 62.1738C554.678 63.8729 553.295 65.4838 551.097 66.1696C548.581 66.9543 546.479 65.289 546.633 62.6731C546.807 59.6993 549.527 56.4887 552.442 55.8212C554.577 55.3298 556.308 56.6023 556.462 58.7745C556.537 59.9013 556.233 60.9438 555.65 62.1738Z" fill="black" fill-opacity="0.3"/>
<path d="M525.765 49.6681C525.384 50.5127 524.824 51.2644 524.122 51.8722C522.159 53.5168 519.667 52.8558 518.767 50.4425C518.161 48.8135 518.271 47.1717 518.723 45.5396C519.113 44.1372 519.75 42.8721 520.876 41.9032C522.73 40.308 525.133 40.8353 526.12 43.0816C526.915 44.8853 526.817 46.7194 526.226 48.5478C526.154 48.7701 526.075 48.9889 525.991 49.1989C525.926 49.3591 525.841 49.512 525.765 49.6681Z" fill="black" fill-opacity="0.3"/>
</g>
<g clip-path="url(#clip2_474_1730)">
<path d="M1219.97 401.756C1218.37 400.951 1217 399.786 1215.63 398.619C1213.46 396.758 1211.25 394.952 1208.6 393.768C1206.48 392.82 1204.23 392.403 1201.97 391.985C1200.03 391.612 1198.1 391.198 1196.35 390.234C1192.93 388.359 1191.25 384.524 1192.14 380.717C1192.88 377.56 1194.78 375.433 1197.92 374.461C1202.37 373.078 1206.83 371.705 1211.29 370.341C1217.56 368.443 1224.07 371.619 1226.44 377.724C1228.12 382.075 1229.79 386.434 1231.43 390.801C1232.66 394.059 1232.05 397.02 1229.73 399.533C1227.41 402.045 1224.48 403.02 1221.03 402.127C1220.69 402.04 1220.34 401.887 1219.97 401.756Z" fill="black" fill-opacity="0.2"/>
<path d="M1224.86 357.31C1223.62 359.739 1222 361.669 1219.61 362.851C1215.55 364.863 1211.78 363.015 1210.84 358.585C1209.8 353.707 1212.83 347.532 1217.3 345.437C1221.18 343.618 1225.14 345.584 1226.01 349.78C1226.56 352.468 1225.9 354.975 1224.86 357.31Z" fill="black" fill-opacity="0.2"/>
<path d="M1228.48 358.724C1229.54 356.753 1231.07 354.716 1233.48 353.507C1237.43 351.52 1241.51 353.473 1242.36 357.813C1242.97 360.874 1242.17 363.704 1240.65 366.334C1239.45 368.398 1237.8 370.038 1235.57 371.019C1231.82 372.674 1228.23 370.882 1227.27 366.889C1227.06 366.01 1226.97 365.107 1227 364.205C1227.06 362.392 1227.52 360.685 1228.48 358.724Z" fill="black" fill-opacity="0.2"/>
<path d="M1248.88 381.445C1247.43 383.971 1245.37 386.366 1242.11 387.386C1238.37 388.553 1235.24 386.077 1235.47 382.187C1235.73 377.766 1239.77 372.992 1244.11 371.999C1247.28 371.269 1249.85 373.161 1250.08 376.39C1250.2 378.066 1249.74 379.616 1248.88 381.445Z" fill="black" fill-opacity="0.2"/>
<path d="M1204.44 362.85C1203.87 364.106 1203.04 365.224 1202 366.128C1199.08 368.573 1195.37 367.59 1194.04 364.002C1193.13 361.58 1193.3 359.138 1193.97 356.712C1194.55 354.626 1195.5 352.746 1197.17 351.305C1199.93 348.933 1203.5 349.717 1204.97 353.057C1206.15 355.739 1206.01 358.466 1205.13 361.185C1205.02 361.515 1204.9 361.84 1204.78 362.153C1204.68 362.391 1204.55 362.618 1204.44 362.85Z" fill="black" fill-opacity="0.2"/>
</g>
<g clip-path="url(#clip3_474_1730)">
<path d="M21.4698 289.519C20.8731 289.759 20.2361 289.851 19.5992 289.941C18.5843 290.084 17.5773 290.247 16.6311 290.679C15.8732 291.024 15.2283 291.529 14.5819 292.035C14.021 292.468 13.454 292.887 12.7795 293.129C11.4675 293.601 10.0379 293.146 9.22791 292.004C8.5561 291.057 8.4357 290.043 8.91811 288.971C9.60292 287.448 10.2908 285.926 10.9817 284.405C11.9584 282.273 14.3528 281.279 16.5529 282.089C18.1194 282.669 19.683 283.255 21.2436 283.85C22.41 284.291 23.0609 285.155 23.1849 286.374C23.3088 287.593 22.8758 288.61 21.8197 289.324C21.7147 289.395 21.592 289.452 21.4698 289.519Z" fill="black" fill-opacity="0.3"/>
<path d="M10.7002 277.676C11.0587 278.584 11.1916 279.477 10.9436 280.397C10.5217 281.963 9.13173 282.538 7.71891 281.742C6.16397 280.865 5.22644 278.587 5.72275 276.891C6.15361 275.419 7.61926 274.823 8.95144 275.584C9.80284 276.073 10.3189 276.845 10.7002 277.676Z" fill="black" fill-opacity="0.3"/>
<path d="M11.9363 277.041C11.6587 276.289 11.4752 275.395 11.7222 274.461C12.1251 272.93 13.6144 272.3 14.9823 273.098C15.9477 273.661 16.5168 274.547 16.862 275.578C17.1318 276.389 17.1828 277.218 16.9178 278.049C16.471 279.45 15.1396 279.989 13.8418 279.299C13.5555 279.148 13.2914 278.958 13.0567 278.736C12.5849 278.29 12.2352 277.763 11.9363 277.041Z" fill="black" fill-opacity="0.3"/>
<path d="M22.8676 276.95C23.203 277.936 23.3585 279.056 22.8576 280.175C22.2845 281.455 20.8796 281.707 19.8897 280.724C18.7645 279.607 18.4418 277.39 19.2024 275.992C19.7584 274.967 20.8762 274.724 21.7972 275.428C22.2732 275.795 22.5821 276.284 22.8676 276.95Z" fill="black" fill-opacity="0.3"/>
<path d="M7.34837 284.469C7.55113 284.918 7.65375 285.407 7.64926 285.901C7.61365 287.264 6.47185 288.025 5.19189 287.534C4.32834 287.202 3.71195 286.58 3.22007 285.824C2.79777 285.175 2.51755 284.475 2.52767 283.684C2.54428 282.382 3.60118 281.609 4.84548 282.006C5.84534 282.325 6.54254 283.01 7.06394 283.89C7.12732 283.997 7.18667 284.106 7.24082 284.213C7.28179 284.296 7.3129 284.384 7.34837 284.469Z" fill="black" fill-opacity="0.3"/>
</g>
<g clip-path="url(#clip4_474_1730)">
<path d="M560.921 23.5163C560.346 23.2278 559.856 22.8108 559.367 22.393C558.588 21.7269 557.798 21.0804 556.849 20.6566C556.088 20.3169 555.283 20.1677 554.476 20.0182C553.78 19.8845 553.091 19.7365 552.462 19.3913C551.24 18.7202 550.636 17.347 550.955 15.9842C551.22 14.854 551.901 14.0926 553.024 13.7444C554.619 13.2496 556.215 12.7579 557.812 12.2695C560.057 11.5902 562.387 12.7272 563.236 14.9128C563.838 16.4705 564.433 18.031 565.021 19.5941C565.462 20.7608 565.245 21.8207 564.413 22.7202C563.582 23.6196 562.532 23.9687 561.299 23.6491C561.175 23.6179 561.052 23.5632 560.921 23.5163Z" fill="black" fill-opacity="0.3"/>
<path d="M562.67 7.60462C562.227 8.47407 561.645 9.16498 560.791 9.58821C559.338 10.3086 557.987 9.6469 557.649 8.06085C557.277 6.31465 558.364 4.10417 559.964 3.35416C561.352 2.70291 562.77 3.40669 563.081 4.90901C563.278 5.87105 563.041 6.76847 562.67 7.60462Z" fill="black" fill-opacity="0.3"/>
<path d="M563.964 8.11055C564.344 7.40489 564.893 6.67582 565.756 6.24287C567.17 5.53157 568.629 6.23067 568.936 7.78435C569.153 8.88041 568.865 9.89352 568.321 10.8348C567.892 11.5739 567.304 12.1611 566.506 12.5122C565.16 13.1047 563.874 12.4633 563.533 11.0337C563.457 10.7189 563.424 10.3956 563.435 10.0727C563.457 9.42368 563.621 8.81267 563.964 8.11055Z" fill="black" fill-opacity="0.3"/>
<path d="M571.268 16.2448C570.75 17.1492 570.014 18.0067 568.844 18.3717C567.505 18.7895 566.386 17.903 566.468 16.5106C566.56 14.9276 568.008 13.2186 569.56 12.8633C570.696 12.6017 571.618 13.2791 571.7 14.4353C571.74 15.0351 571.578 15.5901 571.268 16.2448Z" fill="black" fill-opacity="0.3"/>
<path d="M555.36 9.58799C555.157 10.0376 554.859 10.4377 554.485 10.7613C553.44 11.6367 552.114 11.2848 551.635 10.0002C551.312 9.13309 551.371 8.25915 551.611 7.39041C551.819 6.64388 552.158 5.9705 552.757 5.45474C553.744 4.60562 555.023 4.88632 555.549 6.08202C555.972 7.04209 555.92 8.0184 555.605 8.99165C555.567 9.11002 555.525 9.22649 555.48 9.33828C555.445 9.4235 555.4 9.50493 555.36 9.58799Z" fill="black" fill-opacity="0.3"/>
</g>
<g clip-path="url(#clip5_474_1730)">
<path d="M1256.71 323.966C1255.86 323.537 1255.13 322.917 1254.4 322.296C1253.24 321.305 1252.07 320.344 1250.66 319.714C1249.53 319.209 1248.33 318.987 1247.13 318.765C1246.1 318.566 1245.07 318.346 1244.14 317.832C1242.32 316.835 1241.42 314.793 1241.9 312.767C1242.29 311.086 1243.3 309.954 1244.97 309.436C1247.34 308.7 1249.72 307.969 1252.09 307.243C1255.43 306.233 1258.89 307.924 1260.16 311.174C1261.05 313.49 1261.94 315.81 1262.81 318.134C1263.46 319.869 1263.14 321.445 1261.91 322.782C1260.67 324.119 1259.11 324.639 1257.27 324.163C1257.09 324.117 1256.91 324.036 1256.71 323.966Z" fill="black" fill-opacity="0.2"/>
<path d="M1259.31 300.307C1258.66 301.6 1257.79 302.627 1256.52 303.256C1254.36 304.328 1252.35 303.344 1251.85 300.985C1251.3 298.389 1252.91 295.102 1255.29 293.987C1257.35 293.019 1259.46 294.065 1259.93 296.299C1260.22 297.729 1259.87 299.064 1259.31 300.307Z" fill="black" fill-opacity="0.2"/>
<path d="M1261.24 301.06C1261.8 300.01 1262.62 298.926 1263.9 298.283C1266.01 297.225 1268.17 298.265 1268.63 300.575C1268.95 302.204 1268.53 303.711 1267.72 305.11C1267.08 306.209 1266.2 307.082 1265.02 307.604C1263.02 308.485 1261.11 307.532 1260.6 305.406C1260.48 304.938 1260.43 304.457 1260.45 303.977C1260.48 303.012 1260.73 302.104 1261.24 301.06Z" fill="black" fill-opacity="0.2"/>
<path d="M1272.1 313.154C1271.33 314.499 1270.23 315.774 1268.49 316.316C1266.5 316.938 1264.84 315.619 1264.96 313.549C1265.1 311.195 1267.25 308.654 1269.56 308.126C1271.25 307.737 1272.62 308.744 1272.74 310.463C1272.8 311.355 1272.56 312.18 1272.1 313.154Z" fill="black" fill-opacity="0.2"/>
<path d="M1248.44 303.256C1248.14 303.925 1247.7 304.519 1247.14 305.001C1245.59 306.302 1243.62 305.779 1242.91 303.869C1242.43 302.58 1242.51 301.28 1242.87 299.989C1243.18 298.878 1243.68 297.877 1244.58 297.11C1246.04 295.848 1247.94 296.265 1248.73 298.043C1249.36 299.471 1249.28 300.922 1248.81 302.369C1248.75 302.545 1248.69 302.719 1248.62 302.885C1248.57 303.011 1248.5 303.133 1248.44 303.256Z" fill="black" fill-opacity="0.2"/>
</g>
<defs>
<clipPath id="clip0_474_1730">
<rect width="40.6448" height="34.9403" fill="white" transform="translate(4 321.602) rotate(-22.5734)"/>
</clipPath>
<clipPath id="clip1_474_1730">
<rect width="40.6448" height="34.9403" fill="white" transform="translate(525.308 31.6558) rotate(25.9834)"/>
</clipPath>
<clipPath id="clip2_474_1730">
<rect width="60.4339" height="51.952" fill="white" transform="translate(1203.76 336.068) rotate(25.9834)"/>
</clipPath>
<clipPath id="clip3_474_1730">
<rect width="21.6353" height="18.5988" fill="white" transform="translate(0 278.305) rotate(-22.5734)"/>
</clipPath>
<clipPath id="clip4_474_1730">
<rect width="21.6353" height="18.5988" fill="white" transform="translate(555.116) rotate(25.9834)"/>
</clipPath>
<clipPath id="clip5_474_1730">
<rect width="32.1691" height="27.6541" fill="white" transform="translate(1248.08 289) rotate(25.9834)"/>
</clipPath>
</defs>
</svg>
